<?xml version="1.0" encoding="UTF-8"?>
<svg xmlns="http://www.w3.org/2000/svg" xmlns:xlink="http://www.w3.org/1999/xlink" version="1.2" >
<font id="Unikurd Web">
<font-face  font-family="Unikurd Web" units-per-em="2048" ascent="1955" descent="-1040" font-style="normal" font-weight="400" font-stretch="normal" cap-height="1536" x-height="1024" underline-position="-480" underline-thickness="128" />
<missing-glyph  horiz-adv-x="1536" d="M256 0 L256 1280 L1280 1280 L1280 0 L256 0 Z M288 32 L1248 32 L1248 1248 L288 1248 L288 32 Z " />
<glyph glyph-name="space" unicode="&#x20;" horiz-adv-x="640" d="" />
<glyph glyph-name="exclam" unicode="&#x21;" horiz-adv-x="569" d="M231 364 L176 1141 L176 1466 L399 1466 L399 1141 L347 364 L231 364 Z M184 0 L184 205 L391 205 L391 0 L184 0 Z " />
<glyph glyph-name="quotedbl" unicode="&#x22;" horiz-adv-x="727" d="M144 947 L94 1226 L94 1466 L299 1466 L299 1226 L254 947 L144 947 Z M475 947 L426 1226 L426 1466 L631 1466 L631 1226 L583 947 L475 947 Z " />
<glyph glyph-name="numbersign" unicode="&#x23;" horiz-adv-x="1139" d="M103 -25 L190 401 L21 401 L21 550 L220 550 L294 913 L21 913 L21 1062 L324 1062 L411 1491 L561 1491 L474 1062 L789 1062 L876 1491 L1027 1491 L940 1062 L1113 1062 L1113 913 L910 913 L835 550 L1113 550 L1113 401 L805 401 L718 -25 L568 -25 L654 401 L340 401 L253 -25 L103 -25 Z M370 550 L684 550 L759 913 L444 913 L370 550 Z " />
<glyph glyph-name="dollar" unicode="&#x24;" horiz-adv-x="1139" d="M510 -211 L510 -31 Q375 -14 290.5 29.5 Q206 73 144.5 170 Q83 267 73 407 L254 441 Q275 296 328 228 Q404 132 510 121 L510 694 Q399 715 283 780 Q197 828 150.5 913 Q104 998 104 1106 Q104 1298 240 1417 Q331 1497 510 1515 L510 1601 L616 1601 L616 1515 Q773 1500 865 1423 Q983 1325 1007 1154 L821 1126 Q805 1232 754.5 1288.5 Q704 1345 616 1363 L616 844 Q752 810 796 791 Q880 754 933 701 Q986 648 1014.5 575 Q1043 502 1043 417 Q1043 230 924 105 Q805 -20 616 -29 L616 -211 L510 -211 Z M510 1365 Q405 1349 344.5 1281 Q284 1213 284 1120 Q284 1028 335.5 966 Q387 904 510 867 L510 1365 Z M616 121 Q721 134 789.5 212 Q858 290 858 405 Q858 503 809.5 562.5 Q761 622 616 669 L616 121 Z " />
<glyph glyph-name="percent" unicode="&#x25;" horiz-adv-x="1821" d="M119 1114 Q119 1271 198 1381 Q277 1491 427 1491 Q565 1491 655.5 1392.5 Q746 1294 746 1103 Q746 917 654.5 816.5 Q563 716 429 716 Q296 716 207.5 815 Q119 914 119 1114 Z M432 1367 Q365 1367 320.5 1309 Q276 1251 276 1096 Q276 955 321 897.5 Q366 840 432 840 Q500 840 544.5 898 Q589 956 589 1110 Q589 1252 544 1309.5 Q499 1367 432 1367 Z M433 -54 L1235 1491 L1381 1491 L582 -54 L433 -54 Z M1067 344 Q1067 502 1146 611.5 Q1225 721 1376 721 Q1514 721 1604.5 622.5 Q1695 524 1695 333 Q1695 147 1603.5 46.5 Q1512 -54 1377 -54 Q1244 -54 1155.5 45.5 Q1067 145 1067 344 Z M1381 597 Q1313 597 1268.5 539 Q1224 481 1224 326 Q1224 186 1269 128 Q1314 70 1380 70 Q1449 70 1493.5 128 Q1538 186 1538 340 Q1538 482 1493 539.5 Q1448 597 1381 597 Z " />
<glyph glyph-name="ampersand" unicode="&#x26;" horiz-adv-x="1366" d="M973 173 Q884 74 779 24.5 Q674 -25 552 -25 Q327 -25 195 127 Q88 251 88 404 Q88 540 175.5 649.5 Q263 759 437 842 Q338 956 305 1027 Q272 1098 272 1164 Q272 1296 375.5 1393.5 Q479 1491 636 1491 Q786 1491 881.5 1399 Q977 1307 977 1178 Q977 969 700 821 L963 486 Q1008 574 1033 690 L1220 650 Q1172 458 1090 334 Q1191 200 1319 109 L1198 -34 Q1089 36 973 173 Z M607 937 Q724 1006 758.5 1058 Q793 1110 793 1173 Q793 1248 745.5 1295.5 Q698 1343 627 1343 Q554 1343 505.5 1296 Q457 1249 457 1181 Q457 1147 474.5 1109.5 Q492 1072 527 1030 L607 937 Z M860 315 L530 724 Q384 637 333 562.5 Q282 488 282 415 Q282 326 353 230 Q424 134 554 134 Q635 134 721.5 184.5 Q808 235 860 315 Z " />
<glyph glyph-name="quotesingle" unicode="&#x27;" horiz-adv-x="391" d="M136 947 L90 1221 L90 1466 L295 1466 L295 1221 L247 947 L136 947 Z " />
<glyph glyph-name="parenleft" unicode="&#x28;" horiz-adv-x="682" d="M479 -431 Q330 -243 227 9 Q124 261 124 531 Q124 769 201 987 Q291 1240 479 1491 L608 1491 Q487 1283 448 1194 Q387 1056 352 906 Q309 719 309 530 Q309 49 608 -431 L479 -431 Z " />
<glyph glyph-name="parenright" unicode="&#x29;" horiz-adv-x="682" d="M253 -431 L124 -431 Q423 49 423 530 Q423 718 380 903 Q346 1053 285 1191 Q246 1281 124 1491 L253 1491 Q441 1240 531 987 Q608 769 608 531 Q608 261 504.5 9 Q401 -243 253 -431 Z " />
<glyph glyph-name="asterisk" unicode="&#x2a;" horiz-adv-x="797" d="M64 1197 L110 1339 Q269 1283 341 1242 Q322 1423 321 1491 L466 1491 Q463 1392 443 1243 Q546 1295 679 1339 L725 1197 Q598 1155 476 1141 Q537 1088 648 952 L528 867 Q470 946 391 1082 Q317 941 261 867 L143 952 Q259 1095 309 1141 Q180 1166 64 1197 Z " />
<glyph glyph-name="plus" unicode="&#x2b;" horiz-adv-x="1196" d="M513 237 L513 639 L114 639 L114 807 L513 807 L513 1206 L683 1206 L683 807 L1082 807 L1082 639 L683 639 L683 237 L513 237 Z " />
<glyph glyph-name="comma" unicode="&#x2c;" horiz-adv-x="569" d="M182 0 L182 205 L387 205 L387 0 Q387 -113 347 -182.5 Q307 -252 220 -290 L170 -213 Q227 -188 254 -139.5 Q281 -91 284 0 L182 0 Z " />
<glyph glyph-name="hyphen" unicode="&#x2d;" horiz-adv-x="682" d="M65 440 L65 621 L618 621 L618 440 L65 440 Z " />
<glyph glyph-name="period" unicode="&#x2e;" horiz-adv-x="569" d="M186 0 L186 205 L391 205 L391 0 L186 0 Z " />
<glyph glyph-name="slash" unicode="&#x2f;" horiz-adv-x="569" d="M0 -25 L425 1491 L569 1491 L145 -25 L0 -25 Z " />
<glyph glyph-name="zero" unicode="0" horiz-adv-x="1139" d="M85 723 Q85 983 138.5 1141.5 Q192 1300 297.5 1386 Q403 1472 563 1472 Q681 1472 770 1424.5 Q859 1377 917 1287.5 Q975 1198 1008 1069.5 Q1041 941 1041 723 Q1041 465 988 306.5 Q935 148 829.5 61.5 Q724 -25 563 -25 Q351 -25 230 127 Q85 310 85 723 Z M270 723 Q270 362 354.5 242.5 Q439 123 563 123 Q687 123 771.5 243 Q856 363 856 723 Q856 1085 771.5 1204 Q687 1323 561 1323 Q437 1323 363 1218 Q270 1084 270 723 Z " />
<glyph glyph-name="one" unicode="1" horiz-adv-x="1139" d="M763 0 L583 0 L583 1147 Q518 1085 412.5 1023 Q307 961 223 930 L223 1104 Q374 1175 487 1276 Q600 1377 647 1472 L763 1472 L763 0 Z " />
<glyph glyph-name="two" unicode="2" horiz-adv-x="1139" d="M1031 173 L1031 0 L62 0 Q60 65 83 125 Q120 224 201.5 320 Q283 416 437 542 Q676 738 760 852.5 Q844 967 844 1069 Q844 1176 767.5 1249.5 Q691 1323 568 1323 Q438 1323 360 1245 Q282 1167 281 1029 L96 1048 Q115 1255 239 1363.5 Q363 1472 572 1472 Q783 1472 906 1355 Q1029 1238 1029 1065 Q1029 977 993 892 Q957 807 873.5 713 Q790 619 596 455 Q434 319 388 270.5 Q342 222 312 173 L1031 173 Z " />
<glyph glyph-name="three" unicode="3" horiz-adv-x="1139" d="M86 387 L266 411 Q297 258 371.5 190.5 Q446 123 553 123 Q680 123 767.5 211 Q855 299 855 429 Q855 553 774 633.5 Q693 714 568 714 Q517 714 441 694 L461 852 Q479 850 490 850 Q605 850 697 910 Q789 970 789 1095 Q789 1194 722 1259 Q655 1324 549 1324 Q444 1324 374 1258 Q304 1192 284 1060 L104 1092 Q137 1273 254 1372.5 Q371 1472 545 1472 Q665 1472 766 1420.5 Q867 1369 920.5 1280 Q974 1191 974 1091 Q974 996 923 918 Q872 840 772 794 Q902 764 974 669.5 Q1046 575 1046 433 Q1046 241 906 107.5 Q766 -26 552 -26 Q359 -26 231.5 89 Q104 204 86 387 Z " />
<glyph glyph-name="four" unicode="4" horiz-adv-x="1139" d="M662 0 L662 351 L26 351 L26 516 L695 1466 L842 1466 L842 516 L1040 516 L1040 351 L842 351 L842 0 L662 0 Z M662 516 L662 1177 L203 516 L662 516 Z " />
<glyph glyph-name="five" unicode="5" horiz-adv-x="1139" d="M85 384 L274 400 Q295 262 371.5 192.5 Q448 123 556 123 Q686 123 776 221 Q866 319 866 481 Q866 635 779.5 724 Q693 813 553 813 Q466 813 396 773.5 Q326 734 286 671 L117 693 L259 1446 L988 1446 L988 1274 L403 1274 L324 880 Q456 972 601 972 Q793 972 925 839 Q1057 706 1057 497 Q1057 298 941 153 Q800 -25 556 -25 Q356 -25 229.5 87 Q103 199 85 384 Z " />
<glyph glyph-name="six" unicode="6" horiz-adv-x="1139" d="M1019 1107 L840 1093 Q816 1199 772 1247 Q699 1324 592 1324 Q506 1324 441 1276 Q356 1214 307 1095 Q258 976 256 756 Q321 855 415 903 Q509 951 612 951 Q792 951 918.5 818.5 Q1045 686 1045 476 Q1045 338 985.5 219.5 Q926 101 822 38 Q718 -25 586 -25 Q361 -25 219 140.5 Q77 306 77 686 Q77 1111 234 1304 Q371 1472 603 1472 Q776 1472 886.5 1375 Q997 1278 1019 1107 Z M284 475 Q284 382 323.5 297 Q363 212 434 167.5 Q505 123 583 123 Q697 123 779 215 Q861 307 861 465 Q861 617 780 704.5 Q699 792 576 792 Q454 792 369 704.5 Q284 617 284 475 Z " />
<glyph glyph-name="seven" unicode="7" horiz-adv-x="1139" d="M97 1274 L97 1447 L1046 1447 L1046 1307 Q906 1158 768.5 911 Q631 664 556 403 Q502 219 487 0 L302 0 Q305 173 370 418 Q435 663 556.5 890.5 Q678 1118 815 1274 L97 1274 Z " />
<glyph glyph-name="eight" unicode="8" horiz-adv-x="1139" d="M362 795 Q250 836 196 912 Q142 988 142 1094 Q142 1254 257 1363 Q372 1472 563 1472 Q755 1472 872 1360.5 Q989 1249 989 1089 Q989 987 935.5 911.5 Q882 836 773 795 Q908 751 978.5 653 Q1049 555 1049 419 Q1049 231 916 103 Q783 -25 566 -25 Q349 -25 216 103.5 Q83 232 83 424 Q83 567 155.5 663.5 Q228 760 362 795 Z M326 1100 Q326 996 393 930 Q460 864 567 864 Q671 864 737.5 929.5 Q804 995 804 1090 Q804 1189 735.5 1256.5 Q667 1324 565 1324 Q462 1324 394 1258 Q326 1192 326 1100 Z M268 423 Q268 346 304.5 274 Q341 202 413 162.5 Q485 123 568 123 Q697 123 781 206 Q865 289 865 417 Q865 547 778.5 632 Q692 717 562 717 Q435 717 351.5 633 Q268 549 268 423 Z " />
<glyph glyph-name="nine" unicode="9" horiz-adv-x="1139" d="M112 339 L285 355 Q307 233 369 178 Q431 123 528 123 Q611 123 673.5 161 Q736 199 776 262.5 Q816 326 843 434 Q870 542 870 654 Q870 666 869 690 Q815 604 721.5 550.5 Q628 497 519 497 Q337 497 211 629 Q85 761 85 977 Q85 1200 216.5 1336 Q348 1472 546 1472 Q689 1472 807.5 1395 Q926 1318 987.5 1175.5 Q1049 1033 1049 763 Q1049 482 988 315.5 Q927 149 806.5 62 Q686 -25 524 -25 Q352 -25 243 70.5 Q134 166 112 339 Z M849 986 Q849 1141 766.5 1232 Q684 1323 568 1323 Q448 1323 359 1225 Q270 1127 270 971 Q270 831 354.5 743.5 Q439 656 563 656 Q688 656 768.5 743.5 Q849 831 849 986 Z " />
<glyph glyph-name="colon" unicode="&#x3a;" horiz-adv-x="569" d="M185 857 L185 1062 L390 1062 L390 857 L185 857 Z M185 0 L185 205 L390 205 L390 0 L185 0 Z " />
<glyph glyph-name="semicolon" unicode="&#x3b;" horiz-adv-x="569" d="M182 857 L182 1062 L387 1062 L387 857 L182 857 Z M182 0 L182 205 L387 205 L387 0 Q387 -113 347 -182.5 Q307 -252 220 -290 L170 -213 Q227 -188 254 -139.5 Q281 -91 284 0 L182 0 Z " />
<glyph glyph-name="less" unicode="&#x3c;" horiz-adv-x="1196" d="M112 641 L112 809 L1083 1219 L1083 1040 L313 724 L1083 405 L1083 226 L112 641 Z " />
<glyph glyph-name="equal" unicode="&#x3d;" horiz-adv-x="1196" d="M1082 862 L114 862 L114 1030 L1082 1030 L1082 862 Z M1082 417 L114 417 L114 585 L1082 585 L1082 417 Z " />
<glyph glyph-name="greater" unicode="&#x3e;" horiz-adv-x="1196" d="M1083 641 L112 226 L112 405 L881 724 L112 1040 L112 1219 L1083 809 L1083 641 Z " />
<glyph glyph-name="question" unicode="&#x3f;" horiz-adv-x="1139" d="M472 361 Q471 397 471 415 Q471 521 501 598 Q523 656 572 715 Q608 758 701.5 840.5 Q795 923 823 972 Q851 1021 851 1079 Q851 1184 769 1263.5 Q687 1343 568 1343 Q453 1343 376 1271 Q299 1199 275 1046 L90 1068 Q115 1273 238.5 1382 Q362 1491 565 1491 Q780 1491 908 1374 Q1036 1257 1036 1091 Q1036 995 991 914 Q946 833 815 717 Q727 639 700 602 Q673 565 660 517 Q647 469 645 361 L472 361 Z M461 0 L461 205 L666 205 L666 0 L461 0 Z " />
<glyph glyph-name="at" unicode="&#x40;" horiz-adv-x="2079" d="M1161 163 Q1096 88 1015.5 42.5 Q935 -3 854 -3 Q765 -3 681 49 Q597 101 544.5 209 Q492 317 492 446 Q492 605 573.5 764.5 Q655 924 776 1004 Q897 1084 1011 1084 Q1098 1084 1177 1038.5 Q1256 993 1313 900 L1347 1055 L1526 1055 L1382 384 Q1352 244 1352 229 Q1352 202 1372.5 182.5 Q1393 163 1422 163 Q1475 163 1561 224 Q1675 304 1741.5 438.5 Q1808 573 1808 716 Q1808 883 1722.5 1028 Q1637 1173 1467.5 1260 Q1298 1347 1093 1347 Q859 1347 665.5 1237.5 Q472 1128 365.5 923.5 Q259 719 259 485 Q259 240 365.5 63 Q472 -114 673.5 -198.5 Q875 -283 1120 -283 Q1382 -283 1559 -195 Q1736 -107 1824 19 L2005 19 Q1954 -86 1830 -195 Q1706 -304 1535 -367.5 Q1364 -431 1123 -431 Q901 -431 713.5 -374 Q526 -317 394 -202.5 Q262 -88 195 61 Q111 250 111 469 Q111 713 211 934 Q333 1205 557.5 1349 Q782 1493 1102 1493 Q1350 1493 1547.5 1391.5 Q1745 1290 1859 1089 Q1956 916 1956 713 Q1956 423 1752 198 Q1570 -4 1354 -4 Q1285 -4 1242.5 17 Q1200 38 1180 77 Q1167 102 1161 163 Z M677 434 Q677 297 742 221 Q807 145 891 145 Q947 145 1009 178.5 Q1071 212 1127.5 278 Q1184 344 1220 445.5 Q1256 547 1256 649 Q1256 785 1188.5 860 Q1121 935 1024 935 Q960 935 903.5 902.5 Q847 870 794 798 Q741 726 709 623 Q677 520 677 434 Z " />
<glyph glyph-name="A" unicode="A" horiz-adv-x="1366" d="M-3 0 L560 1466 L769 1466 L1369 0 L1148 0 L977 444 L364 444 L203 0 L-3 0 Z M420 602 L917 602 L764 1008 Q694 1193 660 1312 Q632 1171 581 1032 L420 602 Z " />
<glyph glyph-name="B" unicode="B" horiz-adv-x="1366" d="M150 0 L150 1466 L700 1466 Q868 1466 969.5 1421.5 Q1071 1377 1128.5 1284.5 Q1186 1192 1186 1091 Q1186 997 1135 914 Q1084 831 981 780 Q1114 741 1185.5 647 Q1257 553 1257 425 Q1257 322 1213.5 233.5 Q1170 145 1106 97 Q1042 49 945.5 24.5 Q849 0 709 0 L150 0 Z M344 850 L661 850 Q790 850 846 867 Q920 889 957.5 940 Q995 991 995 1068 Q995 1141 960 1196.5 Q925 1252 860 1272.5 Q795 1293 637 1293 L344 1293 L344 850 Z M344 173 L709 173 Q803 173 841 180 Q908 192 953 220 Q998 248 1027 301.5 Q1056 355 1056 425 Q1056 507 1014 567.5 Q972 628 897.5 652.5 Q823 677 683 677 L344 677 L344 173 Z " />
<glyph glyph-name="C" unicode="C" horiz-adv-x="1479" d="M1204 514 L1398 465 Q1337 226 1178.5 100.5 Q1020 -25 791 -25 Q554 -25 405.5 71.5 Q257 168 179.5 351 Q102 534 102 744 Q102 973 189.5 1143.5 Q277 1314 438.5 1402.5 Q600 1491 794 1491 Q1014 1491 1164 1379 Q1314 1267 1373 1064 L1182 1019 Q1131 1179 1034 1252 Q937 1325 790 1325 Q621 1325 507.5 1244 Q394 1163 348 1026.5 Q302 890 302 745 Q302 558 356.5 418.5 Q411 279 526 210 Q641 141 775 141 Q938 141 1051 235 Q1164 329 1204 514 Z " />
<glyph glyph-name="D" unicode="D" horiz-adv-x="1479" d="M158 0 L158 1466 L663 1466 Q834 1466 924 1445 Q1050 1416 1139 1340 Q1255 1242 1312.5 1089.5 Q1370 937 1370 741 Q1370 574 1331 445 Q1292 316 1231 231.5 Q1170 147 1097.5 98.5 Q1025 50 922.5 25 Q820 0 687 0 L158 0 Z M352 173 L665 173 Q810 173 892.5 200 Q975 227 1024 276 Q1093 345 1131.5 461.5 Q1170 578 1170 744 Q1170 974 1094.5 1097.5 Q1019 1221 911 1263 Q833 1293 660 1293 L352 1293 L352 173 Z " />
<glyph glyph-name="E" unicode="E" horiz-adv-x="1366" d="M162 0 L162 1466 L1222 1466 L1222 1293 L356 1293 L356 844 L1167 844 L1167 672 L356 672 L356 173 L1256 173 L1256 0 L162 0 Z " />
<glyph glyph-name="F" unicode="F" horiz-adv-x="1251" d="M168 0 L168 1466 L1157 1466 L1157 1293 L362 1293 L362 839 L1050 839 L1050 666 L362 666 L362 0 L168 0 Z " />
<glyph glyph-name="G" unicode="G" horiz-adv-x="1593" d="M844 575 L844 747 L1465 748 L1465 204 Q1322 90 1170 32.5 Q1018 -25 858 -25 Q642 -25 465.5 67.5 Q289 160 199 335 Q109 510 109 726 Q109 940 198.5 1125.5 Q288 1311 456 1401 Q624 1491 843 1491 Q1002 1491 1130.5 1439.5 Q1259 1388 1332 1296 Q1405 1204 1443 1056 L1268 1008 Q1235 1120 1186 1184 Q1137 1248 1046 1286.5 Q955 1325 844 1325 Q711 1325 614 1284.5 Q517 1244 457.5 1178 Q398 1112 365 1033 Q309 897 309 738 Q309 542 376.5 410 Q444 278 573 214 Q702 150 847 150 Q973 150 1093 198.5 Q1213 247 1275 302 L1275 575 L844 575 Z " />
<glyph glyph-name="H" unicode="H" horiz-adv-x="1479" d="M164 0 L164 1466 L358 1466 L358 864 L1120 864 L1120 1466 L1314 1466 L1314 0 L1120 0 L1120 691 L358 691 L358 0 L164 0 Z " />
<glyph glyph-name="I" unicode="I" horiz-adv-x="569" d="M191 0 L191 1466 L385 1466 L385 0 L191 0 Z " />
<glyph glyph-name="J" unicode="J" horiz-adv-x="1024" d="M56 416 L231 440 Q238 272 294 210 Q350 148 449 148 Q522 148 575 181.5 Q628 215 648 272.5 Q668 330 668 456 L668 1466 L862 1466 L862 467 Q862 283 817.5 182 Q773 81 676.5 28 Q580 -25 450 -25 Q257 -25 154.5 86 Q52 197 56 416 Z " />
<glyph glyph-name="K" unicode="K" horiz-adv-x="1366" d="M150 0 L150 1466 L344 1466 L344 739 L1072 1466 L1335 1466 L720 872 L1362 0 L1106 0 L584 742 L344 508 L344 0 L150 0 Z " />
<glyph glyph-name="L" unicode="L" horiz-adv-x="1139" d="M150 0 L150 1466 L344 1466 L344 173 L1066 173 L1066 0 L150 0 Z " />
<glyph glyph-name="M" unicode="M" horiz-adv-x="1706" d="M152 0 L152 1466 L444 1466 L791 428 Q839 283 861 211 Q886 291 939 446 L1290 1466 L1551 1466 L1551 0 L1364 0 L1364 1227 L938 0 L763 0 L339 1248 L339 0 L152 0 Z " />
<glyph glyph-name="N" unicode="N" horiz-adv-x="1479" d="M156 0 L156 1466 L355 1466 L1125 315 L1125 1466 L1311 1466 L1311 0 L1112 0 L342 1152 L342 0 L156 0 Z " />
<glyph glyph-name="O" unicode="O" horiz-adv-x="1593" d="M99 714 Q99 1079 295 1285.5 Q491 1492 801 1492 Q1004 1492 1167 1395 Q1330 1298 1415.5 1124.5 Q1501 951 1501 731 Q1501 508 1411 332 Q1321 156 1156 65.5 Q991 -25 800 -25 Q593 -25 430 75 Q267 175 183 348 Q99 521 99 714 Z M299 711 Q299 446 441.5 293.5 Q584 141 799 141 Q1018 141 1159.5 295 Q1301 449 1301 732 Q1301 911 1240.5 1044.5 Q1180 1178 1063.5 1251.5 Q947 1325 802 1325 Q596 1325 447.5 1183.5 Q299 1042 299 711 Z " />
<glyph glyph-name="P" unicode="P" horiz-adv-x="1366" d="M158 0 L158 1466 L711 1466 Q857 1466 934 1452 Q1042 1434 1115 1383.5 Q1188 1333 1232.5 1242 Q1277 1151 1277 1042 Q1277 855 1158 725.5 Q1039 596 728 596 L352 596 L352 0 L158 0 Z M352 769 L731 769 Q919 769 998 839 Q1077 909 1077 1036 Q1077 1128 1030.5 1193.5 Q984 1259 908 1280 Q859 1293 727 1293 L352 1293 L352 769 Z " />
<glyph glyph-name="Q" unicode="Q" horiz-adv-x="1593" d="M1269 157 Q1404 64 1518 21 L1461 -114 Q1303 -57 1146 66 Q983 -25 786 -25 Q587 -25 425 71 Q263 167 175.5 341 Q88 515 88 733 Q88 950 176 1128 Q264 1306 426.5 1399 Q589 1492 790 1492 Q993 1492 1156 1395.5 Q1319 1299 1404.5 1125.5 Q1490 952 1490 734 Q1490 553 1435 408.5 Q1380 264 1269 157 Z M842 405 Q1010 358 1119 265 Q1290 421 1290 734 Q1290 912 1229.5 1045 Q1169 1178 1052.5 1251.5 Q936 1325 791 1325 Q574 1325 431 1176.5 Q288 1028 288 733 Q288 447 429.5 294 Q571 141 791 141 Q895 141 987 180 Q896 239 795 264 L842 405 Z " />
<glyph glyph-name="R" unicode="R" horiz-adv-x="1479" d="M161 0 L161 1466 L811 1466 Q1007 1466 1109 1426.5 Q1211 1387 1272 1287 Q1333 1187 1333 1066 Q1333 910 1232 803 Q1131 696 920 667 Q997 630 1037 594 Q1122 516 1198 399 L1453 0 L1209 0 L1015 305 Q930 437 875 507 Q820 577 776.5 605 Q733 633 688 644 Q655 651 580 651 L355 651 L355 0 L161 0 Z M355 819 L772 819 Q905 819 980 846.5 Q1055 874 1094 934.5 Q1133 995 1133 1066 Q1133 1170 1057.5 1237 Q982 1304 819 1304 L355 1304 L355 819 Z " />
<glyph glyph-name="S" unicode="S" horiz-adv-x="1366" d="M92 471 L275 487 Q288 377 335.5 306.5 Q383 236 483 192.5 Q583 149 708 149 Q819 149 904 182 Q989 215 1030.5 272.5 Q1072 330 1072 398 Q1072 467 1032 518.5 Q992 570 900 605 Q841 628 639 676.5 Q437 725 356 768 Q251 823 199.5 904.5 Q148 986 148 1087 Q148 1198 211 1294.5 Q274 1391 395 1441 Q516 1491 664 1491 Q827 1491 951.5 1438.5 Q1076 1386 1143 1284 Q1210 1182 1215 1053 L1029 1039 Q1014 1178 927.5 1249 Q841 1320 672 1320 Q496 1320 415.5 1255.5 Q335 1191 335 1100 Q335 1021 392 970 Q448 919 684.5 865.5 Q921 812 1009 772 Q1137 713 1198 622.5 Q1259 532 1259 414 Q1259 297 1192 193.5 Q1125 90 999.5 32.5 Q874 -25 717 -25 Q518 -25 383.5 33 Q249 91 172.5 207.5 Q96 324 92 471 Z " />
<glyph glyph-name="T" unicode="T" horiz-adv-x="1251" d="M531 0 L531 1293 L48 1293 L48 1466 L1210 1466 L1210 1293 L725 1293 L725 0 L531 0 Z " />
<glyph glyph-name="U" unicode="U" horiz-adv-x="1479" d="M1120 1466 L1314 1466 L1314 619 Q1314 398 1264 268 Q1214 138 1083.5 56.5 Q953 -25 741 -25 Q535 -25 404 46 Q273 117 217 251.5 Q161 386 161 619 L161 1466 L355 1466 L355 620 Q355 429 390.5 338.5 Q426 248 512.5 199 Q599 150 724 150 Q938 150 1029 247 Q1120 344 1120 620 L1120 1466 Z " />
<glyph glyph-name="V" unicode="V" horiz-adv-x="1366" d="M577 0 L9 1466 L219 1466 L600 401 Q646 273 677 161 Q711 281 756 401 L1152 1466 L1350 1466 L776 0 L577 0 Z " />
<glyph glyph-name="W" unicode="W" horiz-adv-x="1933" d="M414 0 L25 1466 L224 1466 L447 505 Q483 354 509 205 Q565 440 575 476 L854 1466 L1088 1466 L1298 724 Q1377 448 1412 205 Q1440 344 1485 524 L1715 1466 L1910 1466 L1508 0 L1321 0 L1012 1117 Q973 1257 966 1289 Q943 1188 923 1117 L612 0 L414 0 Z " />
<glyph glyph-name="X" unicode="X" horiz-adv-x="1366" d="M9 0 L576 764 L76 1466 L307 1466 L573 1090 Q656 973 691 910 Q740 990 807 1077 L1102 1466 L1313 1466 L798 775 L1353 0 L1113 0 L744 523 Q713 568 680 621 Q631 541 610 511 L242 0 L9 0 Z " />
<glyph glyph-name="Y" unicode="Y" horiz-adv-x="1366" d="M571 0 L571 621 L6 1466 L242 1466 L531 1024 Q611 900 680 776 Q746 891 840 1035 L1124 1466 L1350 1466 L765 621 L765 0 L571 0 Z " />
<glyph glyph-name="Z" unicode="Z" horiz-adv-x="1251" d="M41 0 L41 180 L792 1119 Q872 1219 944 1293 L126 1293 L126 1466 L1176 1466 L1176 1293 L353 276 L264 173 L1200 173 L1200 0 L41 0 Z " />
<glyph glyph-name="bracketleft" unicode="&#x5b;" horiz-adv-x="569" d="M139 -407 L139 1466 L536 1466 L536 1317 L319 1317 L319 -258 L536 -258 L536 -407 L139 -407 Z " />
<glyph glyph-name="backslash" unicode="&#x5c;" horiz-adv-x="569" d="M425 -25 L0 1491 L145 1491 L569 -25 L425 -25 Z " />
<glyph glyph-name="bracketright" unicode="&#x5d;" horiz-adv-x="569" d="M436 -407 L39 -407 L39 -258 L256 -258 L256 1317 L39 1317 L39 1466 L436 1466 L436 -407 Z " />
<glyph glyph-name="asciicircum" unicode="&#x5e;" horiz-adv-x="961" d="M239 690 L54 690 L407 1491 L552 1491 L907 690 L726 690 L479 1287 L239 690 Z " />
<glyph glyph-name="underscore" unicode="&#x5f;" horiz-adv-x="1139" d="M-31 -407 L-31 -277 L1162 -277 L1162 -407 L-31 -407 Z " />
<glyph glyph-name="grave" unicode="&#x60;" horiz-adv-x="682" d="M465 1194 L320 1194 L89 1474 L330 1474 L465 1194 Z " />
<glyph glyph-name="a" unicode="a" horiz-adv-x="1139" d="M828 131 Q728 46 635.5 11 Q543 -24 437 -24 Q262 -24 168 61.5 Q74 147 74 280 Q74 358 109.5 422.5 Q145 487 202.5 526 Q260 565 332 585 Q385 599 492 612 Q710 638 813 674 Q814 711 814 721 Q814 831 763 876 Q694 937 558 937 Q431 937 370.5 892.5 Q310 848 281 735 L105 759 Q129 872 184 941.5 Q239 1011 343 1048.5 Q447 1086 584 1086 Q720 1086 805 1054 Q890 1022 930 973.5 Q970 925 986 851 Q995 805 995 685 L995 445 Q995 194 1006.5 127.5 Q1018 61 1052 0 L864 0 Q836 56 828 131 Z M813 533 Q715 493 519 465 Q408 449 362 429 Q316 409 291 370.5 Q266 332 266 285 Q266 213 320.5 165 Q375 117 480 117 Q584 117 665 162.5 Q746 208 784 287 Q813 348 813 467 L813 533 Z " />
<glyph glyph-name="b" unicode="b" horiz-adv-x="1139" d="M301 0 L134 0 L134 1466 L314 1466 L314 943 Q428 1086 605 1086 Q703 1086 790.5 1046.5 Q878 1007 934.5 935.5 Q991 864 1023 763 Q1055 662 1055 547 Q1055 274 920 125 Q785 -24 596 -24 Q408 -24 301 133 L301 0 Z M299 539 Q299 348 351 263 Q436 124 581 124 Q699 124 785 226.5 Q871 329 871 532 Q871 740 788.5 839 Q706 938 589 938 Q471 938 385 835.5 Q299 733 299 539 Z " />
<glyph glyph-name="c" unicode="c" horiz-adv-x="1024" d="M828 389 L1005 366 Q976 183 856.5 79.5 Q737 -24 563 -24 Q345 -24 212.5 118.5 Q80 261 80 527 Q80 699 137 828 Q194 957 310.5 1021.5 Q427 1086 564 1086 Q737 1086 847 998.5 Q957 911 988 750 L813 723 Q788 830 724.5 884 Q661 938 571 938 Q435 938 350 840.5 Q265 743 265 532 Q265 318 347 221 Q429 124 561 124 Q667 124 738 189 Q809 254 828 389 Z " />
<glyph glyph-name="d" unicode="d" horiz-adv-x="1139" d="M824 0 L824 134 Q723 -24 527 -24 Q400 -24 293.5 46 Q187 116 128.5 241.5 Q70 367 70 530 Q70 689 123 818.5 Q176 948 282 1017 Q388 1086 519 1086 Q615 1086 690 1045.5 Q765 1005 812 940 L812 1466 L991 1466 L991 0 L824 0 Z M255 530 Q255 326 341 225 Q427 124 544 124 Q662 124 744.5 220.5 Q827 317 827 515 Q827 733 743 835 Q659 937 536 937 Q416 937 335.5 839 Q255 741 255 530 Z " />
<glyph glyph-name="e" unicode="e" horiz-adv-x="1139" d="M862 342 L1048 319 Q1004 156 885 66 Q766 -24 581 -24 Q348 -24 211.5 119.5 Q75 263 75 522 Q75 790 213 938 Q351 1086 571 1086 Q784 1086 919 941 Q1054 796 1054 533 Q1054 517 1053 485 L261 485 Q271 310 360 217 Q449 124 582 124 Q681 124 751 176 Q821 228 862 342 Z M271 633 L864 633 Q852 767 796 834 Q710 938 573 938 Q449 938 364.5 855 Q280 772 271 633 Z " />
<glyph glyph-name="f" unicode="f" horiz-adv-x="569" d="M178 0 L178 922 L19 922 L19 1062 L178 1062 L178 1175 Q178 1282 197 1334 Q223 1404 288.5 1447.5 Q354 1491 472 1491 Q548 1491 640 1473 L613 1316 Q557 1326 507 1326 Q425 1326 391 1291 Q357 1256 357 1160 L357 1062 L564 1062 L564 922 L357 922 L357 0 L178 0 Z " />
<glyph glyph-name="g" unicode="g" horiz-adv-x="1139" d="M102 -88 L277 -114 Q288 -195 338 -232 Q405 -282 521 -282 Q646 -282 714 -232 Q782 -182 806 -92 Q820 -37 819 139 Q701 0 525 0 Q306 0 186 158 Q66 316 66 537 Q66 689 121 817.5 Q176 946 280.5 1016 Q385 1086 526 1086 Q714 1086 836 934 L836 1062 L1002 1062 L1002 144 Q1002 -104 951.5 -207.5 Q901 -311 791.5 -371 Q682 -431 522 -431 Q332 -431 215 -345.5 Q98 -260 102 -88 Z M251 550 Q251 341 334 245 Q417 149 542 149 Q666 149 750 244.5 Q834 340 834 544 Q834 739 747.5 838 Q661 937 539 937 Q419 937 335 839.5 Q251 742 251 550 Z " />
<glyph glyph-name="h" unicode="h" horiz-adv-x="1139" d="M135 0 L135 1466 L315 1466 L315 940 Q441 1086 633 1086 Q751 1086 838 1039.5 Q925 993 962.5 911 Q1000 829 1000 673 L1000 0 L820 0 L820 673 Q820 808 761.5 869.5 Q703 931 596 931 Q516 931 445.5 889.5 Q375 848 345 777 Q315 706 315 581 L315 0 L135 0 Z " />
<glyph glyph-name="i" unicode="i" horiz-adv-x="455" d="M136 1259 L136 1466 L316 1466 L316 1259 L136 1259 Z M136 0 L136 1062 L316 1062 L316 0 L136 0 Z " />
<glyph glyph-name="j" unicode="j" horiz-adv-x="455" d="M134 1257 L134 1466 L314 1466 L314 1257 L134 1257 Z M-94 -412 L-60 -259 Q-6 -273 25 -273 Q80 -273 107 -236.5 Q134 -200 134 -54 L134 1062 L314 1062 L314 -58 Q314 -254 263 -331 Q198 -431 47 -431 Q-26 -431 -94 -412 Z " />
<glyph glyph-name="k" unicode="k" horiz-adv-x="1024" d="M136 0 L136 1466 L316 1466 L316 630 L742 1062 L975 1062 L569 668 L1016 0 L794 0 L443 543 L316 421 L316 0 L136 0 Z " />
<glyph glyph-name="l" unicode="l" horiz-adv-x="455" d="M131 0 L131 1466 L311 1466 L311 0 L131 0 Z " />
<glyph glyph-name="m" unicode="m" horiz-adv-x="1706" d="M135 0 L135 1062 L296 1062 L296 913 Q346 991 429 1038.5 Q512 1086 618 1086 Q736 1086 811.5 1037 Q887 988 918 900 Q1044 1086 1246 1086 Q1404 1086 1489 998.5 Q1574 911 1574 729 L1574 0 L1395 0 L1395 669 Q1395 777 1377.5 824.5 Q1360 872 1314 901 Q1268 930 1206 930 Q1094 930 1020 855.5 Q946 781 946 617 L946 0 L766 0 L766 690 Q766 810 722 870 Q678 930 578 930 Q502 930 437.5 890 Q373 850 344 773 Q315 696 315 551 L315 0 L135 0 Z " />
<glyph glyph-name="n" unicode="n" horiz-adv-x="1139" d="M135 0 L135 1062 L297 1062 L297 911 Q414 1086 635 1086 Q731 1086 811.5 1051.5 Q892 1017 932 961 Q972 905 988 828 Q998 778 998 653 L998 0 L818 0 L818 646 Q818 756 797 810.5 Q776 865 722.5 897.5 Q669 930 597 930 Q482 930 398.5 857 Q315 784 315 580 L315 0 L135 0 Z " />
<glyph glyph-name="o" unicode="o" horiz-adv-x="1139" d="M68 531 Q68 826 232 968 Q369 1086 566 1086 Q785 1086 924 942.5 Q1063 799 1063 546 Q1063 341 1001.5 223.5 Q940 106 822.5 41 Q705 -24 566 -24 Q343 -24 205.5 119 Q68 262 68 531 Z M253 531 Q253 327 342 225.5 Q431 124 566 124 Q700 124 789 226 Q878 328 878 537 Q878 734 788.5 835.5 Q699 937 566 937 Q431 937 342 836 Q253 735 253 531 Z " />
<glyph glyph-name="p" unicode="p" horiz-adv-x="1139" d="M135 -407 L135 1062 L299 1062 L299 924 Q357 1005 430 1045.5 Q503 1086 607 1086 Q743 1086 847 1016 Q951 946 1004 818.5 Q1057 691 1057 539 Q1057 376 998.5 245.5 Q940 115 828.5 45.5 Q717 -24 594 -24 Q504 -24 432.5 14 Q361 52 315 110 L315 -407 L135 -407 Z M298 525 Q298 320 381 222 Q464 124 582 124 Q702 124 787.5 225.5 Q873 327 873 540 Q873 743 789.5 844 Q706 945 590 945 Q475 945 386.5 837.5 Q298 730 298 525 Z " />
<glyph glyph-name="q" unicode="q" horiz-adv-x="1139" d="M812 -407 L812 113 Q770 54 694.5 15 Q619 -24 534 -24 Q345 -24 208.5 127 Q72 278 72 541 Q72 701 127.5 828 Q183 955 288.5 1020.5 Q394 1086 520 1086 Q717 1086 830 920 L830 1062 L992 1062 L992 -407 L812 -407 Z M257 534 Q257 329 343 226.5 Q429 124 549 124 Q664 124 747 221.5 Q830 319 830 518 Q830 730 742.5 837 Q655 944 537 944 Q420 944 338.5 844.5 Q257 745 257 534 Z " />
<glyph glyph-name="r" unicode="r" horiz-adv-x="682" d="M133 0 L133 1062 L295 1062 L295 901 Q357 1014 409.5 1050 Q462 1086 525 1086 Q616 1086 710 1028 L648 861 Q582 900 516 900 Q457 900 410 864.5 Q363 829 343 766 Q313 670 313 556 L313 0 L133 0 Z " />
<glyph glyph-name="s" unicode="s" horiz-adv-x="1024" d="M63 317 L241 345 Q256 238 324.5 181 Q393 124 516 124 Q640 124 700 174.5 Q760 225 760 293 Q760 354 707 389 Q670 413 523 450 Q325 500 248.5 536.5 Q172 573 132.5 637.5 Q93 702 93 780 Q93 851 125.5 911.5 Q158 972 214 1012 Q256 1043 328.5 1064.5 Q401 1086 484 1086 Q609 1086 703.5 1050 Q798 1014 843 952.5 Q888 891 905 788 L729 764 Q717 846 659.5 892 Q602 938 497 938 Q373 938 320 897 Q267 856 267 801 Q267 766 289 738 Q311 709 358 690 Q385 680 517 644 Q708 593 783.5 560.5 Q859 528 902 466 Q945 404 945 312 Q945 222 892.5 142.5 Q840 63 741 19.5 Q642 -24 517 -24 Q310 -24 201.5 62 Q93 148 63 317 Z " />
<glyph glyph-name="t" unicode="t" horiz-adv-x="569" d="M528 161 L554 2 Q478 -14 418 -14 Q320 -14 266 17 Q212 48 190 98.5 Q168 149 168 311 L168 922 L36 922 L36 1062 L168 1062 L168 1325 L347 1433 L347 1062 L528 1062 L528 922 L347 922 L347 301 Q347 224 356.5 202 Q366 180 387.5 167 Q409 154 449 154 Q479 154 528 161 Z " />
<glyph glyph-name="u" unicode="u" horiz-adv-x="1139" d="M831 0 L831 156 Q707 -24 494 -24 Q400 -24 318.5 12 Q237 48 197.5 102.5 Q158 157 142 236 Q131 289 131 404 L131 1062 L311 1062 L311 473 Q311 332 322 283 Q339 212 394 171.5 Q449 131 530 131 Q611 131 682 172.5 Q753 214 782.5 285.5 Q812 357 812 493 L812 1062 L992 1062 L992 0 L831 0 Z " />
<glyph glyph-name="v" unicode="v" horiz-adv-x="1024" d="M430 0 L26 1062 L216 1062 L444 426 Q481 323 512 212 Q536 296 579 414 L815 1062 L1000 1062 L598 0 L430 0 Z " />
<glyph glyph-name="w" unicode="w" horiz-adv-x="1479" d="M331 0 L6 1062 L192 1062 L361 449 L424 221 Q428 238 479 440 L648 1062 L833 1062 L992 446 L1045 243 L1106 448 L1288 1062 L1463 1062 L1131 0 L944 0 L775 636 L734 817 L519 0 L331 0 Z " />
<glyph glyph-name="x" unicode="x" horiz-adv-x="1024" d="M15 0 L403 552 L44 1062 L269 1062 L432 813 Q478 742 506 694 Q550 760 587 811 L766 1062 L981 1062 L614 562 L1009 0 L788 0 L570 330 L512 419 L233 0 L15 0 Z " />
<glyph glyph-name="y" unicode="y" horiz-adv-x="1024" d="M127 -409 L107 -240 Q166 -256 210 -256 Q270 -256 306 -236 Q342 -216 365 -180 Q382 -153 420 -46 Q425 -31 436 -2 L33 1062 L227 1062 L448 447 Q491 330 525 201 Q556 325 599 443 L826 1062 L1006 1062 L602 -18 Q537 -193 501 -259 Q453 -348 391 -389.5 Q329 -431 243 -431 Q191 -431 127 -409 Z " />
<glyph glyph-name="z" unicode="z" horiz-adv-x="1024" d="M40 0 L40 146 L716 922 Q601 916 513 916 L80 916 L80 1062 L948 1062 L948 943 L373 269 L262 146 Q383 155 489 155 L980 155 L980 0 L40 0 Z " />
<glyph glyph-name="braceleft" unicode="&#x7b;" horiz-adv-x="684" d="M57 612 Q134 614 182.5 653.5 Q231 693 247 762 Q263 831 264 998 Q265 1165 270 1218 Q279 1302 303.5 1353 Q328 1404 364 1434.5 Q400 1465 456 1481 Q494 1491 580 1491 L636 1491 L636 1334 L605 1334 Q501 1334 467 1296.5 Q433 1259 433 1129 Q433 867 422 798 Q404 691 360.5 633 Q317 575 224 530 Q334 484 383.5 389.5 Q433 295 433 80 Q433 -115 437 -152 Q445 -220 477.5 -247 Q510 -274 605 -274 L636 -274 L636 -431 L580 -431 Q482 -431 438 -415 Q374 -392 332 -340.5 Q290 -289 277.5 -210 Q265 -131 264 49 Q263 229 247 298 Q231 367 182.5 407 Q134 447 57 449 L57 612 Z " />
<glyph glyph-name="bar" unicode="&#x7c;" horiz-adv-x="532" d="M188 -431 L188 1491 L345 1491 L345 -431 L188 -431 Z " />
<glyph glyph-name="braceright" unicode="&#x7d;" horiz-adv-x="684" d="M626 612 L626 449 Q549 447 500.5 407 Q452 367 436 298.5 Q420 230 419 63 Q418 -104 413 -157 Q404 -242 379.5 -292.5 Q355 -343 319 -373.5 Q283 -404 227 -420 Q189 -431 103 -431 L47 -431 L47 -274 L78 -274 Q182 -274 216 -236.5 Q250 -199 250 -68 Q250 182 259 249 Q275 360 323 426.5 Q371 493 459 530 Q344 585 297 675.5 Q250 766 250 981 Q250 1176 245 1214 Q238 1281 205.5 1307.5 Q173 1334 78 1334 L47 1334 L47 1491 L103 1491 Q201 1491 245 1475 Q309 1453 351 1401 Q393 1349 405.5 1270 Q418 1191 419 1011 Q420 831 436 762.5 Q452 694 500.5 654 Q549 614 626 612 Z " />
<glyph glyph-name="asciitilde" unicode="&#x7e;" horiz-adv-x="1196" d="M87 557 L87 762 Q193 882 365 882 Q425 882 491 864.5 Q557 847 679 795 Q748 766 782.5 757 Q817 748 852 748 Q917 748 986.5 787 Q1056 826 1110 885 L1110 673 Q1046 613 980.5 586 Q915 559 833 559 Q773 559 718.5 573 Q664 587 545.5 640 Q427 693 348 693 Q284 693 227.5 665.5 Q171 638 87 557 Z " />
<glyph glyph-name="Ccedilla" unicode="&#xc7;" horiz-adv-x="1479" d="M1206 514 L1400 465 Q1339 226 1180.5 100.5 Q1022 -25 793 -25 Q556 -25 407.5 71.5 Q259 168 181.5 351 Q104 534 104 744 Q104 973 191.5 1143.5 Q279 1314 440.5 1402.5 Q602 1491 796 1491 Q1016 1491 1166 1379 Q1316 1267 1375 1064 L1184 1019 Q1133 1179 1036 1252 Q939 1325 792 1325 Q623 1325 509.5 1244 Q396 1163 350 1026.5 Q304 890 304 745 Q304 558 358.5 418.5 Q413 279 528 210 Q643 141 777 141 Q940 141 1053 235 Q1166 329 1206 514 Z M622 -154 L674 23 L808 23 L775 -84 Q860 -94 903 -136.5 Q946 -179 946 -231 Q946 -306 874 -363.5 Q802 -421 657 -421 Q575 -421 513 -409 L524 -292 Q588 -296 618 -296 Q712 -296 750 -270 Q779 -250 779 -221 Q779 -203 767.5 -189 Q756 -175 725 -165 Q694 -155 622 -154 Z " />
<glyph glyph-name="ccedilla" unicode="&#xe7;" horiz-adv-x="1024" d="M828 389 L1005 366 Q976 183 856.5 79.5 Q737 -24 563 -24 Q345 -24 212.5 118.5 Q80 261 80 527 Q80 699 137 828 Q194 957 310.5 1021.5 Q427 1086 564 1086 Q737 1086 847 998.5 Q957 911 988 750 L813 723 Q788 830 724.5 884 Q661 938 571 938 Q435 938 350 840.5 Q265 743 265 532 Q265 318 347 221 Q429 124 561 124 Q667 124 738 189 Q809 254 828 389 Z M411 -134 L463 43 L597 43 L564 -64 Q649 -74 692 -116.5 Q735 -159 735 -211 Q735 -286 663 -343.5 Q591 -401 446 -401 Q364 -401 302 -389 L313 -272 Q377 -276 407 -276 Q501 -276 539 -250 Q568 -230 568 -201 Q568 -183 556.5 -169 Q545 -155 514 -145 Q483 -135 411 -134 Z " />
<glyph glyph-name="ecircumflex" unicode="&#xea;" horiz-adv-x="1139" d="M862 342 L1048 319 Q1004 156 885 66 Q766 -24 581 -24 Q348 -24 211.5 119.5 Q75 263 75 522 Q75 790 213 938 Q351 1086 571 1086 Q784 1086 919 941 Q1054 796 1054 533 Q1054 517 1053 485 L261 485 Q271 310 360 217 Q449 124 582 124 Q681 124 751 176 Q821 228 862 342 Z M271 633 L864 633 Q852 767 796 834 Q710 938 573 938 Q449 938 364.5 855 Q280 772 271 633 Z M567 1364 L454 1194 L248 1194 L464 1474 L656 1474 L881 1194 L677 1194 L567 1364 Z " />
<glyph glyph-name="icircumflex" unicode="&#xee;" horiz-adv-x="569" d="M188 0 L188 1062 L368 1062 L368 0 L188 0 Z M292 1364 L179 1194 L-27 1194 L189 1474 L381 1474 L606 1194 L402 1194 L292 1364 Z " />
<glyph glyph-name="otilde" unicode="&#xf5;" horiz-adv-x="1139" d="M68 531 Q68 826 232 968 Q369 1086 566 1086 Q785 1086 924 942.5 Q1063 799 1063 546 Q1063 341 1001.5 223.5 Q940 106 822.5 41 Q705 -24 566 -24 Q343 -24 205.5 119 Q68 262 68 531 Z M253 531 Q253 327 342 225.5 Q431 124 566 124 Q700 124 789 226 Q878 328 878 537 Q878 734 788.5 835.5 Q699 937 566 937 Q431 937 342 836 Q253 735 253 531 Z M231 1219 Q230 1323 288 1385 Q345 1447 434 1447 Q496 1447 603 1393 Q662 1363 697 1363 Q729 1363 746 1380.5 Q763 1398 770 1450 L900 1450 Q897 1336 842.5 1279 Q788 1222 704 1222 Q641 1222 538 1278 Q471 1314 440 1314 Q406 1314 385 1290 Q363 1266 364 1219 L231 1219 Z " />
<glyph glyph-name="ucircumflex" unicode="&#xfb;" horiz-adv-x="1139" d="M831 0 L831 156 Q707 -24 494 -24 Q400 -24 318.5 12 Q237 48 197.5 102.5 Q158 157 142 236 Q131 289 131 404 L131 1062 L311 1062 L311 473 Q311 332 322 283 Q339 212 394 171.5 Q449 131 530 131 Q611 131 682 172.5 Q753 214 782.5 285.5 Q812 357 812 493 L812 1062 L992 1062 L992 0 L831 0 Z M564 1364 L451 1194 L245 1194 L461 1474 L653 1474 L878 1194 L674 1194 L564 1364 Z " />
<glyph glyph-name="cent" unicode="&#xa2;" horiz-adv-x="1139" d="M744 894 L522 128 Q555 119 583 119 Q687 119 762.5 190 Q838 261 855 389 L1034 369 Q1001 184 877.5 78 Q754 -28 586 -28 Q537 -28 483 -14 L365 -409 L253 -377 L368 21 Q253 76 180 204.5 Q107 333 107 526 Q107 704 165.5 831.5 Q224 959 340.5 1023 Q457 1087 578 1087 Q614 1087 678 1079 L791 1466 L901 1434 L789 1047 Q888 1004 941 931.5 Q994 859 1015 750 L840 723 Q814 835 744 894 Z M638 940 Q606 943 588 943 Q506 943 434.5 897.5 Q363 852 327.5 756.5 Q292 661 292 535 Q292 403 324 312 Q356 221 415 177 L638 940 Z " />
<glyph glyph-name="sterling" unicode="&#xa3;" horiz-adv-x="1139" d="M396 809 L711 809 L711 661 L427 661 Q446 617 446 573 Q446 486 404.5 389 Q363 292 268 191 Q347 213 412 213 Q495 213 599 188 Q771 147 832 147 Q906 147 1024 203 L1082 38 Q990 -1 939.5 -13 Q889 -25 839 -25 Q797 -25 754 -17 Q727 -12 624.5 19.5 Q522 51 492 57 Q445 65 398 65 Q326 65 244.5 40 Q163 15 96 -28 L27 145 Q123 198 190 296.5 Q257 395 257 537 Q257 598 240 661 L44 661 L44 809 L198 809 Q165 921 156 972.5 Q147 1024 147 1073 Q147 1281 301 1398 Q425 1491 601 1491 Q782 1491 899.5 1391.5 Q1017 1292 1044 1112 L865 1085 Q850 1205 775.5 1274 Q701 1343 597 1343 Q486 1343 412.5 1271.5 Q339 1200 339 1099 Q339 988 396 809 Z " />
<glyph glyph-name="section" unicode="&#xa7;" horiz-adv-x="1139" d="M143 -70 L324 -44 Q352 -174 413 -226.5 Q474 -279 579 -279 Q681 -279 738.5 -227 Q796 -175 796 -105 Q796 -54 760 -11 Q698 64 420 234 Q272 325 213.5 376.5 Q155 428 118 498 Q81 568 81 644 Q81 740 141 818 Q201 896 306 927 Q235 995 206 1052.5 Q177 1110 177 1175 Q177 1303 277 1397 Q377 1491 542 1491 Q729 1491 834 1402 Q939 1313 960 1144 L773 1125 Q752 1247 699.5 1295 Q647 1343 558 1343 Q466 1343 409.5 1293.5 Q353 1244 353 1184 Q353 1132 389 1088 Q445 1020 695 868 Q852 772 907 727 Q978 667 1011.5 603 Q1045 539 1045 464 Q1045 351 972 271 Q930 225 818 178 Q898 117 937.5 47 Q977 -23 977 -103 Q977 -191 927 -269.5 Q877 -348 783 -389.5 Q689 -431 580 -431 Q389 -431 277 -335.5 Q165 -240 143 -70 Z M728 244 Q802 282 838.5 332.5 Q875 383 875 431 Q875 488 823 551 Q770 614 598 720 Q461 804 394 858 Q313 812 278.5 766 Q244 720 244 664 Q244 601 290 544 Q336 487 497 392 Q631 313 728 244 Z " />
<glyph glyph-name="bullet" unicode="&#x2022;" horiz-adv-x="931" d="M817 662 Q817 517 713.5 414 Q610 311 465 311 Q320 311 217 414 Q114 517 114 662 Q114 807 217 910 Q320 1013 465 1013 Q610 1013 713.5 910 Q817 807 817 662 Z " />
<glyph glyph-name="paragraph" unicode="&#xb6;" horiz-adv-x="1100" d="M405 -407 L405 638 Q218 648 109.5 759.5 Q1 871 1 1044 Q1 1237 121.5 1351.5 Q242 1466 474 1466 L1107 1466 L1107 1293 L963 1293 L963 -407 L793 -407 L793 1293 L570 1293 L570 -407 L405 -407 Z " />
<glyph glyph-name="registered" unicode="&#xae;" horiz-adv-x="1509" d="M758 1491 Q948 1491 1129 1393.5 Q1310 1296 1411 1114.5 Q1512 933 1512 736 Q1512 541 1412.5 361 Q1313 181 1133.5 81.5 Q954 -18 758 -18 Q562 -18 382.5 81.5 Q203 181 103 361 Q3 541 3 736 Q3 933 104.5 1114.5 Q206 1296 387 1393.5 Q568 1491 758 1491 Z M758 1366 Q599 1366 448.5 1284.5 Q298 1203 213 1051.5 Q128 900 128 736 Q128 573 211.5 423.5 Q295 274 445 190.5 Q595 107 758 107 Q921 107 1071 190.5 Q1221 274 1304 423.5 Q1387 573 1387 736 Q1387 900 1302.5 1051.5 Q1218 1203 1067 1284.5 Q916 1366 758 1366 Z M427 319 L427 1131 L706 1131 Q849 1131 913 1108.5 Q977 1086 1015 1030 Q1053 974 1053 911 Q1053 822 989.5 756 Q926 690 821 682 Q864 664 890 639 Q939 591 1010 478 L1109 319 L949 319 L877 447 Q792 598 740 636 Q704 664 635 664 L558 664 L558 319 L427 319 Z M558 776 L717 776 Q831 776 872.5 810 Q914 844 914 900 Q914 936 894 964.5 Q874 993 838.5 1007 Q803 1021 707 1021 L558 1021 L558 776 Z " />
<glyph glyph-name="copyright" unicode="&#xa9;" horiz-adv-x="1509" d="M758 1491 Q948 1491 1129 1393.5 Q1310 1296 1411 1114.5 Q1512 933 1512 736 Q1512 541 1412.5 361 Q1313 181 1133.5 81.5 Q954 -18 758 -18 Q562 -18 382.5 81.5 Q203 181 103 361 Q3 541 3 736 Q3 933 104.5 1114.5 Q206 1296 387 1393.5 Q568 1491 758 1491 Z M758 1366 Q599 1366 448.5 1284.5 Q298 1203 213 1051.5 Q128 900 128 736 Q128 573 211.5 423.5 Q295 274 445 190.5 Q595 107 758 107 Q921 107 1071 190.5 Q1221 274 1304 423.5 Q1387 573 1387 736 Q1387 900 1302.5 1051.5 Q1218 1203 1067 1284.5 Q916 1366 758 1366 Z M1000 614 L1123 578 Q1093 453 995.5 378.5 Q898 304 759 304 Q583 304 473 418 Q363 532 363 734 Q363 866 413 963.5 Q463 1061 555.5 1110.5 Q648 1160 767 1160 Q900 1160 988 1096.5 Q1076 1033 1108 924 L989 895 Q959 969 900.5 1008.5 Q842 1048 763 1048 Q648 1048 573.5 966 Q499 884 499 731 Q499 578 569.5 499.5 Q640 421 752 421 Q842 421 910 473 Q978 525 1000 614 Z " />
<glyph glyph-name="trademark" unicode="&#x2122;" horiz-adv-x="2048" d="M489 651 L489 1345 L225 1345 L225 1466 L891 1466 L891 1345 L625 1345 L625 651 L489 651 Z M982 651 L982 1466 L1182 1466 L1388 815 L1587 1466 L1783 1466 L1783 651 L1659 651 L1659 1335 L1449 651 L1326 651 L1107 1345 L1107 651 L982 651 Z " />
<glyph glyph-name="acute" unicode="&#xb4;" horiz-adv-x="682" d="M222 1194 L355 1474 L591 1474 L371 1194 L222 1194 Z " />
<glyph glyph-name="plusminus" unicode="&#xb1;" horiz-adv-x="1124" d="M477 260 L477 663 L78 663 L78 830 L477 830 L477 1229 L647 1229 L647 830 L1046 830 L1046 663 L647 663 L647 260 L477 260 Z M1046 0 L78 0 L78 168 L1046 168 L1046 0 Z " />
<glyph glyph-name="lessequal" unicode="&#x2264;" horiz-adv-x="1124" d="M77 762 L77 930 L1048 1340 L1048 1160 L278 845 L1048 526 L1048 347 L77 762 Z M1046 106 L78 106 L78 273 L1046 273 L1046 106 Z " />
<glyph glyph-name="greaterequal" unicode="&#x2265;" horiz-adv-x="1124" d="M1048 762 L77 347 L77 526 L846 845 L77 1160 L77 1340 L1048 930 L1048 762 Z M1046 106 L78 106 L78 273 L1046 273 L1046 106 Z " />
<glyph glyph-name="yen" unicode="&#xa5;" horiz-adv-x="1139" d="M477 0 L477 325 L62 325 L62 464 L477 464 L477 607 L62 607 L62 755 L403 755 L-3 1466 L197 1466 L487 950 Q536 862 563 796 Q586 849 645 959 L919 1466 L1133 1466 L728 755 L1069 755 L1069 607 L657 607 L657 464 L1069 464 L1069 325 L657 325 L657 0 L477 0 Z " />
<glyph glyph-name="guillemotleft" unicode="&#xab;" horiz-adv-x="1139" d="M340 528 L599 72 L453 72 L134 528 L453 984 L601 984 L340 528 Z M727 528 L991 72 L839 72 L526 528 L839 984 L991 984 L727 528 Z " />
<glyph glyph-name="guillemotright" unicode="&#xbb;" horiz-adv-x="1139" d="M791 528 L530 984 L678 984 L997 528 L678 72 L531 72 L791 528 Z M404 528 L140 984 L291 984 L605 528 L291 72 L140 72 L404 528 Z " />
<glyph glyph-name="endash" unicode="&#x2013;" horiz-adv-x="1139" d="M-4 458 L-4 603 L1135 603 L1135 458 L-4 458 Z " />
<glyph glyph-name="emdash" unicode="&#x2014;" horiz-adv-x="2048" d="M0 458 L0 603 L2048 603 L2048 458 L0 458 Z " />
<glyph glyph-name="quotedblleft" unicode="&#x201c;" horiz-adv-x="682" d="M276 1220 L276 1011 L83 1011 L83 1176 Q83 1310 115 1370 Q157 1450 248 1491 L292 1421 Q237 1398 211 1352.5 Q185 1307 182 1220 L276 1220 Z M586 1220 L586 1011 L393 1011 L393 1176 Q393 1310 425 1370 Q467 1450 558 1491 L602 1421 Q547 1398 521 1352.5 Q495 1307 492 1220 L586 1220 Z " />
<glyph glyph-name="quotedblright" unicode="&#x201d;" horiz-adv-x="682" d="M87 1272 L87 1481 L280 1481 L280 1316 Q280 1182 249 1123 Q206 1042 115 1001 L71 1072 Q125 1094 151.5 1141.5 Q178 1189 181 1272 L87 1272 Z M397 1272 L397 1481 L590 1481 L590 1316 Q590 1182 559 1123 Q516 1042 425 1001 L381 1072 Q435 1094 461.5 1141.5 Q488 1189 491 1272 L397 1272 Z " />
<glyph glyph-name="quoteleft" unicode="&#x2018;" horiz-adv-x="455" d="M321 1220 L321 1011 L128 1011 L128 1176 Q128 1310 160 1370 Q202 1450 293 1491 L337 1421 Q282 1398 256 1352.5 Q230 1307 227 1220 L321 1220 Z " />
<glyph glyph-name="quoteright" unicode="&#x2019;" horiz-adv-x="455" d="M124 1272 L124 1481 L317 1481 L317 1316 Q317 1182 286 1123 Q243 1042 152 1001 L108 1072 Q162 1094 188.5 1141.5 Q215 1189 218 1272 L124 1272 Z " />
<glyph glyph-name="divide" unicode="&#xf7;" horiz-adv-x="1124" d="M459 922 L459 1127 L664 1127 L664 922 L459 922 Z M1046 639 L78 639 L78 807 L1046 807 L1046 639 Z M459 319 L459 524 L664 524 L664 319 L459 319 Z " />
<glyph glyph-name="fraction" unicode="&#x2044;" horiz-adv-x="342" d="M-455 -57 L646 1491 L803 1491 L-298 -57 L-455 -57 Z " />
<glyph glyph-name="Euro" unicode="&#x20ac;" horiz-adv-x="1139" d="M790 1325 Q622 1325 508 1244 Q440 1196 385 1108 Q329 1017 319 935 L1001 935 L974 801 L303 801 Q302 780 302 761 Q302 684 303 669 L947 669 L919 535 L324 535 Q366 306 526 210 Q641 141 775 141 Q962 141 1067 239 L1067 33 Q942 -25 791 -25 Q339 -25 180 351 Q148 427 125 535 L-28 535 L0 669 L105 669 Q102 711 102 760 Q102 780 103 801 L-28 801 L0 935 L116 935 Q178 1261 439 1403 Q600 1491 794 1491 Q980 1491 1107 1410 L1067 1224 Q945 1325 790 1325 Z " />
<glyph glyph-name="guilsinglleft" unicode="&#x2039;" horiz-adv-x="682" d="M291 527 L556 72 L407 72 L92 527 L407 984 L556 984 L291 527 Z " />
<glyph glyph-name="guilsinglright" unicode="&#x203a;" horiz-adv-x="682" d="M357 530 L92 984 L241 984 L545 536 L241 72 L92 72 L357 530 Z " />
<glyph glyph-name="middot" unicode="&#x2219;" horiz-adv-x="569" d="M185 619 L185 824 L390 824 L390 619 L185 619 Z " />
<glyph glyph-name="Ecircumflex" unicode="&#xca;" horiz-adv-x="1366" d="M162 0 L162 1466 L1222 1466 L1222 1293 L356 1293 L356 844 L1167 844 L1167 672 L356 672 L356 173 L1256 173 L1256 0 L162 0 Z M707 1836 L594 1666 L388 1666 L604 1946 L796 1946 L1021 1666 L817 1666 L707 1836 Z " />
<glyph glyph-name="Icircumflex" unicode="&#xce;" horiz-adv-x="569" d="M191 0 L191 1466 L385 1466 L385 0 L191 0 Z M287 1836 L174 1666 L-32 1666 L184 1946 L376 1946 L601 1666 L397 1666 L287 1836 Z " />
<glyph glyph-name="Ucircumflex" unicode="&#xdb;" horiz-adv-x="1479" d="M1120 1466 L1314 1466 L1314 619 Q1314 398 1264 268 Q1214 138 1083.5 56.5 Q953 -25 741 -25 Q535 -25 404 46 Q273 117 217 251.5 Q161 386 161 619 L161 1466 L355 1466 L355 620 Q355 429 390.5 338.5 Q426 248 512.5 199 Q599 150 724 150 Q938 150 1029 247 Q1120 344 1120 620 L1120 1466 Z M736 1836 L623 1666 L417 1666 L633 1946 L825 1946 L1050 1666 L846 1666 L736 1836 Z " />
<glyph glyph-name="brokenbar" unicode="&#xa6;" horiz-adv-x="532" d="M345 1491 L345 701 L188 701 L188 1491 L345 1491 Z M345 360 L345 -431 L188 -431 L188 360 L345 360 Z " />
<glyph glyph-name="minus" unicode="&#x2212;" horiz-adv-x="1196" d="M1082 639 L114 639 L114 807 L1082 807 L1082 639 Z " />
<glyph glyph-name="multiply" unicode="&#xd7;" horiz-adv-x="1196" d="M161 409 L476 724 L162 1038 L284 1160 L598 846 L911 1159 L1031 1038 L719 725 L1033 411 L911 289 L597 603 L282 288 L161 409 Z " />
<glyph glyph-name="Scedilla" unicode="&#x15e;" horiz-adv-x="1366" d="M92 471 L275 487 Q288 377 335.5 306.5 Q383 236 483 192.5 Q583 149 708 149 Q819 149 904 182 Q989 215 1030.5 272.5 Q1072 330 1072 398 Q1072 467 1032 518.5 Q992 570 900 605 Q841 628 639 676.5 Q437 725 356 768 Q251 823 199.5 904.5 Q148 986 148 1087 Q148 1198 211 1294.5 Q274 1391 395 1441 Q516 1491 664 1491 Q827 1491 951.5 1438.5 Q1076 1386 1143 1284 Q1210 1182 1215 1053 L1029 1039 Q1014 1178 927.5 1249 Q841 1320 672 1320 Q496 1320 415.5 1255.5 Q335 1191 335 1100 Q335 1021 392 970 Q448 919 684.5 865.5 Q921 812 1009 772 Q1137 713 1198 622.5 Q1259 532 1259 414 Q1259 297 1192 193.5 Q1125 90 999.5 32.5 Q874 -25 717 -25 Q518 -25 383.5 33 Q249 91 172.5 207.5 Q96 324 92 471 Z M555 -144 L607 33 L741 33 L708 -74 Q793 -84 836 -126.5 Q879 -169 879 -221 Q879 -296 807 -353.5 Q735 -411 590 -411 Q508 -411 446 -399 L457 -282 Q521 -286 551 -286 Q645 -286 683 -260 Q712 -240 712 -211 Q712 -193 700.5 -179 Q689 -165 658 -155 Q627 -145 555 -144 Z " />
<glyph glyph-name="scedilla" unicode="&#x15f;" horiz-adv-x="1024" d="M63 317 L241 345 Q256 238 324.5 181 Q393 124 516 124 Q640 124 700 174.5 Q760 225 760 293 Q760 354 707 389 Q670 413 523 450 Q325 500 248.5 536.5 Q172 573 132.5 637.5 Q93 702 93 780 Q93 851 125.5 911.5 Q158 972 214 1012 Q256 1043 328.5 1064.5 Q401 1086 484 1086 Q609 1086 703.5 1050 Q798 1014 843 952.5 Q888 891 905 788 L729 764 Q717 846 659.5 892 Q602 938 497 938 Q373 938 320 897 Q267 856 267 801 Q267 766 289 738 Q311 709 358 690 Q385 680 517 644 Q708 593 783.5 560.5 Q859 528 902 466 Q945 404 945 312 Q945 222 892.5 142.5 Q840 63 741 19.5 Q642 -24 517 -24 Q310 -24 201.5 62 Q93 148 63 317 Z M375 -134 L427 43 L561 43 L528 -64 Q613 -74 656 -116.5 Q699 -159 699 -211 Q699 -286 627 -343.5 Q555 -401 410 -401 Q328 -401 266 -389 L277 -272 Q341 -276 371 -276 Q465 -276 503 -250 Q532 -230 532 -201 Q532 -183 520.5 -169 Q509 -155 478 -145 Q447 -135 375 -134 Z " />
<glyph glyph-name="middot001" unicode="&#xb7;" horiz-adv-x="724" d="M482 832 L243 832 L243 1117 L482 1117 L482 832 Z " />
<glyph glyph-name="H18533" unicode="&#x25cf;" horiz-adv-x="1237" d="M177 576 Q177 759 306 888 Q435 1017 618 1017 Q800 1017 929 888 Q1058 759 1058 576 Q1058 394 929 265 Q800 136 618 136 Q435 136 306 265 Q177 394 177 576 Z " />
<glyph glyph-name="openbullet" unicode="&#x25e6;" horiz-adv-x="726" d="M363 928 Q467 928 540.5 854.5 Q614 781 614 677 Q614 573 540.5 499.5 Q467 426 363 426 Q259 426 185.5 499.5 Q112 573 112 677 Q112 781 185 854.5 Q258 928 363 928 Z M363 852 Q290 852 239 800.5 Q188 749 188 677 Q188 604 239.5 553 Q291 502 363 502 Q435 502 486.5 553 Q538 604 538 677 Q538 749 487 800.5 Q436 852 363 852 Z " />
<glyph glyph-name="afii61352" unicode="&#x2116;" horiz-adv-x="2336" d="M1173 0 L951 0 L336 1284 L336 0 L151 0 L151 1489 L432 1489 L988 310 L988 1489 L1173 1489 L1173 0 Z M2202 1030 Q2202 803 2085 671.5 Q1968 540 1782 540 Q1589 540 1475 671.5 Q1361 803 1361 1030 Q1361 1263 1478 1391.5 Q1595 1520 1782 1520 Q1969 1520 2085.5 1391.5 Q2202 1263 2202 1030 Z M2071 176 L1493 176 L1493 338 L2071 338 L2071 176 Z M2022 1030 Q2022 1205 1957.5 1287.5 Q1893 1370 1782 1370 Q1671 1370 1606 1287.5 Q1541 1205 1541 1030 Q1541 861 1605 775.5 Q1669 690 1782 690 Q1895 690 1958.5 775.5 Q2022 861 2022 1030 Z " />
<glyph glyph-name="currency" unicode="&#xa4;" horiz-adv-x="1139" d="M213 961 L74 1097 L189 1216 L328 1077 Q434 1149 565 1149 Q697 1149 802 1077 L941 1216 L1057 1097 L918 961 Q989 851 989 726 Q989 600 918 490 L1057 354 L941 235 L802 375 Q697 302 565 302 Q434 302 328 375 L189 235 L74 354 L213 490 Q142 600 142 726 Q142 851 213 961 Z M305 726 Q305 618 381 542 Q457 466 564 466 Q671 466 747 542 Q823 618 823 726 Q823 833 747.5 909 Q672 985 564 985 Q457 985 381 909 Q305 833 305 726 Z " />
<glyph glyph-name="afii57388" unicode="&#x60c;" horiz-adv-x="628" d="M632 116 Q632 61 592.5 24 Q553 -13 497 -13 Q413 -13 366 69 Q326 137 326 227 Q326 441 532 589 L560 542 Q421 414 421 328 Q421 286 457 267 Q470 261 529 247 Q632 222 632 116 Z " />
<glyph glyph-name="afii57403" unicode="&#x61b;" horiz-adv-x="653" d="M482 597 Q482 544 442 502 Q402 460 339 460 Q262 460 211 532 Q160 604 160 711 Q160 860 248 972 Q291 1027 377 1088 L410 1033 Q351 979 320 939 Q265 868 265 814 Q265 760 373.5 736 Q482 712 482 597 Z M445 114 Q445 67 411.5 32.5 Q378 -2 330 -2 Q282 -2 246.5 32.5 Q211 67 211 114 Q211 162 246 196 Q281 230 330 230 Q379 230 412 197 Q445 164 445 114 Z " />
<glyph glyph-name="afii57407" unicode="&#x61f;" horiz-adv-x="740" d="M726 887 Q726 826 691 781 Q652 733 593 733 Q548 733 515.5 762.5 Q483 792 483 836 Q483 890 536.5 935 Q590 980 590 989 Q590 1066 473 1066 Q415 1066 373 1033 Q327 998 327 940 Q327 909 405.5 738.5 Q484 568 484 454 Q484 401 473 312 L422 314 Q428 383 428 388 Q428 444 355 509 Q234 619 221 634 Q148 720 148 823 Q148 953 234 1038.5 Q320 1124 449 1124 Q561 1124 640 1063 Q726 997 726 887 Z M549 104 Q549 56 514 21.5 Q479 -13 431 -13 Q385 -13 351 22.5 Q317 58 317 104 Q317 152 352 187 Q387 222 435 222 Q482 222 515.5 187 Q549 152 549 104 Z " />
<glyph glyph-name="afii57409" unicode="&#x621;" horiz-adv-x="982" d="M997 228 L954 76 Q670 4 513 -141 L488 -127 Q511 -46 565 13 Q400 106 400 166 Q400 286 487 415 Q586 563 718 567 Q774 569 813 544 Q838 527 884 475 L836 353 Q742 418 697 418 Q630 418 582 386 Q527 350 527 285 Q527 238 607 185 Q664 147 728 125 Q857 187 997 228 Z " />
<glyph glyph-name="tatweel" unicode="&#x640;" horiz-adv-x="346" d="M602 0 L4 0 L4 162 L602 162 L602 0 Z " />
<glyph glyph-name="afii57392" unicode="&#x660;" horiz-adv-x="1077" d="M705 744 Q677 657 663 603 Q649 549 630 448 Q545 496 497 530 Q465 553 380 621 Q401 712 418.5 771 Q436 830 470 925 Q526 876 583 832 Q621 803 705 744 Z " />
<glyph glyph-name="afii57393" unicode="&#x661;" horiz-adv-x="1077" d="M670 711 Q670 621 656 502 Q653 473 628 293 L594 293 Q594 317 598 432 Q598 644 540 828 Q495 971 416 1097 Q376 1161 302 1251 L398 1467 Q477 1372 525 1291 Q593 1176 628 1048 Q670 896 670 711 Z " />
<glyph glyph-name="afii57394" unicode="&#x662;" horiz-adv-x="1077" d="M801 1307 Q801 1197 749 1131 Q692 1059 588 1059 Q575 1059 519 1067 Q557 987 573 940 Q600 861 614 755 Q628 649 628 471 Q628 440 626 369.5 Q624 299 624 293 L594 293 Q518 616 493 701 Q445 867 379.5 990.5 Q314 1114 183 1278 L249 1480 Q316 1385 368 1339 Q463 1255 569 1255 Q681 1255 724 1330 Q748 1371 761 1478 L793 1480 Q797 1445 799 1398.5 Q801 1352 801 1307 Z " />
<glyph glyph-name="afii57395" unicode="&#x663;" horiz-adv-x="1077" d="M964 1379 Q964 1254 916.5 1188 Q869 1122 770 1122 Q713 1122 671 1140 Q629 1158 609 1195 Q575 1139 523 1110.5 Q471 1082 398 1082 Q435 1009 451 970 Q480 899 495.5 819 Q511 739 511 626 Q511 563 505.5 504.5 Q500 446 476 293 L436 293 Q436 513 408 654 Q380 795 312 928 Q260 1029 129 1222 L202 1459 Q254 1373 314 1329 Q381 1280 463 1280 Q548 1280 596 1338 Q637 1388 653 1480 L685 1480 Q693 1388 721 1351 Q749 1314 801 1314 Q906 1314 926 1480 L959 1480 Q959 1458 961.5 1421.5 Q964 1385 964 1379 Z " />
<glyph glyph-name="afii57396" unicode="&#x664;" horiz-adv-x="1077" d="M814 495 L751 293 Q661 293 578 306 Q468 323 401 357 Q319 398 319 459 Q319 516 354 576 Q384 627 446 693 Q479 728 571 815 Q486 847 401 880 Q300 925 300 971 Q300 1047 374 1147 Q431 1224 540 1322 Q616 1390 709 1461 L678 1269 Q567 1228 530 1210 Q442 1167 442 1131 Q442 1099 517 1066 Q587 1039 658 1013 Q734 982 734 956 Q734 927 666 855 Q603 789 540 724 Q472 647 472 606 Q472 558 609 526 Q698 505 814 495 Z " />
<glyph glyph-name="afii57397" unicode="&#x665;" horiz-adv-x="1077" d="M896 921 Q896 748 793 635 Q676 506 461 506 Q340 506 270 548 Q190 596 190 687 Q190 768 234 903 Q284 1055 354 1153 Q440 1273 532 1273 Q650 1273 773 1154 Q896 1035 896 921 Z M822 815 Q822 872 742 938 Q675 993 574 1038 Q481 1079 434 1079 Q368 1079 324 989 Q288 916 288 844 Q288 762 357 724 Q420 689 544 689 Q666 689 744 725.5 Q822 762 822 815 Z " />
<glyph glyph-name="afii57398" unicode="&#x666;" horiz-adv-x="1077" d="M839 548 L801 320 Q736 363 703 400 Q647 461 618 552 Q582 663 582 826 Q582 884 587 945 Q588 962 609 1144 Q561 1135 538 1131 Q464 1117 417 1117 Q261 1117 213 1149 Q175 1174 175 1252 Q175 1285 178 1351 Q181 1417 181 1451 L217 1455 Q241 1400 263 1382 Q309 1345 415 1345 Q494 1345 593 1364 Q615 1368 700 1387 Q683 1284 676 1233 Q664 1146 664 1081 Q664 920 692 810 Q714 723 760 651 Q776 626 839 548 Z " />
<glyph glyph-name="afii57399" unicode="&#x667;" horiz-adv-x="1077" d="M940 1455 L932 1168 Q784 1017 697 808 Q610 599 569 293 L555 293 Q491 600 391.5 794 Q292 988 129 1134 L165 1451 Q320 1270 421 1061 Q519 858 582 594 L592 594 Q631 872 720 1089 Q806 1299 940 1455 Z " />
<glyph glyph-name="afii57400" unicode="&#x668;" horiz-adv-x="1077" d="M966 627 L930 311 Q782 464 671 692 Q560 920 511 1173 L504 1173 Q461 948 429 834 Q387 683 327 565 Q264 441 154 305 L154 591 Q298 724 387 937 Q473 1144 523 1467 L542 1467 Q593 1229 656 1071 Q715 923 795 813 Q861 723 966 627 Z " />
<glyph glyph-name="afii57401" unicode="&#x669;" horiz-adv-x="1077" d="M845 506 L784 293 Q684 354 652 498 Q626 616 626 917 Q558 893 524 886 Q490 879 457 879 Q348 879 283.5 924 Q219 969 219 1053 Q219 1115 249 1206 Q287 1322 351 1393 Q433 1484 544 1484 Q627 1484 670 1397 Q705 1327 716 1188 Q723 1102 723 934 Q743 704 777 611 Q792 570 845 506 Z M618 1092 Q618 1183 595 1230 Q564 1294 484 1294 Q424 1294 368 1249 Q312 1204 312 1165 Q312 1123 361 1100 Q410 1077 480 1077 Q510 1077 553 1083 Q596 1089 618 1092 Z " />
<glyph glyph-name="afii57381" unicode="&#x66a;" horiz-adv-x="1077" d="M436 1465 Q436 1410 398 1371 Q360 1332 305 1332 Q251 1332 212.5 1371.5 Q174 1411 174 1465 Q174 1518 212 1555 Q250 1592 305 1592 Q360 1592 398 1556 Q436 1520 436 1465 Z M948 1591 L242 189 L133 189 L833 1591 L948 1591 Z M901 302 Q901 248 863 210 Q825 172 769 172 Q714 172 677 210 Q640 248 640 302 Q640 356 677.5 395.5 Q715 435 769 435 Q823 435 862 396 Q901 357 901 302 Z " />
<glyph glyph-name="afii63167" unicode="&#x66d;" horiz-adv-x="1077" d="M868 1174 Q868 1145 846 1127 Q824 1109 791 1109 Q738 1109 664 1134 L590 1160 L580 1130 L698 1072 Q784 1025 784 971 Q784 943 765.5 923.5 Q747 904 719 904 Q667 904 561 1111 Q552 1105 540 1102 Q562 1034 571 1000 Q588 940 588 896 Q588 866 571.5 846 Q555 826 523 826 Q492 826 475.5 845.5 Q459 865 459 896 Q459 941 477 996 Q495 1051 513 1102 L486 1111 Q452 1047 419 984 Q373 904 325 904 Q297 904 279 923 Q261 942 261 971 Q261 1025 347 1071 Q355 1075 468 1130 Q460 1146 457 1160 Q390 1137 357 1127 Q298 1109 255 1109 Q222 1109 200.5 1126.5 Q179 1144 179 1174 Q179 1205 200 1223 Q221 1241 255 1241 Q299 1241 352.5 1222.5 Q406 1204 457 1186 Q460 1202 468 1220 Q407 1248 347 1277 Q261 1322 261 1376 Q261 1405 279 1425 Q297 1445 325 1445 Q372 1445 418 1365 Q458 1289 486 1237 L511 1245 Q509 1254 486 1321 Q459 1402 459 1451 Q459 1481 475.5 1502.5 Q492 1524 523 1524 Q555 1524 571.5 1503 Q588 1482 588 1451 Q588 1406 569.5 1351.5 Q551 1297 534 1247 L561 1237 Q624 1359 627 1364 Q673 1445 719 1445 Q748 1445 766 1425 Q784 1405 784 1376 Q784 1323 699 1278 Q626 1242 580 1220 L590 1186 Q655 1210 688 1221 Q748 1241 791 1241 Q826 1241 847 1223.5 Q868 1206 868 1174 Z M563 1174 Q563 1192 552 1203 Q541 1214 523 1214 Q506 1214 495 1203 Q484 1192 484 1174 Q484 1158 495 1146 Q506 1134 523 1134 Q540 1134 551.5 1145.5 Q563 1157 563 1174 Z " />
<glyph glyph-name="aekurdi" unicode="&#x6d5;" horiz-adv-x="923" d="M969 312 Q969 164 887 66 Q799 -38 653 -38 Q556 -38 480 -8 Q378 32 378 114 Q378 209 455 372 Q528 523 601 601 L580 612 L679 779 Q777 700 867 568 Q969 416 969 312 Z M879 232 Q879 315 805 420 Q737 517 658 564 Q610 526 553.5 419 Q497 312 497 254 Q497 191 538 155.5 Q579 120 642 120 Q727 120 789 139 Q879 168 879 232 Z " />
<glyph glyph-name="afii62843" unicode="&#x6f4;" horiz-adv-x="1077" d="M158 1227 L233 1467 Q323 1305 360 1257 Q397 1209 468 1167 Q482 1330 529.5 1402.5 Q577 1475 668 1475 Q729 1475 778 1445 Q823 1418 872 1358 L864 1346 Q859 1347 826 1358 Q777 1374 731 1374 Q638 1374 581.5 1321.5 Q525 1269 496 1153 Q547 1137 583.5 1129.5 Q620 1122 651 1122 Q733 1122 790 1150 Q847 1178 909 1253 L932 1245 Q904 1098 826.5 1021 Q749 944 627 944 Q568 944 533.5 954.5 Q499 965 459 994 Q501 898 513 833 Q522 783 522 676 Q522 534 471 301 L436 301 Q436 520 397 700 Q363 859 295 1001 Q241 1114 158 1227 Z " />
<glyph glyph-name="afii62844" unicode="&#x6f5;" horiz-adv-x="1077" d="M430 1231 L496 1450 Q706 1241 811 1033 Q903 851 903 700 Q903 580 838 475 Q764 356 657 356 Q629 356 605 363 Q581 370 553 393 Q509 356 464.5 341 Q420 326 373 326 Q278 326 217 378 Q152 433 152 528 Q152 641 233 783.5 Q314 926 510 1154 L430 1231 Z M590 598 Q612 575 650.5 559 Q689 543 729 543 Q777 543 809.5 568.5 Q842 594 842 633 Q842 707 755 842 Q675 966 534 1124 Q493 1081 445 1014 Q381 925 342 843 Q293 740 293 666 Q293 602 327 565 Q361 528 422 528 Q465 528 500.5 542 Q536 556 590 598 Z " />
<glyph glyph-name="afii62845" unicode="&#x6f6;" horiz-adv-x="1077" d="M344 301 Q344 472 379.5 623 Q415 774 496 907 Q347 907 275 938.5 Q203 970 203 1032 Q203 1079 242 1151.5 Q281 1224 356 1313 Q415 1387 474 1428 Q533 1469 578 1469 Q631 1469 688.5 1426 Q746 1383 821 1288 L811 1278 Q738 1303 699.5 1311 Q661 1319 612 1319 Q487 1319 412.5 1285.5 Q338 1252 338 1202 Q338 1148 392 1118 Q446 1088 541 1088 Q627 1088 697.5 1105 Q768 1122 891 1178 L846 987 Q748 953 654 865 Q550 768 482 633 Q405 481 385 301 L344 301 Z " />
<glyph glyph-name="afii57369" unicode="&#xfb6d;" horiz-adv-x="846" d="M922 166 Q922 0 781 0 L54 0 Q-2 0 -1 162 Q63 162 331 157 Q546 154 664 154 Q837 154 869 191 Q668 217 631 230 Q498 276 498 399 Q498 520 554 621 Q622 743 733 743 Q837 743 887 580 Q922 467 922 332 L922 166 Z M843 331 Q832 414 802 484 Q759 585 699 585 Q659 585 627 537 Q597 494 597 452 Q597 377 690 350 Q724 340 843 331 Z M643 1387 L545 1288 Q532 1275 519 1288 L420 1387 Q408 1400 420 1412 L519 1510 Q532 1523 545 1510 L643 1412 Q655 1400 643 1387 Z M855 1069 L756 970 Q744 958 731 970 L633 1069 Q620 1082 633 1094 L731 1193 Q744 1205 756 1193 L855 1094 Q868 1082 855 1069 Z M496 1069 L398 970 Q385 958 373 970 L274 1069 Q261 1082 274 1094 L373 1193 Q385 1205 398 1193 L496 1094 Q509 1082 496 1069 Z " />
<glyph glyph-name="afii57371" unicode="&#xfb6b;" horiz-adv-x="1656" d="M1726 166 Q1726 0 1585 0 L933 0 Q666 0 527 45 Q296 120 296 328 Q296 398 330 490 Q339 513 398 643 L429 624 Q362 487 362 416 Q362 162 951 162 L1324 162 Q1356 162 1421 158 Q1486 154 1518 154 Q1641 154 1673 191 Q1472 217 1435 230 Q1302 276 1302 399 Q1302 520 1358 621 Q1425 743 1537 743 Q1641 743 1691 580 Q1726 467 1726 332 L1726 166 Z M1647 331 Q1635 417 1606 484 Q1564 585 1503 585 Q1463 585 1431 537 Q1401 494 1401 452 Q1401 376 1494 350 Q1525 341 1647 331 Z M1444 1347 L1346 1248 Q1333 1235 1320 1248 L1221 1347 Q1209 1360 1221 1372 L1320 1470 Q1333 1483 1346 1470 L1444 1372 Q1456 1360 1444 1347 Z M1656 1029 L1557 930 Q1545 918 1532 930 L1434 1029 Q1421 1042 1434 1054 L1532 1153 Q1545 1165 1557 1153 L1656 1054 Q1669 1042 1656 1029 Z M1297 1029 L1199 930 Q1186 918 1174 930 L1075 1029 Q1062 1042 1075 1054 L1174 1153 Q1186 1165 1199 1153 L1297 1054 Q1310 1042 1297 1029 Z " />
<glyph glyph-name="afii57372" unicode="&#xfb6c;" horiz-adv-x="846" d="M922 166 Q922 0 781 0 L54 0 Q-2 0 -1 162 Q63 162 331 157 Q546 154 664 154 Q837 154 869 191 Q668 217 631 230 Q498 276 498 399 Q498 520 554 621 Q622 743 733 743 Q837 743 887 580 Q922 467 922 332 L922 166 Z M843 331 Q832 414 802 484 Q759 585 699 585 Q659 585 627 537 Q597 494 597 452 Q597 377 690 350 Q724 340 843 331 Z M633 1347 L535 1248 Q522 1235 509 1248 L410 1347 Q398 1360 410 1372 L509 1470 Q522 1483 535 1470 L633 1372 Q645 1360 633 1347 Z M845 1029 L746 930 Q734 918 721 930 L623 1029 Q610 1042 623 1054 L721 1153 Q734 1165 746 1153 L845 1054 Q858 1042 845 1029 Z M486 1029 L388 930 Q375 918 363 930 L264 1029 Q251 1042 264 1054 L363 1153 Q375 1165 388 1153 L486 1054 Q499 1042 486 1029 Z " />
<glyph glyph-name="afii57506" unicode="&#x67e;" horiz-adv-x="1552" d="M1625 166 Q1625 0 1519 0 L747 0 Q315 0 315 317 Q315 439 423 626 L446 611 Q378 469 378 399 Q378 270 522 208 Q629 162 775 162 L1554 162 Q1554 397 1441 487 L1511 638 Q1581 549 1606 459 Q1625 387 1625 260 L1625 166 Z M1289 -295 L1191 -394 Q1178 -407 1165 -394 L1066 -295 Q1054 -283 1066 -270 L1165 -172 Q1178 -159 1191 -172 L1289 -270 Q1301 -283 1289 -295 Z M943 -295 L844 -394 Q832 -407 819 -394 L721 -295 Q708 -283 721 -270 L819 -172 Q832 -159 844 -172 L943 -270 Q956 -283 943 -295 Z M1138 -607 L1039 -706 Q1027 -718 1014 -706 L916 -607 Q904 -595 916 -582 L1014 -483 Q1027 -471 1039 -483 L1138 -582 Q1151 -595 1138 -607 Z " />
<glyph glyph-name="afii62958" unicode="&#xfb57;" horiz-adv-x="1552" d="M1625 166 Q1625 0 1519 0 L747 0 Q315 0 315 317 Q315 439 423 626 L446 611 Q378 469 378 399 Q378 270 522 208 Q629 162 775 162 L1554 162 Q1554 397 1441 487 L1511 638 Q1581 549 1606 459 Q1625 387 1625 260 L1625 166 Z M1289 -295 L1191 -394 Q1178 -407 1165 -394 L1066 -295 Q1054 -283 1066 -270 L1165 -172 Q1178 -159 1191 -172 L1289 -270 Q1301 -283 1289 -295 Z M943 -295 L844 -394 Q832 -407 819 -394 L721 -295 Q708 -283 721 -270 L819 -172 Q832 -159 844 -172 L943 -270 Q956 -283 943 -295 Z M1138 -607 L1039 -706 Q1027 -718 1014 -706 L916 -607 Q904 -595 916 -582 L1014 -483 Q1027 -471 1039 -483 L1138 -582 Q1151 -595 1138 -607 Z " />
<glyph glyph-name="afii62956" unicode="&#xfb58;" horiz-adv-x="803" d="M876 166 Q876 0 770 0 L55 0 Q-4 0 -4 162 L813 162 Q813 272 789 328 Q768 381 694 462 L767 612 Q842 516 861 437 Q876 379 876 233 L876 166 Z M668 -301 L570 -400 Q557 -412 544 -400 L445 -301 Q433 -288 445 -275 L544 -177 Q557 -165 570 -177 L668 -275 Q680 -288 668 -301 Z M322 -301 L223 -400 Q211 -412 198 -400 L100 -301 Q87 -288 100 -275 L198 -177 Q211 -165 223 -177 L322 -275 Q335 -288 322 -301 Z M517 -613 L418 -711 Q406 -724 393 -711 L295 -613 Q283 -600 295 -588 L393 -489 Q406 -476 418 -489 L517 -588 Q530 -600 517 -613 Z " />
<glyph glyph-name="afii52957" unicode="&#xfb59;" horiz-adv-x="803" d="M876 166 Q876 0 770 0 L55 0 Q-4 0 -4 162 L813 162 Q813 272 789 328 Q768 381 694 462 L767 612 Q842 516 861 437 Q876 379 876 233 L876 166 Z M668 -301 L570 -400 Q557 -412 544 -400 L445 -301 Q433 -288 445 -275 L544 -177 Q557 -165 570 -177 L668 -275 Q680 -288 668 -301 Z M322 -301 L223 -400 Q211 -412 198 -400 L100 -301 Q87 -288 100 -275 L198 -177 Q211 -165 223 -177 L322 -275 Q335 -288 322 -301 Z M517 -613 L418 -711 Q406 -724 393 -711 L295 -613 Q283 -600 295 -588 L393 -489 Q406 -476 418 -489 L517 -588 Q530 -600 517 -613 Z " />
<glyph glyph-name="afii57505" unicode="&#x6a4;" horiz-adv-x="1656" d="M1726 166 Q1726 0 1585 0 L933 0 Q666 0 527 45 Q296 120 296 328 Q296 398 330 490 Q339 513 398 643 L429 624 Q362 487 362 416 Q362 162 951 162 L1324 162 Q1356 162 1421 158 Q1486 154 1518 154 Q1641 154 1673 191 Q1472 217 1435 230 Q1302 276 1302 399 Q1302 520 1358 621 Q1425 743 1537 743 Q1641 743 1691 580 Q1726 467 1726 332 L1726 166 Z M1647 331 Q1635 417 1606 484 Q1564 585 1503 585 Q1463 585 1431 537 Q1401 494 1401 452 Q1401 376 1494 350 Q1525 341 1647 331 Z M1434 1347 L1336 1248 Q1323 1235 1310 1248 L1211 1347 Q1199 1360 1211 1372 L1310 1470 Q1323 1483 1336 1470 L1434 1372 Q1446 1360 1434 1347 Z M1646 1029 L1547 930 Q1535 918 1522 930 L1424 1029 Q1411 1042 1424 1054 L1522 1153 Q1535 1165 1547 1153 L1646 1054 Q1659 1042 1646 1029 Z M1287 1029 L1189 930 Q1176 918 1164 930 L1065 1029 Q1052 1042 1065 1054 L1164 1153 Q1176 1165 1189 1153 L1287 1054 Q1300 1042 1287 1029 Z " />
<glyph glyph-name="afii57507" unicode="&#x686;" horiz-adv-x="1203" d="M1268 -468 L993 -636 Q637 -630 476 -555 Q231 -442 231 -132 Q231 74 355 231 Q446 346 655 483 Q563 490 520 490 Q302 490 257 418 L232 430 Q285 563 357.5 612 Q430 661 573 661 Q644 661 784.5 641 Q925 621 995 621 Q1019 623 1156 635 L1121 477 Q772 417 595 334 Q292 191 292 -64 Q292 -473 1040 -473 Q1012 -473 1267 -463 L1268 -468 Z M1131 73 L1033 -26 Q1021 -39 1008 -26 L909 73 Q896 86 909 98 L1008 196 Q1021 209 1033 196 L1131 98 Q1144 86 1131 73 Z M786 73 L687 -26 Q674 -39 661 -26 L563 73 Q551 86 563 98 L661 196 Q674 209 687 196 L786 98 Q798 86 786 73 Z M981 -239 L882 -337 Q869 -350 857 -337 L759 -239 Q746 -227 759 -214 L857 -115 Q869 -103 882 -115 L981 -214 Q994 -227 981 -239 Z " />
<glyph glyph-name="afii62961" unicode="&#xfb7b;" horiz-adv-x="1319" d="M1464 0 L1147 0 Q1042 0 963 87 Q887 171 887 278 Q887 335 908 434 Q636 351 512 274 Q300 140 300 -66 Q300 -348 639 -440 Q814 -488 1205 -488 L1209 -493 L993 -645 L936 -645 Q619 -645 455 -552 Q242 -430 242 -137 Q242 87 383 236 Q478 335 721 465 Q611 478 549 478 Q310 478 265 408 L244 419 Q293 546 370 598 Q447 650 584 650 Q649 650 778.5 632 Q908 614 973 614 Q1066 614 1165 627 L1127 470 Q1055 461 948 439 L946 382 Q939 161 1350 161 L1412 161 Q1426 161 1444 162 Q1460 162 1464 162 L1464 0 Z M951 -38 L865 -125 Q854 -136 843 -125 L756 -38 Q745 -27 756 -16 L843 70 Q854 81 865 70 L951 -16 Q962 -27 951 -38 Z M658 -38 L571 -125 Q560 -136 548 -125 L462 -38 Q452 -27 462 -16 L548 70 Q560 81 571 70 L658 -16 Q668 -27 658 -38 Z M809 -272 L722 -358 Q711 -369 700 -358 L614 -272 Q603 -261 614 -250 L700 -163 Q711 -153 722 -163 L809 -250 Q821 -261 809 -272 Z " />
<glyph glyph-name="afii62959" unicode="&#xfb7c;" horiz-adv-x="1358" d="M1453 162 Q1441 52 1420 0 L55 0 Q0 0 0 142 L0 162 L1130 162 Q1087 194 1012 281 Q940 364 893 397 Q821 447 728 447 Q556 447 507 382 L479 415 Q512 497 594 554.5 Q676 612 764 612 Q899 612 1026 495 Q1045 477 1217 279 Q1318 162 1391 162 L1453 162 Z M963 -305 L865 -404 Q852 -417 840 -404 L741 -305 Q728 -292 741 -280 L840 -182 Q852 -169 865 -182 L963 -280 Q976 -292 963 -305 Z M617 -305 L518 -404 Q506 -417 493 -404 L395 -305 Q383 -292 395 -280 L493 -182 Q506 -169 518 -182 L617 -280 Q630 -292 617 -305 Z M813 -617 L714 -715 Q701 -728 688 -715 L590 -617 Q578 -605 590 -592 L688 -493 Q701 -481 714 -493 L813 -592 Q825 -605 813 -617 Z " />
<glyph glyph-name="afii62960" unicode="&#xfb7d;" horiz-adv-x="1358" d="M1453 162 Q1441 52 1420 0 L55 0 Q0 0 0 142 L0 162 L1130 162 Q1087 194 1012 281 Q940 364 893 397 Q821 447 728 447 Q556 447 507 382 L479 415 Q512 497 594 554.5 Q676 612 764 612 Q899 612 1026 495 Q1045 477 1217 279 Q1318 162 1391 162 L1453 162 Z M963 -305 L865 -404 Q852 -417 840 -404 L741 -305 Q728 -292 741 -280 L840 -182 Q852 -169 865 -182 L963 -280 Q976 -292 963 -305 Z M617 -305 L518 -404 Q506 -417 493 -404 L395 -305 Q383 -292 395 -280 L493 -182 Q506 -169 518 -182 L617 -280 Q630 -292 617 -305 Z M813 -617 L714 -715 Q701 -728 688 -715 L590 -617 Q578 -605 590 -592 L688 -493 Q701 -481 714 -493 L813 -592 Q825 -605 813 -617 Z " />
<glyph glyph-name="afii57508" unicode="&#x698;" horiz-adv-x="899" d="M970 -4 Q970 -148 806.5 -308.5 Q643 -469 499 -469 Q404 -469 283 -430 Q257 -420 77 -353 L92 -318 Q280 -355 349 -355 Q520 -355 708 -208 Q907 -53 907 113 Q907 254 762 414 L815 561 Q970 416 970 232 L970 -4 Z M618 1287 L520 1188 Q508 1175 495 1188 L396 1287 Q383 1300 396 1312 L495 1410 Q508 1423 520 1410 L618 1312 Q631 1300 618 1287 Z M831 969 L732 870 Q719 858 706 870 L608 969 Q596 982 608 994 L706 1093 Q719 1105 732 1093 L831 994 Q843 982 831 969 Z M472 969 L373 870 Q361 858 348 870 L249 969 Q237 982 249 994 L348 1093 Q361 1105 373 1093 L472 994 Q484 982 472 969 Z " />
<glyph glyph-name="afii62962" unicode="&#xfb8b;" horiz-adv-x="899" d="M970 -4 Q970 -148 806.5 -308.5 Q643 -469 499 -469 Q404 -469 283 -430 Q257 -420 77 -353 L92 -318 Q280 -355 349 -355 Q520 -355 708 -208 Q907 -53 907 113 Q907 254 762 414 L815 561 Q970 416 970 232 L970 -4 Z M618 1287 L520 1188 Q508 1175 495 1188 L396 1287 Q383 1300 396 1312 L495 1410 Q508 1423 520 1410 L618 1312 Q631 1300 618 1287 Z M831 969 L732 870 Q719 858 706 870 L608 969 Q596 982 608 994 L706 1093 Q719 1105 732 1093 L831 994 Q843 982 831 969 Z M472 969 L373 870 Q361 858 348 870 L249 969 Q237 982 249 994 L348 1093 Q361 1105 373 1093 L472 994 Q484 982 472 969 Z " />
<glyph glyph-name="afii57567" unicode="&#x6a9;" horiz-adv-x="1703" d="M1827 1212 Q1655 1158 1476 1090 Q1185 980 1185 943 Q1185 924 1338 791 Q1525 629 1621 510 Q1774 321 1774 165 Q1774 0 1669 0 L709 0 Q516 0 425 35 Q277 92 277 253 Q277 357 375 553 L401 539 Q349 418 349 346 Q349 162 709 162 L1683 162 Q1683 319 1531 460 Q1436 541 1247 703 L1210 675 Q1182 692 1126 728 Q1070 764 1070 791 Q1070 949 1165 1054 Q1247 1144 1428 1222 Q1491 1249 1827 1372 L1827 1212 Z " />
<glyph glyph-name="afii62964" unicode="&#xfb8f;" horiz-adv-x="1703" d="M1827 1212 Q1655 1158 1476 1090 Q1185 980 1185 943 Q1185 924 1338 791 Q1525 629 1621 510 Q1774 321 1774 165 Q1774 0 1669 0 L709 0 Q516 0 425 35 Q277 92 277 253 Q277 357 375 553 L401 539 Q349 418 349 346 Q349 162 709 162 L1683 162 Q1683 319 1531 460 Q1436 541 1247 703 L1210 675 Q1182 692 1126 728 Q1070 764 1070 791 Q1070 949 1165 1054 Q1247 1144 1428 1222 Q1491 1249 1827 1372 L1827 1212 Z " />
<glyph glyph-name="afii52305" unicode="&#xfb90;" horiz-adv-x="964" d="M1088 1212 Q916 1158 737 1090 Q446 980 446 943 Q446 924 599 791 Q786 629 882 510 Q1035 321 1035 165 Q1035 0 930 0 L55 0 Q0 0 0 162 L944 162 Q944 319 792 460 Q697 541 508 703 L471 675 Q443 692 387 728 Q331 764 331 791 Q331 949 427 1054 Q508 1144 689 1222 Q752 1249 1088 1372 L1088 1212 Z " />
<glyph glyph-name="afii52306" unicode="&#xfb91;" horiz-adv-x="964" d="M1088 1212 Q916 1158 737 1090 Q446 980 446 943 Q446 924 599 791 Q786 629 882 510 Q1035 321 1035 165 Q1035 0 930 0 L55 0 Q0 0 0 162 L944 162 Q944 319 792 460 Q697 541 508 703 L471 675 Q443 692 387 728 Q331 764 331 791 Q331 949 427 1054 Q508 1144 689 1222 Q752 1249 1088 1372 L1088 1212 Z " />
<glyph glyph-name="afii57509" unicode="&#x6af;" horiz-adv-x="1703" d="M1827 1212 Q1655 1158 1476 1090 Q1185 980 1185 943 Q1185 924 1338 791 Q1525 629 1621 510 Q1774 321 1774 165 Q1774 0 1669 0 L709 0 Q516 0 425 35 Q277 92 277 253 Q277 357 375 553 L401 539 Q349 418 349 346 Q349 162 709 162 L1683 162 Q1683 318 1531 459 Q1529 461 1247 703 L1210 675 Q1182 692 1126 728 Q1070 764 1070 791 Q1070 955 1174 1064 Q1254 1147 1428 1222 Q1491 1249 1827 1372 L1827 1212 Z M1794 1525 Q1380 1372 1163 1228 L1163 1305 Q1233 1382 1458 1502 Q1633 1596 1794 1663 L1794 1525 Z " />
<glyph glyph-name="afii62967" unicode="&#xfb93;" horiz-adv-x="1703" d="M1827 1212 Q1655 1158 1476 1090 Q1185 980 1185 943 Q1185 924 1338 791 Q1525 629 1621 510 Q1774 321 1774 165 Q1774 0 1669 0 L709 0 Q516 0 425 35 Q277 92 277 253 Q277 357 375 553 L401 539 Q349 418 349 346 Q349 162 709 162 L1683 162 Q1683 318 1531 459 Q1529 461 1247 703 L1210 675 Q1182 692 1126 728 Q1070 764 1070 791 Q1070 955 1174 1064 Q1254 1147 1428 1222 Q1491 1249 1827 1372 L1827 1212 Z M1794 1525 Q1380 1372 1163 1228 L1163 1305 Q1233 1382 1458 1502 Q1633 1596 1794 1663 L1794 1525 Z " />
<glyph glyph-name="afii62965" unicode="&#xfb94;" horiz-adv-x="964" d="M1088 1212 Q916 1158 737 1090 Q446 980 446 943 Q446 924 599 791 Q786 629 882 510 Q1035 321 1035 165 Q1035 0 930 0 L55 0 Q0 0 0 162 L944 162 Q944 318 792 459 Q790 461 508 703 L471 675 Q443 692 387 728 Q331 764 331 791 Q331 949 427 1054 Q508 1144 689 1222 Q752 1249 1088 1372 L1088 1212 Z M1037 1525 Q623 1372 406 1228 L406 1305 Q477 1382 701 1502 Q876 1596 1037 1663 L1037 1525 Z " />
<glyph glyph-name="afii62966" unicode="&#xfb95;" horiz-adv-x="964" d="M1088 1212 Q916 1158 737 1090 Q446 980 446 943 Q446 924 599 791 Q786 629 882 510 Q1035 321 1035 165 Q1035 0 930 0 L55 0 Q0 0 0 162 L944 162 Q944 318 792 459 Q790 461 508 703 L471 675 Q443 692 387 728 Q331 764 331 791 Q331 949 427 1054 Q508 1144 689 1222 Q752 1249 1088 1372 L1088 1212 Z M1037 1525 Q623 1372 406 1228 L406 1305 Q477 1382 701 1502 Q876 1596 1037 1663 L1037 1525 Z " />
<glyph glyph-name="afii57555" unicode="&#x6cc;" horiz-adv-x="1338" d="M1428 489 Q1428 452 1417 387 Q1343 477 1242 477 Q1169 477 1072 390 Q975 303 975 231 Q975 189 1085 189 Q1106 189 1148 190.5 Q1190 192 1211 192 Q1376 192 1376 113 Q1376 -159 1128 -280 Q942 -371 637 -371 Q277 -371 277 -88 Q277 104 440 411 L473 397 Q349 176 349 28 Q349 -212 670 -212 Q813 -212 1021 -157 Q1289 -87 1289 14 Q1289 50 1211 50 Q1187 50 1139 47.5 Q1091 45 1066 45 Q904 45 904 153 Q904 290 1029 454 Q1161 628 1293 628 Q1355 628 1391.5 589.5 Q1428 551 1428 489 Z " />
<glyph glyph-name="afii52364" unicode="&#xfbfd;" horiz-adv-x="1461" d="M1602 0 Q1596 0 1511 2 Q1469 3 1420 3 Q1012 3 1012 -77 Q1012 -106 1102 -119 Q1159 -126 1271 -143 Q1361 -160 1361 -211 Q1361 -457 1115 -551 Q957 -611 661 -611 Q502 -611 397 -509.5 Q292 -408 292 -249 Q292 -143 350 -23 Q380 39 471 181 L502 164 Q432 49 418 22 Q376 -64 376 -135 Q376 -279 487 -371 Q591 -457 737 -457 Q862 -457 1033 -427 Q1271 -384 1271 -313 Q1271 -281 1184 -268 Q1131 -262 1023 -247 Q937 -231 937 -182 Q937 -31 1053 68 Q1163 162 1317 162 L1602 162 L1602 0 Z " />
<glyph glyph-name="afii52399" unicode="&#xfe80;" horiz-adv-x="982" d="M997 228 L954 76 Q670 4 513 -141 L488 -127 Q511 -46 565 13 Q400 106 400 166 Q400 286 487 415 Q586 563 718 567 Q774 569 813 544 Q838 527 884 475 L836 353 Q742 418 697 418 Q630 418 582 386 Q527 350 527 285 Q527 238 607 185 Q664 147 728 125 Q857 187 997 228 Z " />
<glyph glyph-name="afii52400" unicode="&#x622;" horiz-adv-x="673" d="M616 244 Q616 131 527 -26 L515 -19 Q523 60 523 94 Q523 675 473 1045 Q504 1112 560 1219 Q616 827 616 244 Z M831 1558 Q740 1406 581 1406 Q546 1406 475.5 1417 Q405 1428 370 1428 Q314 1428 280 1410 Q257 1398 210 1354 L197 1366 Q265 1525 400 1525 Q436 1525 506 1512.5 Q576 1500 611 1500 Q706 1500 812 1570 L831 1558 Z " />
<glyph glyph-name="afii62753" unicode="&#xfe82;" horiz-adv-x="860" d="M875 0 L667 0 Q560 0 519 135 Q490 231 490 445 Q490 481 491 554 L492 663 Q492 986 409 1054 L538 1223 Q570 1119 569 787 L568 598 Q566 254 606 204 Q632 171 718 164 Q738 162 875 162 L875 0 Z M821 1558 Q730 1406 571 1406 Q536 1406 465.5 1417 Q395 1428 360 1428 Q304 1428 270 1410 Q247 1398 200 1354 L187 1366 Q255 1525 390 1525 Q426 1525 496 1512.5 Q566 1500 601 1500 Q696 1500 802 1570 L821 1558 Z " />
<glyph glyph-name="afii57411" unicode="&#x623;" horiz-adv-x="610" d="M603 244 Q603 131 514 -26 L501 -19 Q509 60 509 94 Q509 675 460 1045 Q490 1112 546 1219 Q603 827 603 244 Z M635 1437 Q625 1379 457 1317 Q341 1274 272 1249 Q276 1282 328 1320 Q370 1350 416 1367 Q328 1411 328 1454 Q328 1504 390 1580 Q457 1662 515 1662 Q591 1662 591 1604 Q591 1579 566 1535 Q527 1570 465 1570 Q447 1570 415 1543 Q383 1516 383 1498 Q383 1470 449 1440 Q506 1414 539 1414 Q572 1414 635 1437 Z " />
<glyph glyph-name="afii62754" unicode="&#xfe84;" horiz-adv-x="760" d="M875 0 L667 0 Q560 0 519 135 Q490 231 490 445 Q490 481 491 554 L492 663 Q492 986 409 1054 L538 1223 Q570 1119 569 787 L568 598 Q566 254 606 204 Q632 171 718 164 Q738 162 875 162 L875 0 Z M635 1437 Q625 1379 457 1317 Q341 1274 272 1249 Q276 1282 328 1320 Q370 1350 416 1367 Q328 1411 328 1454 Q328 1504 390 1580 Q457 1662 515 1662 Q591 1662 591 1604 Q591 1579 566 1535 Q527 1570 465 1570 Q447 1570 415 1543 Q383 1516 383 1498 Q383 1470 449 1440 Q506 1414 539 1414 Q572 1414 635 1437 Z " />
<glyph glyph-name="afii57412" unicode="&#x624;" horiz-adv-x="846" d="M918 55 Q918 -116 795 -273 Q663 -441 498 -441 Q411 -441 303 -410 Q267 -400 115 -347 L129 -317 Q293 -356 348 -356 Q507 -356 646 -245 Q738 -172 863 -3 Q657 -3 600 23 Q523 59 523 192 Q523 326 579 435 Q648 570 770 570 Q871 570 901 445 Q918 373 918 166 L918 55 Z M865 157 Q851 284 840 324 Q812 419 745 419 Q604 419 604 257 Q604 181 654 162 Q678 153 771 153 Q787 153 818 155 Q849 157 865 157 Z M835 957 Q825 899 657 837 Q541 794 472 769 Q476 802 528 840 Q570 870 616 887 Q528 931 528 974 Q528 1024 590 1100 Q657 1182 715 1182 Q791 1182 791 1124 Q791 1099 766 1055 Q727 1090 665 1090 Q647 1090 615 1063 Q583 1036 583 1018 Q583 990 649 960 Q706 934 739 934 Q772 934 835 957 Z " />
<glyph glyph-name="afii62755" unicode="&#xfe86;" horiz-adv-x="846" d="M918 55 Q918 -116 795 -273 Q663 -441 498 -441 Q411 -441 303 -410 Q267 -400 115 -347 L129 -317 Q293 -356 348 -356 Q507 -356 646 -245 Q738 -172 863 -3 Q657 -3 600 23 Q523 59 523 192 Q523 326 579 435 Q648 570 770 570 Q871 570 901 445 Q918 373 918 166 L918 55 Z M865 157 Q851 284 840 324 Q812 419 745 419 Q604 419 604 257 Q604 181 654 162 Q678 153 771 153 Q787 153 818 155 Q849 157 865 157 Z M835 957 Q825 899 657 837 Q541 794 472 769 Q476 802 528 840 Q570 870 616 887 Q528 931 528 974 Q528 1024 590 1100 Q657 1182 715 1182 Q791 1182 791 1124 Q791 1099 766 1055 Q727 1090 665 1090 Q647 1090 615 1063 Q583 1036 583 1018 Q583 990 649 960 Q706 934 739 934 Q772 934 835 957 Z " />
<glyph glyph-name="afii57413" unicode="&#x625;" horiz-adv-x="690" d="M603 244 Q603 131 514 -26 L501 -19 Q509 60 509 94 Q509 675 460 1045 Q490 1112 546 1219 Q603 827 603 244 Z M675 -343 Q665 -401 497 -463 Q381 -506 312 -531 Q316 -498 368 -460 Q410 -430 456 -413 Q368 -369 368 -326 Q368 -276 430 -200 Q497 -118 555 -118 Q631 -118 631 -176 Q631 -201 606 -245 Q567 -210 505 -210 Q487 -210 455 -237 Q423 -264 423 -282 Q423 -310 489 -340 Q546 -366 579 -366 Q612 -366 675 -343 Z " />
<glyph glyph-name="afii62756" unicode="&#xfe88;" horiz-adv-x="728" d="M875 0 L667 0 Q560 0 519 135 Q490 231 490 445 Q490 481 491 554 L492 663 Q492 986 409 1054 L538 1223 Q570 1119 569 787 L568 598 Q566 254 606 204 Q632 171 718 164 Q738 162 875 162 L875 0 Z M775 -333 Q765 -391 597 -453 Q481 -496 412 -521 Q416 -488 468 -450 Q510 -420 556 -403 Q468 -359 468 -316 Q468 -266 530 -190 Q597 -108 655 -108 Q731 -108 731 -166 Q731 -191 706 -235 Q667 -200 605 -200 Q587 -200 555 -227 Q523 -254 523 -272 Q523 -300 589 -330 Q646 -356 679 -356 Q712 -356 775 -333 Z " />
<glyph glyph-name="afii57414" unicode="&#x626;" horiz-adv-x="1338" d="M1428 489 Q1428 452 1417 387 Q1343 477 1242 477 Q1169 477 1072 390 Q975 303 975 231 Q975 189 1085 189 Q1106 189 1148 190.5 Q1190 192 1211 192 Q1376 192 1376 113 Q1376 -159 1128 -280 Q942 -371 637 -371 Q277 -371 277 -88 Q277 104 440 411 L473 397 Q349 176 349 28 Q349 -212 670 -212 Q813 -212 1021 -157 Q1289 -87 1289 14 Q1289 50 1211 50 Q1187 50 1139 47.5 Q1091 45 1066 45 Q904 45 904 153 Q904 290 1029 454 Q1161 628 1293 628 Q1355 628 1391.5 589.5 Q1428 551 1428 489 Z M845 807 Q835 749 667 687 Q551 644 482 619 Q486 652 538 690 Q580 720 626 737 Q538 781 538 824 Q538 874 600 950 Q667 1032 725 1032 Q801 1032 801 974 Q801 949 776 905 Q737 940 675 940 Q657 940 625 913 Q593 886 593 868 Q593 840 659 810 Q716 784 749 784 Q782 784 845 807 Z " />
<glyph glyph-name="afii62759" unicode="&#xfe8a;" horiz-adv-x="1461" d="M1602 0 Q1596 0 1511 2 Q1469 3 1420 3 Q1012 3 1012 -77 Q1012 -106 1102 -119 Q1159 -126 1271 -143 Q1361 -160 1361 -211 Q1361 -457 1115 -551 Q957 -611 661 -611 Q502 -611 397 -509.5 Q292 -408 292 -249 Q292 -143 350 -23 Q380 39 471 181 L502 164 Q432 49 418 22 Q376 -64 376 -135 Q376 -279 487 -371 Q591 -457 737 -457 Q862 -457 1033 -427 Q1271 -384 1271 -313 Q1271 -281 1184 -268 Q1131 -262 1023 -247 Q937 -231 937 -182 Q937 -31 1053 68 Q1163 162 1317 162 L1602 162 L1602 0 Z M935 557 Q925 499 757 437 Q641 394 572 369 Q576 402 628 440 Q670 470 716 487 Q628 531 628 574 Q628 624 690 700 Q757 782 815 782 Q891 782 891 724 Q891 699 866 655 Q827 690 765 690 Q747 690 715 663 Q683 636 683 618 Q683 590 749 560 Q806 534 839 534 Q872 534 935 557 Z " />
<glyph glyph-name="afii62757" unicode="&#xfe8b;" horiz-adv-x="803" d="M876 166 Q876 0 770 0 L55 0 Q-4 0 -4 162 L813 162 Q813 272 789 328 Q768 381 694 462 L767 612 Q842 516 861 437 Q876 379 876 233 L876 166 Z M755 1057 Q745 999 577 937 Q461 894 392 869 Q396 902 448 940 Q490 970 536 987 Q448 1031 448 1074 Q448 1124 510 1200 Q577 1282 635 1282 Q711 1282 711 1224 Q711 1199 686 1155 Q647 1190 585 1190 Q567 1190 535 1163 Q503 1136 503 1118 Q503 1090 569 1060 Q626 1034 659 1034 Q692 1034 755 1057 Z " />
<glyph glyph-name="afii62758" unicode="&#xfe8c;" horiz-adv-x="803" d="M876 166 Q876 0 770 0 L55 0 Q-4 0 -4 162 L813 162 Q813 272 789 328 Q768 381 694 462 L767 612 Q842 516 861 437 Q876 379 876 233 L876 166 Z M755 1057 Q745 999 577 937 Q461 894 392 869 Q396 902 448 940 Q490 970 536 987 Q448 1031 448 1074 Q448 1124 510 1200 Q577 1282 635 1282 Q711 1282 711 1224 Q711 1199 686 1155 Q647 1190 585 1190 Q567 1190 535 1163 Q503 1136 503 1118 Q503 1090 569 1060 Q626 1034 659 1034 Q692 1034 755 1057 Z " />
<glyph glyph-name="afii57415" unicode="&#x627;" horiz-adv-x="606" d="M603 244 Q603 131 514 -26 L501 -19 Q509 60 509 94 Q509 675 460 1045 Q490 1112 546 1219 Q603 827 603 244 Z " />
<glyph glyph-name="afii62760" unicode="&#xfe8e;" horiz-adv-x="728" d="M875 0 L667 0 Q560 0 519 135 Q490 231 490 445 Q490 481 491 554 L492 663 Q492 986 409 1054 L538 1223 Q570 1119 569 787 L568 598 Q566 254 606 204 Q632 171 718 164 Q738 162 875 162 L875 0 Z " />
<glyph glyph-name="afii57416" unicode="&#x628;" horiz-adv-x="1552" d="M1625 166 Q1625 0 1519 0 L747 0 Q315 0 315 317 Q315 439 423 626 L446 611 Q378 469 378 399 Q378 270 522 208 Q629 162 775 162 L1554 162 Q1554 397 1441 487 L1511 638 Q1581 549 1606 459 Q1625 387 1625 260 L1625 166 Z M1084 -410 L985 -509 Q980 -515 973 -515 Q965 -515 960 -509 L861 -410 Q849 -398 861 -385 L960 -287 Q965 -282 973 -282 Q980 -282 985 -287 L1084 -385 Q1097 -398 1084 -410 Z " />
<glyph glyph-name="afii62763" unicode="&#xfe90;" horiz-adv-x="1552" d="M1625 166 Q1625 0 1519 0 L747 0 Q315 0 315 317 Q315 439 423 626 L446 611 Q378 469 378 399 Q378 270 522 208 Q629 162 775 162 L1554 162 Q1554 397 1441 487 L1511 638 Q1581 549 1606 459 Q1625 387 1625 260 L1625 166 Z M1084 -410 L985 -509 Q980 -515 973 -515 Q965 -515 960 -509 L861 -410 Q849 -398 861 -385 L960 -287 Q965 -282 973 -282 Q980 -282 985 -287 L1084 -385 Q1097 -398 1084 -410 Z " />
<glyph glyph-name="afii62761" unicode="&#xfe91;" horiz-adv-x="803" d="M876 166 Q876 0 770 0 L55 0 Q-4 0 -4 162 L813 162 Q813 272 789 328 Q768 381 694 462 L767 612 Q842 516 861 437 Q876 379 876 233 L876 166 Z M652 -407 L553 -506 Q548 -511 541 -511 Q534 -511 528 -506 L429 -407 Q417 -394 429 -382 L528 -283 Q534 -278 541 -278 Q548 -278 553 -283 L652 -382 Q665 -394 652 -407 Z " />
<glyph glyph-name="afii62762" unicode="&#xfe92;" horiz-adv-x="803" d="M876 166 Q876 0 770 0 L55 0 Q-4 0 -4 162 L813 162 Q813 272 789 328 Q768 381 694 462 L767 612 Q842 516 861 437 Q876 379 876 233 L876 166 Z M652 -407 L553 -506 Q548 -511 541 -511 Q534 -511 528 -506 L429 -407 Q417 -394 429 -382 L528 -283 Q534 -278 541 -278 Q548 -278 553 -283 L652 -382 Q665 -394 652 -407 Z " />
<glyph glyph-name="afii57417" unicode="&#x629;" horiz-adv-x="923" d="M969 312 Q969 164 887 66 Q799 -38 653 -38 Q556 -38 480 -8 Q378 32 378 114 Q378 209 455 372 Q528 523 601 601 L580 612 L679 779 Q777 700 867 568 Q969 416 969 312 Z M879 232 Q879 315 805 420 Q737 517 658 564 Q610 526 553.5 419 Q497 312 497 254 Q497 191 538 155.5 Q579 120 642 120 Q727 120 789 139 Q879 168 879 232 Z M952 1041 L854 942 Q841 929 828 942 L729 1041 Q717 1053 729 1066 L828 1164 Q841 1176 854 1164 L952 1066 Q964 1053 952 1041 Z M625 1041 L527 942 Q514 929 502 942 L403 1041 Q390 1053 403 1066 L502 1164 Q514 1176 527 1164 L625 1066 Q638 1053 625 1041 Z " />
<glyph glyph-name="afii62764" unicode="&#xfe94;" horiz-adv-x="1109" d="M1254 0 L1048 0 Q922 0 859 115 Q817 193 783 382 Q675 181 571 181 Q272 181 272 271 Q272 545 728 759 Q706 848 706 868 Q706 924 759 994 Q788 796 832 565 Q871 355 900 287 Q954 162 1067 162 L1254 162 L1254 0 Z M780 418 L740 661 Q505 578 427 359 Q511 322 625 322 Q698 322 780 418 Z M818 1283 L720 1184 Q707 1172 695 1184 L596 1283 Q583 1296 596 1309 L695 1407 Q707 1419 720 1407 L818 1309 Q831 1296 818 1283 Z M491 1283 L393 1184 Q381 1172 368 1184 L269 1283 Q256 1296 269 1309 L368 1407 Q381 1419 393 1407 L491 1309 Q504 1296 491 1283 Z " />
<glyph glyph-name="afii57418" unicode="&#x62a;" horiz-adv-x="1552" d="M1625 166 Q1625 0 1519 0 L747 0 Q315 0 315 317 Q315 439 423 626 L446 611 Q378 469 378 399 Q378 270 522 208 Q629 162 775 162 L1554 162 Q1554 397 1441 487 L1511 638 Q1581 549 1606 459 Q1625 387 1625 260 L1625 166 Z M1281 967 L1183 868 Q1170 855 1157 868 L1058 967 Q1046 979 1058 992 L1157 1090 Q1170 1102 1183 1090 L1281 992 Q1293 979 1281 967 Z M954 967 L856 868 Q843 855 831 868 L732 967 Q719 979 732 992 L831 1090 Q843 1102 856 1090 L954 992 Q967 979 954 967 Z " />
<glyph glyph-name="afii62767" unicode="&#xfe96;" horiz-adv-x="1552" d="M1625 166 Q1625 0 1519 0 L747 0 Q315 0 315 317 Q315 439 423 626 L446 611 Q378 469 378 399 Q378 270 522 208 Q629 162 775 162 L1554 162 Q1554 397 1441 487 L1511 638 Q1581 549 1606 459 Q1625 387 1625 260 L1625 166 Z M1281 967 L1183 868 Q1170 855 1157 868 L1058 967 Q1046 979 1058 992 L1157 1090 Q1170 1102 1183 1090 L1281 992 Q1293 979 1281 967 Z M954 967 L856 868 Q843 855 831 868 L732 967 Q719 979 732 992 L831 1090 Q843 1102 856 1090 L954 992 Q967 979 954 967 Z " />
<glyph glyph-name="afii62765" unicode="&#xfe97;" horiz-adv-x="803" d="M876 166 Q876 0 770 0 L55 0 Q-4 0 -4 162 L813 162 Q813 272 789 328 Q768 381 694 462 L767 612 Q842 516 861 437 Q876 379 876 233 L876 166 Z M827 971 L729 872 Q716 859 704 872 L605 971 Q592 984 605 996 L704 1094 Q716 1107 729 1094 L827 996 Q840 984 827 971 Z M500 971 L402 872 Q390 859 377 872 L278 971 Q265 984 278 996 L377 1094 Q390 1107 402 1094 L500 996 Q513 984 500 971 Z " />
<glyph glyph-name="afii62766" unicode="&#xfe98;" horiz-adv-x="803" d="M876 166 Q876 0 770 0 L55 0 Q-4 0 -4 162 L813 162 Q813 272 789 328 Q768 381 694 462 L767 612 Q842 516 861 437 Q876 379 876 233 L876 166 Z M827 971 L729 872 Q716 859 704 872 L605 971 Q592 984 605 996 L704 1094 Q716 1107 729 1094 L827 996 Q840 984 827 971 Z M500 971 L402 872 Q390 859 377 872 L278 971 Q265 984 278 996 L377 1094 Q390 1107 402 1094 L500 996 Q513 984 500 971 Z " />
<glyph glyph-name="afii57419" unicode="&#x62b;" horiz-adv-x="1552" d="M1625 166 Q1625 0 1519 0 L747 0 Q315 0 315 317 Q315 439 423 626 L446 611 Q378 469 378 399 Q378 270 522 208 Q629 162 775 162 L1554 162 Q1554 397 1441 487 L1511 638 Q1581 549 1606 459 Q1625 387 1625 260 L1625 166 Z M1070 1288 L972 1189 Q959 1176 947 1189 L848 1288 Q835 1301 848 1313 L947 1411 Q959 1424 972 1411 L1070 1313 Q1083 1301 1070 1288 Z M1282 970 L1183 871 Q1171 859 1158 871 L1060 970 Q1048 983 1060 995 L1158 1093 Q1171 1106 1183 1093 L1282 995 Q1295 983 1282 970 Z M923 970 L825 871 Q813 859 800 871 L701 970 Q688 983 701 995 L800 1093 Q813 1106 825 1093 L923 995 Q936 983 923 970 Z " />
<glyph glyph-name="afii62770" unicode="&#xfe9a;" horiz-adv-x="1552" d="M1625 166 Q1625 0 1519 0 L747 0 Q315 0 315 317 Q315 439 423 626 L446 611 Q378 469 378 399 Q378 270 522 208 Q629 162 775 162 L1554 162 Q1554 397 1441 487 L1511 638 Q1581 549 1606 459 Q1625 387 1625 260 L1625 166 Z M1070 1288 L972 1189 Q959 1176 947 1189 L848 1288 Q835 1301 848 1313 L947 1411 Q959 1424 972 1411 L1070 1313 Q1083 1301 1070 1288 Z M1282 970 L1183 871 Q1171 859 1158 871 L1060 970 Q1048 983 1060 995 L1158 1093 Q1171 1106 1183 1093 L1282 995 Q1295 983 1282 970 Z M923 970 L825 871 Q813 859 800 871 L701 970 Q688 983 701 995 L800 1093 Q813 1106 825 1093 L923 995 Q936 983 923 970 Z " />
<glyph glyph-name="afii62768" unicode="&#xfe9b;" horiz-adv-x="803" d="M876 166 Q876 0 770 0 L55 0 Q-4 0 -4 162 L813 162 Q813 272 789 328 Q768 381 694 462 L767 612 Q842 516 861 437 Q876 379 876 233 L876 166 Z M616 1287 L518 1188 Q506 1175 493 1188 L394 1287 Q382 1300 394 1312 L493 1410 Q506 1423 518 1410 L616 1312 Q629 1300 616 1287 Z M829 969 L730 870 Q717 858 705 870 L607 969 Q594 982 607 994 L705 1093 Q717 1105 730 1093 L829 994 Q842 982 829 969 Z M470 969 L372 870 Q359 858 346 870 L247 969 Q235 982 247 994 L346 1093 Q359 1105 372 1093 L470 994 Q482 982 470 969 Z " />
<glyph glyph-name="afii62769" unicode="&#xfe9c;" horiz-adv-x="803" d="M876 166 Q876 0 770 0 L55 0 Q-4 0 -4 162 L813 162 Q813 272 789 328 Q768 381 694 462 L767 612 Q842 516 861 437 Q876 379 876 233 L876 166 Z M616 1287 L518 1188 Q506 1175 493 1188 L394 1287 Q382 1300 394 1312 L493 1410 Q506 1423 518 1410 L616 1312 Q629 1300 616 1287 Z M829 969 L730 870 Q717 858 705 870 L607 969 Q594 982 607 994 L705 1093 Q717 1105 730 1093 L829 994 Q842 982 829 969 Z M470 969 L372 870 Q359 858 346 870 L247 969 Q235 982 247 994 L346 1093 Q359 1105 372 1093 L470 994 Q482 982 470 969 Z " />
<glyph glyph-name="afii57420" unicode="&#x62c;" horiz-adv-x="1203" d="M1268 -468 L993 -636 Q637 -630 476 -555 Q231 -442 231 -132 Q231 74 355 231 Q446 346 655 483 Q563 490 520 490 Q302 490 257 418 L232 430 Q285 563 357.5 612 Q430 661 573 661 Q644 661 784.5 641 Q925 621 995 621 Q1019 623 1156 635 L1121 477 Q772 417 595 334 Q292 191 292 -64 Q292 -473 1040 -473 Q1012 -473 1267 -463 L1268 -468 Z M930 -32 L831 -131 Q825 -137 818 -137 Q811 -137 805 -131 L706 -32 Q694 -20 706 -7 L805 91 Q811 96 818 96 Q825 96 831 91 L930 -7 Q942 -20 930 -32 Z " />
<glyph glyph-name="afii62773" unicode="&#xfe9e;" horiz-adv-x="1319" d="M1464 0 L1147 0 Q1042 0 963 87 Q887 171 887 278 Q887 335 908 434 Q636 351 512 274 Q300 140 300 -66 Q300 -348 639 -440 Q814 -488 1205 -488 L1209 -493 L993 -645 L936 -645 Q619 -645 455 -552 Q242 -430 242 -137 Q242 87 383 236 Q478 335 721 465 Q611 478 549 478 Q310 478 265 408 L244 419 Q293 546 370 598 Q447 650 584 650 Q649 650 778.5 632 Q908 614 973 614 Q1066 614 1165 627 L1127 470 Q1055 461 948 439 L946 382 Q939 161 1350 161 L1412 161 Q1426 161 1444 162 Q1460 162 1464 162 L1464 0 Z M802 -97 L703 -196 Q697 -202 690 -202 Q683 -202 678 -196 L579 -97 Q566 -85 579 -72 L678 26 Q683 31 690 31 Q697 31 703 26 L802 -72 Q815 -85 802 -97 Z " />
<glyph glyph-name="afii62771" unicode="&#xfe9f;" horiz-adv-x="1358" d="M1453 162 Q1441 52 1420 0 L55 0 Q0 0 0 142 L0 162 L1130 162 Q1087 194 1012 281 Q940 364 893 397 Q821 447 728 447 Q556 447 507 382 L479 415 Q512 497 594 554.5 Q676 612 764 612 Q899 612 1026 495 Q1045 477 1217 279 Q1318 162 1391 162 L1453 162 Z M810 -421 L711 -520 Q706 -526 698 -526 Q691 -526 686 -520 L587 -421 Q574 -409 587 -396 L686 -298 Q691 -292 698 -292 Q706 -292 711 -298 L810 -396 Q823 -409 810 -421 Z " />
<glyph glyph-name="afii62772" unicode="&#xfea0;" horiz-adv-x="1358" d="M1453 162 Q1441 52 1420 0 L55 0 Q0 0 0 142 L0 162 L1130 162 Q1087 194 1012 281 Q940 364 893 397 Q821 447 728 447 Q556 447 507 382 L479 415 Q512 497 594 554.5 Q676 612 764 612 Q899 612 1026 495 Q1045 477 1217 279 Q1318 162 1391 162 L1453 162 Z M810 -421 L711 -520 Q706 -526 698 -526 Q691 -526 686 -520 L587 -421 Q574 -409 587 -396 L686 -298 Q691 -292 698 -292 Q706 -292 711 -298 L810 -396 Q823 -409 810 -421 Z " />
<glyph glyph-name="afii57421" unicode="&#x62d;" horiz-adv-x="1203" d="M1268 -468 L993 -636 Q637 -630 476 -555 Q231 -442 231 -132 Q231 74 355 231 Q446 346 655 483 Q563 490 520 490 Q302 490 257 418 L232 430 Q285 563 357.5 612 Q430 661 573 661 Q644 661 784.5 641 Q925 621 995 621 Q1019 623 1156 635 L1121 477 Q772 417 595 334 Q292 191 292 -64 Q292 -473 1040 -473 Q1012 -473 1267 -463 L1268 -468 Z " />
<glyph glyph-name="afii62776" unicode="&#xfea2;" horiz-adv-x="1319" d="M1464 0 L1147 0 Q1042 0 963 87 Q887 171 887 278 Q887 335 908 434 Q636 351 512 274 Q300 140 300 -66 Q300 -348 639 -440 Q814 -488 1205 -488 L1209 -493 L993 -645 L936 -645 Q619 -645 455 -552 Q242 -430 242 -137 Q242 87 383 236 Q478 335 721 465 Q611 478 549 478 Q310 478 265 408 L244 419 Q293 546 370 598 Q447 650 584 650 Q649 650 778.5 632 Q908 614 973 614 Q1066 614 1165 627 L1127 470 Q1055 461 948 439 L946 382 Q939 161 1350 161 L1412 161 Q1426 161 1444 162 Q1460 162 1464 162 L1464 0 Z " />
<glyph glyph-name="afii62774" unicode="&#xfea3;" horiz-adv-x="1358" d="M1453 162 Q1441 52 1420 0 L55 0 Q0 0 0 142 L0 162 L1130 162 Q1087 194 1012 281 Q940 364 893 397 Q821 447 728 447 Q556 447 507 382 L479 415 Q512 497 594 554.5 Q676 612 764 612 Q899 612 1026 495 Q1045 477 1217 279 Q1318 162 1391 162 L1453 162 Z " />
<glyph glyph-name="afii62775" unicode="&#xfea4;" horiz-adv-x="1358" d="M1453 162 Q1441 52 1420 0 L55 0 Q0 0 0 142 L0 162 L1130 162 Q1087 194 1012 281 Q940 364 893 397 Q821 447 728 447 Q556 447 507 382 L479 415 Q512 497 594 554.5 Q676 612 764 612 Q899 612 1026 495 Q1045 477 1217 279 Q1318 162 1391 162 L1453 162 Z " />
<glyph glyph-name="afii57422" unicode="&#x62e;" horiz-adv-x="1203" d="M1268 -468 L993 -636 Q637 -630 476 -555 Q231 -442 231 -132 Q231 74 355 231 Q446 346 655 483 Q563 490 520 490 Q302 490 257 418 L232 430 Q285 563 357.5 612 Q430 661 573 661 Q644 661 784.5 641 Q925 621 995 621 Q1019 623 1156 635 L1121 477 Q772 417 595 334 Q292 191 292 -64 Q292 -473 1040 -473 Q1012 -473 1267 -463 L1268 -468 Z M807 960 L708 861 Q703 856 696 856 Q688 856 683 861 L584 960 Q571 973 584 985 L683 1084 Q689 1089 696 1089 Q703 1089 708 1084 L807 985 Q820 973 807 960 Z " />
<glyph glyph-name="afii62779" unicode="&#xfea6;" horiz-adv-x="1319" d="M1464 0 L1147 0 Q1042 0 963 87 Q887 171 887 278 Q887 335 908 434 Q636 351 512 274 Q300 140 300 -66 Q300 -348 639 -440 Q814 -488 1205 -488 L1209 -493 L993 -645 L936 -645 Q619 -645 455 -552 Q242 -430 242 -137 Q242 87 383 236 Q478 335 721 465 Q611 478 549 478 Q310 478 265 408 L244 419 Q293 546 370 598 Q447 650 584 650 Q649 650 778.5 632 Q908 614 973 614 Q1066 614 1165 627 L1127 470 Q1055 461 948 439 L946 382 Q939 161 1350 161 L1412 161 Q1426 161 1444 162 Q1460 162 1464 162 L1464 0 Z M806 960 L707 861 Q702 856 695 856 Q688 856 682 861 L583 960 Q571 973 583 985 L682 1084 Q688 1089 695 1089 Q702 1089 707 1084 L806 985 Q819 973 806 960 Z " />
<glyph glyph-name="afii62777" unicode="&#xfea7;" horiz-adv-x="1358" d="M1453 162 Q1441 52 1420 0 L55 0 Q0 0 0 142 L0 162 L1130 162 Q1087 194 1012 281 Q940 364 893 397 Q821 447 728 447 Q556 447 507 382 L479 415 Q512 497 594 554.5 Q676 612 764 612 Q899 612 1026 495 Q1045 477 1217 279 Q1318 162 1391 162 L1453 162 Z M809 961 L710 862 Q705 857 697 857 Q690 857 685 862 L586 961 Q573 974 586 986 L685 1084 Q690 1090 697 1090 Q705 1090 710 1084 L809 986 Q822 974 809 961 Z " />
<glyph glyph-name="afii62778" unicode="&#xfea8;" horiz-adv-x="1358" d="M1453 162 Q1441 52 1420 0 L55 0 Q0 0 0 142 L0 162 L1130 162 Q1087 194 1012 281 Q940 364 893 397 Q821 447 728 447 Q556 447 507 382 L479 415 Q512 497 594 554.5 Q676 612 764 612 Q899 612 1026 495 Q1045 477 1217 279 Q1318 162 1391 162 L1453 162 Z M809 961 L710 862 Q705 857 697 857 Q690 857 685 862 L586 961 Q573 974 586 986 L685 1084 Q690 1090 697 1090 Q705 1090 710 1084 L809 986 Q822 974 809 961 Z " />
<glyph glyph-name="afii57423" unicode="&#x62f;" horiz-adv-x="944" d="M1016 166 Q1016 0 911 0 L584 0 Q535 0 493 27 Q445 58 445 104 Q445 177 461 234 L479 234 Q499 162 584 162 L963 162 Q963 551 714 631 L728 796 Q897 712 965 529 Q1016 391 1016 166 Z " />
<glyph glyph-name="afii62780" unicode="&#xfeaa;" horiz-adv-x="944" d="M1016 166 Q1016 0 911 0 L584 0 Q535 0 493 27 Q445 58 445 104 Q445 177 461 234 L479 234 Q499 162 584 162 L963 162 Q963 551 714 631 L728 796 Q897 712 965 529 Q1016 391 1016 166 Z " />
<glyph glyph-name="afii57424" unicode="&#x630;" horiz-adv-x="944" d="M1016 166 Q1016 0 911 0 L584 0 Q535 0 493 27 Q445 58 445 104 Q445 177 461 234 L479 234 Q499 162 584 162 L963 162 Q963 551 714 631 L728 796 Q897 712 965 529 Q1016 391 1016 166 Z M798 1143 L699 1044 Q695 1039 687 1039 Q679 1039 674 1044 L575 1143 Q562 1156 575 1168 L674 1266 Q680 1272 687 1272 Q694 1272 699 1266 L798 1168 Q811 1156 798 1143 Z " />
<glyph glyph-name="afii62781" unicode="&#xfeac;" horiz-adv-x="944" d="M1016 166 Q1016 0 911 0 L584 0 Q535 0 493 27 Q445 58 445 104 Q445 177 461 234 L479 234 Q499 162 584 162 L963 162 Q963 551 714 631 L728 796 Q897 712 965 529 Q1016 391 1016 166 Z M798 1143 L699 1044 Q695 1039 687 1039 Q679 1039 674 1044 L575 1143 Q562 1156 575 1168 L674 1266 Q680 1272 687 1272 Q694 1272 699 1266 L798 1168 Q811 1156 798 1143 Z " />
<glyph glyph-name="afii57425" unicode="&#x631;" horiz-adv-x="899" d="M970 -4 Q970 -148 806.5 -308.5 Q643 -469 499 -469 Q404 -469 283 -430 Q257 -420 77 -353 L92 -318 Q280 -355 349 -355 Q520 -355 708 -208 Q907 -53 907 113 Q907 254 762 414 L815 561 Q970 416 970 232 L970 -4 Z " />
<glyph glyph-name="afii62782" unicode="&#xfeae;" horiz-adv-x="899" d="M970 -4 Q970 -148 806.5 -308.5 Q643 -469 499 -469 Q404 -469 283 -430 Q257 -420 77 -353 L92 -318 Q280 -355 349 -355 Q520 -355 708 -208 Q907 -53 907 113 Q907 254 762 414 L815 561 Q970 416 970 232 L970 -4 Z " />
<glyph glyph-name="afii57426" unicode="&#x632;" horiz-adv-x="899" d="M970 -4 Q970 -148 806.5 -308.5 Q643 -469 499 -469 Q404 -469 283 -430 Q257 -420 77 -353 L92 -318 Q280 -355 349 -355 Q520 -355 708 -208 Q907 -53 907 113 Q907 254 762 414 L815 561 Q970 416 970 232 L970 -4 Z M799 969 L700 870 Q695 865 688 865 Q680 865 675 870 L576 969 Q563 982 576 994 L675 1093 Q680 1098 688 1098 Q695 1098 700 1093 L799 994 Q812 982 799 969 Z " />
<glyph glyph-name="afii62783" unicode="&#xfeb0;" horiz-adv-x="899" d="M970 -4 Q970 -148 806.5 -308.5 Q643 -469 499 -469 Q404 -469 283 -430 Q257 -420 77 -353 L92 -318 Q280 -355 349 -355 Q520 -355 708 -208 Q907 -53 907 113 Q907 254 762 414 L815 561 Q970 416 970 232 L970 -4 Z M799 969 L700 870 Q695 865 688 865 Q680 865 675 870 L576 969 Q563 982 576 994 L675 1093 Q680 1098 688 1098 Q695 1098 700 1093 L799 994 Q812 982 799 969 Z " />
<glyph glyph-name="afii57427" unicode="&#x633;" horiz-adv-x="1908" d="M1978 223 Q1978 92 1957 55 Q1924 0 1804 0 Q1692 0 1603 68 Q1527 -2 1387 -2 Q1369 -2 1334 -1 Q1299 0 1282 0 Q1282 -214 1098 -330 Q943 -428 715 -428 Q310 -428 310 -135 Q310 58 457 363 L490 347 Q379 117 379 -18 Q379 -267 715 -267 Q895 -267 1040 -207 Q1234 -127 1234 26 Q1234 202 1120 344 L1196 535 Q1282 391 1282 162 L1396 162 Q1565 162 1565 267 Q1565 319 1552 387 L1585 436 Q1605 289 1635 240 Q1684 164 1813 164 Q1933 164 1933 226 Q1933 270 1900 333 Q1868 392 1831 422 L1906 554 Q1978 445 1978 281 L1978 223 Z " />
<glyph glyph-name="afii62786" unicode="&#xfeb2;" horiz-adv-x="1908" d="M1978 223 Q1978 92 1957 55 Q1924 0 1804 0 Q1692 0 1603 68 Q1527 -2 1387 -2 Q1369 -2 1334 -1 Q1299 0 1282 0 Q1282 -214 1098 -330 Q943 -428 715 -428 Q310 -428 310 -135 Q310 58 457 363 L490 347 Q379 117 379 -18 Q379 -267 715 -267 Q895 -267 1040 -207 Q1234 -127 1234 26 Q1234 202 1120 344 L1196 535 Q1282 391 1282 162 L1396 162 Q1565 162 1565 267 Q1565 319 1552 387 L1585 436 Q1605 289 1635 240 Q1684 164 1813 164 Q1933 164 1933 226 Q1933 270 1900 333 Q1868 392 1831 422 L1906 554 Q1978 445 1978 281 L1978 223 Z " />
<glyph glyph-name="afii62784" unicode="&#xfeb3;" horiz-adv-x="1330" d="M1401 166 Q1401 68 1349 31 Q1306 0 1203 0 Q1061 0 984 66 Q899 0 719 0 Q624 0 522 61 Q443 0 310 0 L55 0 Q0 0 0 143 L0 162 L279 162 Q481 162 481 267 Q481 328 469 387 L504 437 Q540 317 575 260 Q635 162 724 162 L789 162 Q940 162 940 267 Q940 321 926 387 L961 436 Q988 305 1032 246 Q1093 164 1213 164 Q1356 164 1356 226 Q1356 270 1323 333 Q1291 392 1255 422 L1329 554 Q1401 445 1401 281 L1401 166 Z " />
<glyph glyph-name="afii62785" unicode="&#xfeb4;" horiz-adv-x="1330" d="M1401 166 Q1401 68 1349 31 Q1306 0 1203 0 Q1061 0 984 66 Q899 0 719 0 Q624 0 522 61 Q443 0 310 0 L55 0 Q0 0 0 143 L0 162 L279 162 Q481 162 481 267 Q481 328 469 387 L504 437 Q540 317 575 260 Q635 162 724 162 L789 162 Q940 162 940 267 Q940 321 926 387 L961 436 Q988 305 1032 246 Q1093 164 1213 164 Q1356 164 1356 226 Q1356 270 1323 333 Q1291 392 1255 422 L1329 554 Q1401 445 1401 281 L1401 166 Z " />
<glyph glyph-name="afii57428" unicode="&#x634;" horiz-adv-x="1908" d="M1978 223 Q1978 92 1957 55 Q1924 0 1804 0 Q1692 0 1603 68 Q1527 -2 1387 -2 Q1369 -2 1334 -1 Q1299 0 1282 0 Q1282 -214 1098 -330 Q943 -428 715 -428 Q310 -428 310 -135 Q310 58 457 363 L490 347 Q379 117 379 -18 Q379 -267 715 -267 Q895 -267 1040 -207 Q1234 -127 1234 26 Q1234 202 1120 344 L1196 535 Q1282 391 1282 162 L1396 162 Q1565 162 1565 267 Q1565 319 1552 387 L1585 436 Q1605 289 1635 240 Q1684 164 1813 164 Q1933 164 1933 226 Q1933 270 1900 333 Q1868 392 1831 422 L1906 554 Q1978 445 1978 281 L1978 223 Z M1692 1285 L1594 1186 Q1581 1174 1569 1186 L1470 1285 Q1457 1298 1470 1310 L1569 1408 Q1581 1421 1594 1408 L1692 1310 Q1705 1298 1692 1285 Z M1904 967 L1805 868 Q1793 856 1780 868 L1682 967 Q1670 980 1682 993 L1780 1091 Q1793 1103 1805 1091 L1904 993 Q1917 980 1904 967 Z M1545 967 L1447 868 Q1435 856 1422 868 L1323 967 Q1310 980 1323 993 L1422 1091 Q1435 1103 1447 1091 L1545 993 Q1558 980 1545 967 Z " />
<glyph glyph-name="afii62789" unicode="&#xfeb6;" horiz-adv-x="1908" d="M1978 223 Q1978 92 1957 55 Q1924 0 1804 0 Q1692 0 1603 68 Q1527 -2 1387 -2 Q1369 -2 1334 -1 Q1299 0 1282 0 Q1282 -214 1098 -330 Q943 -428 715 -428 Q310 -428 310 -135 Q310 58 457 363 L490 347 Q379 117 379 -18 Q379 -267 715 -267 Q895 -267 1040 -207 Q1234 -127 1234 26 Q1234 202 1120 344 L1196 535 Q1282 391 1282 162 L1396 162 Q1565 162 1565 267 Q1565 319 1552 387 L1585 436 Q1605 289 1635 240 Q1684 164 1813 164 Q1933 164 1933 226 Q1933 270 1900 333 Q1868 392 1831 422 L1906 554 Q1978 445 1978 281 L1978 223 Z M1692 1285 L1594 1186 Q1581 1174 1569 1186 L1470 1285 Q1457 1298 1470 1310 L1569 1408 Q1581 1421 1594 1408 L1692 1310 Q1705 1298 1692 1285 Z M1904 967 L1805 868 Q1793 856 1780 868 L1682 967 Q1670 980 1682 993 L1780 1091 Q1793 1103 1805 1091 L1904 993 Q1917 980 1904 967 Z M1545 967 L1447 868 Q1435 856 1422 868 L1323 967 Q1310 980 1323 993 L1422 1091 Q1435 1103 1447 1091 L1545 993 Q1558 980 1545 967 Z " />
<glyph glyph-name="afii62787" unicode="&#xfeb7;" horiz-adv-x="1330" d="M1401 166 Q1401 68 1349 31 Q1306 0 1203 0 Q1061 0 984 66 Q899 0 719 0 Q624 0 522 61 Q443 0 310 0 L55 0 Q0 0 0 143 L0 162 L279 162 Q481 162 481 267 Q481 328 469 387 L504 437 Q540 317 575 260 Q635 162 724 162 L789 162 Q940 162 940 267 Q940 321 926 387 L961 436 Q988 305 1032 246 Q1093 164 1213 164 Q1356 164 1356 226 Q1356 270 1323 333 Q1291 392 1255 422 L1329 554 Q1401 445 1401 281 L1401 166 Z M1064 1287 L966 1188 Q953 1175 940 1188 L841 1287 Q829 1300 841 1312 L940 1410 Q953 1423 966 1410 L1064 1312 Q1076 1300 1064 1287 Z M1276 969 L1177 870 Q1165 858 1152 870 L1054 969 Q1041 982 1054 994 L1152 1093 Q1165 1105 1177 1093 L1276 994 Q1289 982 1276 969 Z M917 969 L819 870 Q806 858 794 870 L695 969 Q682 982 695 994 L794 1093 Q806 1105 819 1093 L917 994 Q930 982 917 969 Z " />
<glyph glyph-name="afii62788" unicode="&#xfeb8;" horiz-adv-x="1330" d="M1401 166 Q1401 68 1349 31 Q1306 0 1203 0 Q1061 0 984 66 Q899 0 719 0 Q624 0 522 61 Q443 0 310 0 L55 0 Q0 0 0 143 L0 162 L279 162 Q481 162 481 267 Q481 328 469 387 L504 437 Q540 317 575 260 Q635 162 724 162 L789 162 Q940 162 940 267 Q940 321 926 387 L961 436 Q988 305 1032 246 Q1093 164 1213 164 Q1356 164 1356 226 Q1356 270 1323 333 Q1291 392 1255 422 L1329 554 Q1401 445 1401 281 L1401 166 Z M1064 1287 L966 1188 Q953 1175 940 1188 L841 1287 Q829 1300 841 1312 L940 1410 Q953 1423 966 1410 L1064 1312 Q1076 1300 1064 1287 Z M1276 969 L1177 870 Q1165 858 1152 870 L1054 969 Q1041 982 1054 994 L1152 1093 Q1165 1105 1177 1093 L1276 994 Q1289 982 1276 969 Z M917 969 L819 870 Q806 858 794 870 L695 969 Q682 982 695 994 L794 1093 Q806 1105 819 1093 L917 994 Q930 982 917 969 Z " />
<glyph glyph-name="afii57429" unicode="&#x635;" horiz-adv-x="2067" d="M2138 166 Q2138 0 2033 0 L1269 0 Q1236 -232 1095 -335 Q966 -428 724 -428 Q319 -428 319 -135 Q319 59 466 363 L499 347 Q388 118 388 -18 Q388 -267 724 -267 Q904 -267 1049 -207 Q1243 -127 1243 26 Q1243 202 1129 344 L1205 535 Q1291 391 1291 155 Q1410 306 1543 429 Q1737 607 1848 607 Q1978 607 2061 504 Q2138 408 2138 274 L2138 166 Z M2071 273 Q2071 366 2019 402 Q1976 433 1879 433 Q1725 433 1610 349 L1396 162 L1952 162 Q2001 162 2036 193.5 Q2071 225 2071 273 Z " />
<glyph glyph-name="afii62792" unicode="&#xfeba;" horiz-adv-x="2067" d="M2138 166 Q2138 0 2033 0 L1269 0 Q1236 -232 1095 -335 Q966 -428 724 -428 Q319 -428 319 -135 Q319 59 466 363 L499 347 Q388 118 388 -18 Q388 -267 724 -267 Q904 -267 1049 -207 Q1243 -127 1243 26 Q1243 202 1129 344 L1205 535 Q1291 391 1291 155 Q1410 306 1543 429 Q1737 607 1848 607 Q1978 607 2061 504 Q2138 408 2138 274 L2138 166 Z M2071 273 Q2071 366 2019 402 Q1976 433 1879 433 Q1725 433 1610 349 L1396 162 L1952 162 Q2001 162 2036 193.5 Q2071 225 2071 273 Z " />
<glyph glyph-name="afii62790" unicode="&#xfebb;" horiz-adv-x="1514" d="M1586 166 Q1586 0 1480 0 L700 0 Q612 0 516 61 Q444 0 303 0 L55 0 Q0 0 0 143 L0 162 L279 161 Q477 161 477 267 Q477 319 463 387 L497 436 Q569 162 742 162 Q862 314 993 433 Q1184 607 1294 607 Q1425 607 1508 504 Q1586 408 1586 274 L1586 166 Z M1517 273 Q1517 366 1466 402 Q1422 433 1326 433 Q1164 433 1048 357 Q981 314 834 162 L1399 162 Q1447 162 1482 193.5 Q1517 225 1517 273 Z " />
<glyph glyph-name="afii62791" unicode="&#xfebc;" horiz-adv-x="1514" d="M1586 166 Q1586 0 1480 0 L700 0 Q612 0 516 61 Q444 0 303 0 L55 0 Q0 0 0 143 L0 162 L279 161 Q477 161 477 267 Q477 319 463 387 L497 436 Q569 162 742 162 Q862 314 993 433 Q1184 607 1294 607 Q1425 607 1508 504 Q1586 408 1586 274 L1586 166 Z M1517 273 Q1517 366 1466 402 Q1422 433 1326 433 Q1164 433 1048 357 Q981 314 834 162 L1399 162 Q1447 162 1482 193.5 Q1517 225 1517 273 Z " />
<glyph glyph-name="afii57430" unicode="&#x636;" horiz-adv-x="2067" d="M2138 166 Q2138 0 2033 0 L1269 0 Q1236 -232 1095 -335 Q966 -428 724 -428 Q319 -428 319 -135 Q319 59 466 363 L499 347 Q388 118 388 -18 Q388 -267 724 -267 Q904 -267 1049 -207 Q1243 -127 1243 26 Q1243 202 1129 344 L1205 535 Q1291 391 1291 155 Q1410 306 1543 429 Q1737 607 1848 607 Q1977 607 2060 504 Q2138 407 2138 274 L2138 166 Z M2071 273 Q2071 366 2019 402 Q1976 433 1879 433 Q1725 433 1610 349 L1396 162 L1952 162 Q2001 162 2036 193.5 Q2071 225 2071 273 Z M1723 964 L1624 865 Q1619 859 1612 859 Q1605 859 1599 865 L1500 964 Q1488 977 1500 989 L1599 1087 Q1605 1093 1612 1093 Q1619 1093 1624 1087 L1723 989 Q1736 977 1723 964 Z " />
<glyph glyph-name="afii62795" unicode="&#xfebe;" horiz-adv-x="2067" d="M2138 166 Q2138 0 2033 0 L1269 0 Q1236 -232 1095 -335 Q966 -428 724 -428 Q319 -428 319 -135 Q319 59 466 363 L499 347 Q388 118 388 -18 Q388 -267 724 -267 Q904 -267 1049 -207 Q1243 -127 1243 26 Q1243 202 1129 344 L1205 535 Q1291 391 1291 155 Q1410 306 1543 429 Q1737 607 1848 607 Q1977 607 2060 504 Q2138 407 2138 274 L2138 166 Z M2071 273 Q2071 366 2019 402 Q1976 433 1879 433 Q1725 433 1610 349 L1396 162 L1952 162 Q2001 162 2036 193.5 Q2071 225 2071 273 Z M1723 964 L1624 865 Q1619 859 1612 859 Q1605 859 1599 865 L1500 964 Q1488 977 1500 989 L1599 1087 Q1605 1093 1612 1093 Q1619 1093 1624 1087 L1723 989 Q1736 977 1723 964 Z " />
<glyph glyph-name="afii62793" unicode="&#xfebf;" horiz-adv-x="1514" d="M1586 166 Q1586 0 1480 0 L700 0 Q612 0 516 61 Q444 0 303 0 L55 0 Q0 0 0 143 L0 162 L279 161 Q477 161 477 267 Q477 319 463 387 L497 436 Q569 162 742 162 Q862 314 993 433 Q1184 607 1294 607 Q1425 607 1508 504 Q1586 408 1586 274 L1586 166 Z M1517 273 Q1517 366 1466 402 Q1422 433 1326 433 Q1164 433 1048 357 Q981 314 834 162 L1399 162 Q1447 162 1482 193.5 Q1517 225 1517 273 Z M1109 965 L1010 866 Q1004 860 997 860 Q990 860 985 866 L886 965 Q873 977 886 990 L985 1088 Q990 1093 997 1093 Q1004 1093 1010 1088 L1109 990 Q1121 977 1109 965 Z " />
<glyph glyph-name="afii62794" unicode="&#xfec0;" horiz-adv-x="1514" d="M1586 166 Q1586 0 1480 0 L700 0 Q612 0 516 61 Q444 0 303 0 L55 0 Q0 0 0 143 L0 162 L279 161 Q477 161 477 267 Q477 319 463 387 L497 436 Q569 162 742 162 Q862 314 993 433 Q1184 607 1294 607 Q1425 607 1508 504 Q1586 408 1586 274 L1586 166 Z M1517 273 Q1517 366 1466 402 Q1422 433 1326 433 Q1164 433 1048 357 Q981 314 834 162 L1399 162 Q1447 162 1482 193.5 Q1517 225 1517 273 Z M1109 965 L1010 866 Q1004 860 997 860 Q990 860 985 866 L886 965 Q873 977 886 990 L985 1088 Q990 1093 997 1093 Q1004 1093 1010 1088 L1109 990 Q1121 977 1109 965 Z " />
<glyph glyph-name="afii57431" unicode="&#x637;" horiz-adv-x="1174" d="M1247 166 Q1247 0 1141 0 L55 0 Q-1 0 0 162 L193 162 Q452 162 500 314 Q518 371 518 444 Q518 665 413 1047 L355 1076 Q368 1183 408 1282 Q440 1205 591 1191 Q586 1123 560 1003 L508 1019 Q588 755 588 577 Q588 486 560 344 Q806 607 956 607 Q1086 607 1170 504 Q1247 408 1247 274 L1247 166 Z M1179 273 Q1179 366 1127 402 Q1084 433 987 433 Q820 433 701 357 Q614 302 499 162 L1060 162 Q1109 162 1144 193 Q1179 224 1179 273 Z " />
<glyph glyph-name="afii62798" unicode="&#xfec2;" horiz-adv-x="1174" d="M1247 166 Q1247 0 1141 0 L55 0 Q-1 0 0 162 L193 162 Q452 162 500 314 Q518 371 518 444 Q518 665 413 1047 L355 1076 Q368 1183 408 1282 Q440 1205 591 1191 Q586 1123 560 1003 L508 1019 Q588 755 588 577 Q588 486 560 344 Q806 607 956 607 Q1086 607 1170 504 Q1247 408 1247 274 L1247 166 Z M1179 273 Q1179 366 1127 402 Q1084 433 987 433 Q820 433 701 357 Q614 302 499 162 L1060 162 Q1109 162 1144 193 Q1179 224 1179 273 Z " />
<glyph glyph-name="afii62796" unicode="&#xfec3;" horiz-adv-x="1174" d="M1247 166 Q1247 0 1141 0 L55 0 Q-1 0 0 162 L193 162 Q452 162 500 314 Q518 371 518 444 Q518 665 413 1047 L355 1076 Q368 1183 408 1282 Q440 1205 591 1191 Q586 1123 560 1003 L508 1019 Q588 755 588 577 Q588 486 560 344 Q806 607 956 607 Q1086 607 1170 504 Q1247 408 1247 274 L1247 166 Z M1179 273 Q1179 366 1127 402 Q1084 433 987 433 Q820 433 701 357 Q614 302 499 162 L1060 162 Q1109 162 1144 193 Q1179 224 1179 273 Z " />
<glyph glyph-name="afii62797" unicode="&#xfec4;" horiz-adv-x="1174" d="M1247 166 Q1247 0 1141 0 L55 0 Q-1 0 0 162 L193 162 Q452 162 500 314 Q518 371 518 444 Q518 665 413 1047 L355 1076 Q368 1183 408 1282 Q440 1205 591 1191 Q586 1123 560 1003 L508 1019 Q588 755 588 577 Q588 486 560 344 Q806 607 956 607 Q1086 607 1170 504 Q1247 408 1247 274 L1247 166 Z M1179 273 Q1179 366 1127 402 Q1084 433 987 433 Q820 433 701 357 Q614 302 499 162 L1060 162 Q1109 162 1144 193 Q1179 224 1179 273 Z " />
<glyph glyph-name="afii57432" unicode="&#x638;" horiz-adv-x="1174" d="M1247 166 Q1247 0 1141 0 L55 0 Q-1 0 0 162 L193 162 Q452 162 500 314 Q518 371 518 444 Q518 665 413 1047 L355 1076 Q367 1183 408 1282 Q440 1205 591 1191 Q586 1123 560 1003 L508 1019 Q588 755 588 577 Q588 486 560 344 Q806 607 956 607 Q1086 607 1170 504 Q1247 408 1247 274 L1247 166 Z M1179 273 Q1179 366 1127 402 Q1084 433 987 433 Q820 433 701 357 Q614 302 499 162 L1060 162 Q1109 162 1144 193 Q1179 224 1179 273 Z M1093 969 L994 870 Q990 865 983 865 Q975 865 970 870 L871 969 Q859 982 871 994 L970 1093 Q975 1098 983 1098 Q990 1098 994 1093 L1093 994 Q1106 982 1093 969 Z " />
<glyph glyph-name="afii62801" unicode="&#xfec6;" horiz-adv-x="1174" d="M1247 166 Q1247 0 1141 0 L55 0 Q-1 0 0 162 L193 162 Q452 162 500 314 Q518 371 518 444 Q518 665 413 1047 L355 1076 Q367 1183 408 1282 Q440 1205 591 1191 Q586 1123 560 1003 L508 1019 Q588 755 588 577 Q588 486 560 344 Q806 607 956 607 Q1086 607 1170 504 Q1247 408 1247 274 L1247 166 Z M1179 273 Q1179 366 1127 402 Q1084 433 987 433 Q820 433 701 357 Q614 302 499 162 L1060 162 Q1109 162 1144 193 Q1179 224 1179 273 Z M1093 969 L994 870 Q990 865 983 865 Q975 865 970 870 L871 969 Q859 982 871 994 L970 1093 Q975 1098 983 1098 Q990 1098 994 1093 L1093 994 Q1106 982 1093 969 Z " />
<glyph glyph-name="afii62799" unicode="&#xfec7;" horiz-adv-x="1174" d="M1247 166 Q1247 0 1141 0 L55 0 Q-1 0 0 162 L193 162 Q452 162 500 314 Q518 371 518 444 Q518 665 413 1047 L355 1076 Q367 1183 408 1282 Q440 1205 591 1191 Q586 1123 560 1003 L508 1019 Q588 755 588 577 Q588 486 560 344 Q806 607 956 607 Q1086 607 1170 504 Q1247 408 1247 274 L1247 166 Z M1179 273 Q1179 366 1127 402 Q1084 433 987 433 Q820 433 701 357 Q614 302 499 162 L1060 162 Q1109 162 1144 193 Q1179 224 1179 273 Z M1093 969 L994 870 Q990 865 983 865 Q975 865 970 870 L871 969 Q859 982 871 994 L970 1093 Q975 1098 983 1098 Q990 1098 994 1093 L1093 994 Q1106 982 1093 969 Z " />
<glyph glyph-name="afii62800" unicode="&#xfec8;" horiz-adv-x="1174" d="M1247 166 Q1247 0 1141 0 L55 0 Q-1 0 0 162 L193 162 Q452 162 500 314 Q518 371 518 444 Q518 665 413 1047 L355 1076 Q367 1183 408 1282 Q440 1205 591 1191 Q586 1123 560 1003 L508 1019 Q588 755 588 577 Q588 486 560 344 Q806 607 956 607 Q1086 607 1170 504 Q1247 408 1247 274 L1247 166 Z M1179 273 Q1179 366 1127 402 Q1084 433 987 433 Q820 433 701 357 Q614 302 499 162 L1060 162 Q1109 162 1144 193 Q1179 224 1179 273 Z M1093 969 L994 870 Q990 865 983 865 Q975 865 970 870 L871 969 Q859 982 871 994 L970 1093 Q975 1098 983 1098 Q990 1098 994 1093 L1093 994 Q1106 982 1093 969 Z " />
<glyph glyph-name="afii57433" unicode="&#x639;" horiz-adv-x="1130" d="M1210 -495 L967 -655 Q633 -640 483 -579 Q231 -476 231 -205 Q231 -58 291 61 Q336 151 452 283 Q348 335 301 385 Q240 452 240 552 Q240 689 332 792 Q428 899 563 899 Q665 899 807 788 Q663 778 522 740 Q312 682 312 597 Q312 526 446 472 Q539 434 643 418 Q842 526 1040 574 L1002 430 Q684 309 562 232 Q308 72 308 -137 Q308 -496 1031 -496 Q1111 -496 1210 -491 L1210 -495 Z " />
<glyph glyph-name="afii62804" unicode="&#xfeca;" horiz-adv-x="1169" d="M1312 0 L994 0 Q767 0 632 288 Q320 61 320 -132 Q320 -361 642 -445 Q805 -487 1147 -494 L1149 -498 L958 -651 Q634 -640 485 -578 Q242 -477 242 -210 Q242 -33 337 125 Q397 223 560 398 Q544 466 490 466 Q460 466 439 432 L415 432 Q428 670 644 670 Q724 670 790 634 Q870 591 870 518 Q870 454 805 402 Q747 365 688 326 Q780 157 1109 157 Q1143 157 1210.5 159.5 Q1278 162 1312 162 L1312 0 Z " />
<glyph glyph-name="afii62802" unicode="&#xfecb;" horiz-adv-x="1188" d="M1243 294 L1179 124 Q840 0 486 0 L55 0 Q-2 0 0 162 L483 162 Q418 268 418 381 Q418 509 524 605 Q627 697 757 697 Q865 697 932 652 Q976 622 1060 522 L1047 509 Q915 546 815 546 Q743 546 645 505 Q526 454 526 386 Q526 274 700 171 Q958 209 1243 294 Z " />
<glyph glyph-name="afii62803" unicode="&#xfecc;" horiz-adv-x="1029" d="M1173 0 L989 0 Q834 0 750 153 Q578 0 368 0 L55 0 Q-5 0 -4 162 L259 163 Q505 163 680 266 Q652 362 561 362 Q524 362 498 328 L482 328 L482 382 Q482 600 719 600 Q825 600 895 568 Q991 525 991 432 Q991 377 943 323 Q924 302 851 242 Q886 188 977 172 Q1033 162 1173 162 L1173 0 Z " />
<glyph glyph-name="afii57434" unicode="&#x63a;" horiz-adv-x="1130" d="M1210 -495 L967 -655 Q633 -640 483 -579 Q231 -476 231 -205 Q231 -58 291 61 Q336 151 452 283 Q348 335 301 385 Q240 452 240 552 Q240 689 332 792 Q428 899 563 899 Q665 899 807 788 Q663 778 522 740 Q312 682 312 597 Q312 526 446 472 Q539 434 643 418 Q842 526 1040 574 L1002 430 Q684 309 562 232 Q308 72 308 -137 Q308 -496 1031 -496 Q1111 -496 1210 -491 L1210 -495 Z M643 1158 L544 1059 Q538 1054 531 1054 Q523 1054 518 1059 L419 1158 Q407 1171 419 1183 L518 1282 Q523 1286 531 1286 Q539 1286 544 1282 L643 1183 Q655 1171 643 1158 Z " />
<glyph glyph-name="afii62807" unicode="&#xfece;" horiz-adv-x="1169" d="M1312 0 L994 0 Q767 0 632 288 Q320 61 320 -132 Q320 -361 642 -445 Q805 -487 1147 -494 L1149 -498 L958 -651 Q634 -640 485 -578 Q242 -477 242 -210 Q242 -33 337 125 Q397 223 560 398 Q544 466 490 466 Q460 466 439 432 L415 432 Q428 670 644 670 Q724 670 790 634 Q870 591 870 518 Q870 454 805 402 Q747 365 688 326 Q780 157 1109 157 Q1143 157 1210.5 159.5 Q1278 162 1312 162 L1312 0 Z M795 974 L696 875 Q690 869 683 869 Q675 869 670 875 L571 974 Q559 986 571 999 L670 1097 Q675 1102 683 1102 Q690 1102 696 1097 L795 999 Q807 986 795 974 Z " />
<glyph glyph-name="afii62805" unicode="&#xfecf;" horiz-adv-x="1188" d="M1243 294 L1179 124 Q840 0 486 0 L55 0 Q-2 0 0 162 L483 162 Q418 268 418 381 Q418 509 524 605 Q627 697 757 697 Q864 697 931 652 Q977 621 1060 522 L1047 509 Q915 546 815 546 Q742 546 645 505 Q526 454 526 386 Q526 274 700 171 Q958 209 1243 294 Z M794 967 L695 868 Q689 862 682 862 Q675 862 670 868 L571 967 Q558 979 571 992 L670 1090 Q675 1095 682 1095 Q689 1095 695 1090 L794 992 Q806 979 794 967 Z " />
<glyph glyph-name="afii62806" unicode="&#xfed0;" horiz-adv-x="1029" d="M1173 0 L989 0 Q834 0 750 153 Q578 0 368 0 L55 0 Q-5 0 -4 162 L259 163 Q505 163 680 266 Q652 362 561 362 Q524 362 498 328 L482 328 L482 382 Q482 600 719 600 Q825 600 895 568 Q991 525 991 432 Q991 377 943 323 Q924 302 851 242 Q886 188 977 172 Q1033 162 1173 162 L1173 0 Z M791 961 L692 862 Q687 857 679 857 Q672 857 667 862 L568 961 Q555 974 568 986 L667 1084 Q672 1090 679 1090 Q687 1090 692 1084 L791 986 Q804 974 791 961 Z " />
<glyph glyph-name="afii57441" unicode="&#x641;" horiz-adv-x="1656" d="M1543 971 L1444 872 Q1438 867 1431 867 Q1424 867 1418 872 L1319 971 Q1307 984 1319 996 L1418 1094 Q1424 1100 1431 1100 Q1438 1100 1444 1094 L1543 996 Q1555 984 1543 971 Z M1726 166 Q1726 0 1585 0 L933 0 Q666 0 527 45 Q296 120 296 328 Q296 398 330 490 Q339 513 398 643 L429 624 Q362 487 362 416 Q362 162 951 162 L1324 162 Q1356 162 1421 158 Q1486 154 1518 154 Q1641 154 1673 191 Q1472 217 1435 230 Q1302 276 1302 399 Q1302 520 1358 621 Q1425 743 1537 743 Q1641 743 1691 580 Q1726 467 1726 332 L1726 166 Z M1647 331 Q1635 417 1606 484 Q1564 585 1503 585 Q1463 585 1431 537 Q1401 494 1401 452 Q1401 376 1494 350 Q1525 341 1647 331 Z " />
<glyph glyph-name="afii62810" unicode="&#xfed2;" horiz-adv-x="1656" d="M1543 971 L1444 872 Q1438 867 1431 867 Q1424 867 1418 872 L1319 971 Q1307 984 1319 996 L1418 1094 Q1424 1100 1431 1100 Q1438 1100 1444 1094 L1543 996 Q1555 984 1543 971 Z M1726 166 Q1726 0 1585 0 L933 0 Q666 0 527 45 Q296 120 296 328 Q296 398 330 490 Q339 513 398 643 L429 624 Q362 487 362 416 Q362 162 951 162 L1324 162 Q1356 162 1421 158 Q1486 154 1518 154 Q1641 154 1673 191 Q1472 217 1435 230 Q1302 276 1302 399 Q1302 520 1358 621 Q1425 743 1537 743 Q1641 743 1691 580 Q1726 467 1726 332 L1726 166 Z M1647 331 Q1635 417 1606 484 Q1564 585 1503 585 Q1463 585 1431 537 Q1401 494 1401 452 Q1401 376 1494 350 Q1525 341 1647 331 Z " />
<glyph glyph-name="afii62808" unicode="&#xfed3;" horiz-adv-x="846" d="M923 166 Q923 0 782 0 L55 0 Q-1 0 0 162 Q64 162 332 157 Q547 154 665 154 Q838 154 870 191 Q669 217 632 230 Q499 276 499 399 Q499 520 555 621 Q623 743 734 743 Q838 743 888 580 Q923 467 923 332 L923 166 Z M844 331 Q833 414 803 484 Q760 585 700 585 Q660 585 628 537 Q598 494 598 452 Q598 377 691 350 Q725 340 844 331 Z M758 966 L659 867 Q653 861 646 861 Q638 861 634 867 L535 966 Q522 978 535 991 L634 1089 Q638 1094 646 1094 Q653 1094 659 1089 L758 991 Q770 978 758 966 Z " />
<glyph glyph-name="afii62809" unicode="&#xfed4;" horiz-adv-x="846" d="M923 166 Q923 0 782 0 L55 0 Q-1 0 0 162 Q64 162 332 157 Q547 154 665 154 Q838 154 870 191 Q669 217 632 230 Q499 276 499 399 Q499 520 555 621 Q623 743 734 743 Q838 743 888 580 Q923 467 923 332 L923 166 Z M844 331 Q833 414 803 484 Q760 585 700 585 Q660 585 628 537 Q598 494 598 452 Q598 377 691 350 Q725 340 844 331 Z M758 966 L659 867 Q653 861 646 861 Q638 861 634 867 L535 966 Q522 978 535 991 L634 1089 Q638 1094 646 1094 Q653 1094 659 1089 L758 991 Q770 978 758 966 Z " />
<glyph glyph-name="afii57442" unicode="&#x642;" horiz-adv-x="1337" d="M1275 967 L1177 868 Q1165 856 1152 868 L1053 967 Q1040 980 1053 993 L1152 1091 Q1165 1103 1177 1091 L1275 993 Q1288 980 1275 967 Z M949 967 L850 868 Q838 856 825 868 L726 967 Q714 980 726 993 L825 1091 Q838 1103 850 1091 L949 993 Q961 980 949 967 Z M1409 -69 Q1409 -280 1190 -378 Q1028 -450 787 -450 Q327 -450 327 -125 Q327 99 459 345 L493 330 Q393 94 393 -39 Q393 -283 797 -283 Q982 -283 1135 -228 Q1344 -151 1344 0 L1344 13 Q1171 31 1114 52 Q985 100 985 219 Q985 341 1041 442 Q1108 563 1220 563 Q1325 563 1375 401 Q1409 290 1409 152 L1409 -69 Z M1330 151 Q1318 237 1290 305 Q1247 405 1186 405 Q1146 405 1114 357 Q1084 314 1084 272 Q1084 197 1177 170 Q1214 159 1330 151 Z " />
<glyph glyph-name="afii62813" unicode="&#xfed6;" horiz-adv-x="1337" d="M1275 967 L1177 868 Q1165 856 1152 868 L1053 967 Q1040 980 1053 993 L1152 1091 Q1165 1103 1177 1091 L1275 993 Q1288 980 1275 967 Z M949 967 L850 868 Q838 856 825 868 L726 967 Q714 980 726 993 L825 1091 Q838 1103 850 1091 L949 993 Q961 980 949 967 Z M1409 -69 Q1409 -280 1190 -378 Q1028 -450 787 -450 Q327 -450 327 -125 Q327 99 459 345 L493 330 Q393 94 393 -39 Q393 -283 797 -283 Q982 -283 1135 -228 Q1344 -151 1344 0 L1344 13 Q1171 31 1114 52 Q985 100 985 219 Q985 341 1041 442 Q1108 563 1220 563 Q1325 563 1375 401 Q1409 290 1409 152 L1409 -69 Z M1330 151 Q1318 237 1290 305 Q1247 405 1186 405 Q1146 405 1114 357 Q1084 314 1084 272 Q1084 197 1177 170 Q1214 159 1330 151 Z " />
<glyph glyph-name="afii62811" unicode="&#xfed7;" horiz-adv-x="846" d="M923 166 Q923 0 782 0 L55 0 Q-1 0 0 162 Q64 162 332 157 Q547 154 665 154 Q838 154 870 191 Q669 217 632 230 Q499 276 499 399 Q499 520 555 621 Q623 743 734 743 Q838 743 888 580 Q923 467 923 332 L923 166 Z M844 331 Q833 414 803 484 Q760 585 700 585 Q660 585 628 537 Q598 494 598 452 Q598 377 691 350 Q725 340 844 331 Z M866 968 L768 869 Q755 857 742 869 L643 968 Q631 981 643 994 L742 1092 Q755 1104 768 1092 L866 994 Q878 981 866 968 Z M539 968 L441 869 Q428 857 416 869 L317 968 Q304 981 317 994 L416 1092 Q428 1104 441 1092 L539 994 Q552 981 539 968 Z " />
<glyph glyph-name="afii62812" unicode="&#xfed8;" horiz-adv-x="846" d="M923 166 Q923 0 782 0 L55 0 Q-1 0 0 162 Q64 162 332 157 Q547 154 665 154 Q838 154 870 191 Q669 217 632 230 Q499 276 499 399 Q499 520 555 621 Q623 743 734 743 Q838 743 888 580 Q923 467 923 332 L923 166 Z M844 331 Q833 414 803 484 Q760 585 700 585 Q660 585 628 537 Q598 494 598 452 Q598 377 691 350 Q725 340 844 331 Z M866 968 L768 869 Q755 857 742 869 L643 968 Q631 981 643 994 L742 1092 Q755 1104 768 1092 L866 994 Q878 981 866 968 Z M539 968 L441 869 Q428 857 416 869 L317 968 Q304 981 317 994 L416 1092 Q428 1104 441 1092 L539 994 Q552 981 539 968 Z " />
<glyph glyph-name="afii57443" unicode="&#x643;" horiz-adv-x="1558" d="M1554 162 Q1625 0 1519 0 L747 0 Q315 0 315 317 Q315 439 423 626 L446 611 Q378 469 378 399 Q378 270 522 208 Q629 162 775 162 L1554 162 Z M1640 1118 Q1640 1004 1616 938 L1566 954 L1637 185 Q1639 166 1639 154 Q1639 96 1617 53 Q1590 0 1519 0 L1547 162 L1475 992 L1425 1016 L1425 1028 Q1425 1141 1470 1249 L1479 1242 Q1481 1190 1538 1158 Q1542 1156 1640 1118 Z M1155 737 Q1145 679 977 617 Q861 574 792 549 Q796 582 848 620 Q890 650 936 667 Q848 711 848 754 Q848 804 910 880 Q977 962 1035 962 Q1111 962 1111 904 Q1111 879 1086 835 Q1047 870 985 870 Q967 870 935 843 Q903 816 903 798 Q903 770 969 740 Q1026 714 1059 714 Q1092 714 1155 737 Z " />
<glyph glyph-name="afii62816" unicode="&#xfeda;" horiz-adv-x="1558" d="M1554 162 Q1625 0 1519 0 L747 0 Q315 0 315 317 Q315 439 423 626 L446 611 Q378 469 378 399 Q378 270 522 208 Q629 162 775 162 L1554 162 Z M1640 1118 Q1640 1004 1616 938 L1566 954 L1637 185 Q1639 166 1639 154 Q1639 96 1617 53 Q1590 0 1519 0 L1547 162 L1475 992 L1425 1016 L1425 1028 Q1425 1141 1470 1249 L1479 1242 Q1481 1190 1538 1158 Q1542 1156 1640 1118 Z M1155 737 Q1145 679 977 617 Q861 574 792 549 Q796 582 848 620 Q890 650 936 667 Q848 711 848 754 Q848 804 910 880 Q977 962 1035 962 Q1111 962 1111 904 Q1111 879 1086 835 Q1047 870 985 870 Q967 870 935 843 Q903 816 903 798 Q903 770 969 740 Q1026 714 1059 714 Q1092 714 1155 737 Z " />
<glyph glyph-name="afii57410" unicode="&#xfedb;" horiz-adv-x="983" d="M1065 1212 Q893 1158 714 1090 Q423 980 423 943 Q423 924 576 791 Q763 629 859 510 Q1012 321 1012 165 Q1012 0 907 0 L32 0 Q-23 0 -23 162 L921 162 Q921 319 769 460 Q674 541 485 703 L448 675 Q420 692 364 728 Q308 764 308 791 Q308 949 404 1054 Q485 1144 666 1222 Q729 1249 1065 1372 L1065 1212 Z " />
<glyph glyph-name="afii62815" unicode="&#xfedc;" horiz-adv-x="983" d="M1065 1212 Q893 1158 714 1090 Q423 980 423 943 Q423 924 576 791 Q763 629 859 510 Q1012 321 1012 165 Q1012 0 907 0 L32 0 Q-23 0 -23 162 L921 162 Q921 319 769 460 Q674 541 485 703 L448 675 Q420 692 364 728 Q308 764 308 791 Q308 949 404 1054 Q485 1144 666 1222 Q729 1249 1065 1372 L1065 1212 Z " />
<glyph glyph-name="afii57444" unicode="&#x644;" horiz-adv-x="1188" d="M1291 1090 Q1291 1002 1267 909 L1210 928 Q1259 524 1259 -28 Q1259 -444 726 -444 Q554 -444 446 -372 Q319 -289 319 -124 Q319 40 374 165 L490 373 L520 358 Q393 130 393 -8 Q393 -140 496 -215 Q588 -283 724 -283 Q852 -283 1002 -223 Q1187 -150 1187 -46 Q1187 264 1116 967 L1071 990 Q1066 1110 1123 1222 L1134 1222 Q1140 1167 1192 1135 L1291 1090 Z " />
<glyph glyph-name="afii62819" unicode="&#xfede;" horiz-adv-x="1188" d="M1291 1090 Q1291 1002 1267 909 L1210 928 Q1259 524 1259 -28 Q1259 -444 726 -444 Q554 -444 446 -372 Q319 -289 319 -124 Q319 40 374 165 L490 373 L520 358 Q393 130 393 -8 Q393 -140 496 -215 Q588 -283 724 -283 Q852 -283 1002 -223 Q1187 -150 1187 -46 Q1187 264 1116 967 L1071 990 Q1066 1110 1123 1222 L1134 1222 Q1140 1167 1192 1135 L1291 1090 Z " />
<glyph glyph-name="afii62817" unicode="&#xfedf;" horiz-adv-x="716" d="M790 1118 Q790 1004 766 938 L716 954 L787 185 Q789 166 789 154 Q789 96 767 53 Q740 0 687 0 L55 0 Q0 0 0 162 L697 162 L625 992 L575 1016 L575 1028 Q575 1141 620 1249 L629 1242 Q631 1190 688 1158 Q692 1156 790 1118 Z " />
<glyph glyph-name="afii62818" unicode="&#xfee0;" horiz-adv-x="716" d="M790 1118 Q790 1004 766 938 L716 954 L787 185 Q789 166 789 154 Q789 96 767 53 Q740 0 687 0 L55 0 Q0 0 0 162 L697 162 L625 992 L575 1016 L575 1028 Q575 1141 620 1249 L629 1242 Q631 1190 688 1158 Q692 1156 790 1118 Z " />
<glyph glyph-name="afii57445" unicode="&#x645;" horiz-adv-x="1030" d="M1111 147 Q1111 120 1092 67 Q1068 0 1040 0 Q970 0 836 29.5 Q702 59 637 59 Q440 59 360 -32 Q360 -99 409 -271 L482 -521 Q489 -543 489 -587 Q489 -742 462 -807 L432 -807 Q427 -738 406 -601 L330 -349 Q282 -187 282 -97 Q282 46 392 136 Q496 221 642 221 Q676 221 777.5 200.5 Q879 180 909 166 Q801 297 769 330 Q662 444 606 444 Q561 444 527 411 Q504 388 469 327 Q453 338 441 351 Q528 582 680 582 Q751 582 891 432 Q991 325 1081 195 Q1111 153 1111 147 Z " />
<glyph glyph-name="afii62822" unicode="&#xfee2;" horiz-adv-x="1030" d="M1111 147 Q1111 120 1092 67 Q1068 0 1040 0 Q970 0 836 29.5 Q702 59 637 59 Q440 59 360 -32 Q360 -99 409 -271 L482 -521 Q489 -543 489 -587 Q489 -742 462 -807 L432 -807 Q427 -738 406 -601 L330 -349 Q282 -187 282 -97 Q282 46 392 136 Q496 221 642 221 Q676 221 777.5 200.5 Q879 180 909 166 Q801 297 769 330 Q662 444 606 444 Q561 444 527 411 Q504 388 469 327 Q453 338 441 351 Q528 582 680 582 Q751 582 891 432 Q991 325 1081 195 Q1111 153 1111 147 Z " />
<glyph glyph-name="afii62820" unicode="&#xfee3;" horiz-adv-x="964" d="M1046 137 Q1046 48 1000 14 Q960 -16 868 -16 Q801 -16 704.5 24 Q608 64 555 111 Q515 24 425 5 Q398 0 245 0 L55 0 Q0 0 0 162 L403 161 Q509 168 528 207 Q608 363 634 403 Q712 525 778 525 Q891 525 974 382 Q1046 258 1046 137 Z M929 139 Q932 153 932 170 Q932 238 891 304 Q845 378 780 378 Q750 378 699 326 Q652 279 639 246 Q763 137 895 137 Q913 137 929 139 Z " />
<glyph glyph-name="afii62821" unicode="&#xfee4;" horiz-adv-x="964" d="M1046 137 Q1046 48 1000 14 Q960 -16 868 -16 Q801 -16 704.5 24 Q608 64 555 111 Q515 24 425 5 Q398 0 245 0 L55 0 Q0 0 0 162 L403 161 Q509 168 528 207 Q608 363 634 403 Q712 525 778 525 Q891 525 974 382 Q1046 258 1046 137 Z M929 139 Q932 153 932 170 Q932 238 891 304 Q845 378 780 378 Q750 378 699 326 Q652 279 639 246 Q763 137 895 137 Q913 137 929 139 Z " />
<glyph glyph-name="afii57446" unicode="&#x646;" horiz-adv-x="1227" d="M964 964 L865 865 Q859 859 852 859 Q844 859 840 865 L741 964 Q728 977 741 989 L840 1087 Q844 1093 852 1093 Q859 1093 865 1087 L964 989 Q977 977 964 964 Z M1298 -4 Q1298 -249 1129 -349 Q997 -428 733 -428 Q325 -428 325 -135 Q325 56 473 363 L506 347 Q395 118 395 -18 Q395 -267 730 -267 Q906 -267 1048 -207 Q1236 -128 1236 26 Q1236 220 1135 344 L1212 535 Q1298 400 1298 166 L1298 -4 Z " />
<glyph glyph-name="afii62825" unicode="&#xfee6;" horiz-adv-x="1227" d="M964 964 L865 865 Q859 859 852 859 Q844 859 840 865 L741 964 Q728 977 741 989 L840 1087 Q844 1093 852 1093 Q859 1093 865 1087 L964 989 Q977 977 964 964 Z M1298 -4 Q1298 -249 1129 -349 Q997 -428 733 -428 Q325 -428 325 -135 Q325 56 473 363 L506 347 Q395 118 395 -18 Q395 -267 730 -267 Q906 -267 1048 -207 Q1236 -128 1236 26 Q1236 220 1135 344 L1212 535 Q1298 400 1298 166 L1298 -4 Z " />
<glyph glyph-name="afii62823" unicode="&#xfee7;" horiz-adv-x="803" d="M876 166 Q876 0 770 0 L55 0 Q-4 0 -4 162 L813 162 Q813 272 789 328 Q768 381 694 462 L767 612 Q842 516 861 437 Q876 379 876 233 L876 166 Z M651 969 L552 870 Q547 865 539 865 Q532 865 526 870 L427 969 Q415 982 427 994 L526 1093 Q531 1097 539 1097 Q547 1097 552 1093 L651 994 Q663 982 651 969 Z " />
<glyph glyph-name="afii62824" unicode="&#xfee8;" horiz-adv-x="803" d="M876 166 Q876 0 770 0 L55 0 Q-4 0 -4 162 L813 162 Q813 272 789 328 Q768 381 694 462 L767 612 Q842 516 861 437 Q876 379 876 233 L876 166 Z M651 969 L552 870 Q547 865 539 865 Q532 865 526 870 L427 969 Q415 982 427 994 L526 1093 Q531 1097 539 1097 Q547 1097 552 1093 L651 994 Q663 982 651 969 Z " />
<glyph glyph-name="afii57447" unicode="&#x647;" horiz-adv-x="923" d="M969 312 Q969 164 887 66 Q799 -38 653 -38 Q556 -38 480 -8 Q378 32 378 114 Q378 209 455 372 Q528 523 601 601 L580 612 L679 779 Q777 700 867 568 Q969 416 969 312 Z M879 232 Q879 315 805 420 Q737 517 658 564 Q610 526 553.5 419 Q497 312 497 254 Q497 191 538 155.5 Q579 120 642 120 Q727 120 789 139 Q879 168 879 232 Z " />
<glyph glyph-name="afii62828" unicode="&#xfeea;" horiz-adv-x="1109" d="M1254 0 L1048 0 Q922 0 859 115 Q817 193 783 382 Q675 181 571 181 Q272 181 272 271 Q272 545 728 759 Q706 848 706 868 Q706 924 759 994 Q788 796 832 565 Q871 355 900 287 Q954 162 1067 162 L1254 162 L1254 0 Z M780 418 L740 661 Q505 578 427 359 Q511 322 625 322 Q698 322 780 418 Z " />
<glyph glyph-name="afii57470" unicode="&#x6be;" horiz-adv-x="1154" d="M1228 304 Q1228 202 1192 107 Q1146 -20 1060 -20 Q916 -20 712 104 Q567 0 362 0 L55 0 Q0 0 0 162 Q427 162 587 191 Q508 253 508 386 Q508 671 822 767 L713 854 Q788 979 846 979 Q872 979 951 905 Q1073 792 1149 631 Q1228 464 1228 304 Z M1129 249 Q1129 369 1071 480 Q1034 550 933 677 L934 606 Q937 384 829 225 Q1000 134 1070 134 Q1129 134 1129 249 Z M851 422 Q851 476 839 532 Q820 615 786 615 Q714 615 654 558 Q594 501 594 430 Q594 364 769 259 Q851 320 851 422 Z " />
<glyph glyph-name="afii62827" unicode="&#xfbab;" horiz-adv-x="964" d="M1108 0 L631 0 Q723 -28 795 -83 Q898 -161 898 -259 Q898 -331 828.5 -403 Q759 -475 688 -475 Q575 -475 514 -391 Q468 -327 442 -201 Q429 -134 402 0 L55 0 Q0 0 0 143 L0 162 L402 162 L442 363 Q468 489 514 553 Q575 637 688 637 Q759 637 828.5 565 Q898 493 898 421 Q898 323 795 245 Q723 190 631 162 L1108 162 L1108 0 Z M812 402 Q812 496 662 496 Q586 496 533 360 Q523 335 462 162 Q576 162 685 224 Q812 296 812 402 Z M812 -240 Q812 -134 685 -62 Q576 0 462 0 Q484 -66 533 -198 Q586 -334 662 -334 Q812 -334 812 -240 Z " />
<glyph glyph-name="afii57448" unicode="&#x648;" horiz-adv-x="846" d="M918 55 Q918 -116 795 -273 Q663 -441 498 -441 Q411 -441 303 -410 Q267 -400 115 -347 L129 -317 Q293 -356 348 -356 Q507 -356 646 -245 Q738 -172 863 -3 Q657 -3 600 23 Q523 59 523 192 Q523 326 579 435 Q648 570 770 570 Q871 570 901 445 Q918 373 918 166 L918 55 Z M865 157 Q851 284 840 324 Q812 419 745 419 Q604 419 604 257 Q604 181 654 162 Q678 153 771 153 Q787 153 818 155 Q849 157 865 157 Z " />
<glyph glyph-name="afii62829" unicode="&#xfeee;" horiz-adv-x="846" d="M918 55 Q918 -116 795 -273 Q663 -441 498 -441 Q411 -441 303 -410 Q267 -400 115 -347 L129 -317 Q293 -356 348 -356 Q507 -356 646 -245 Q738 -172 863 -3 Q657 -3 600 23 Q523 59 523 192 Q523 326 579 435 Q648 570 770 570 Q871 570 901 445 Q918 373 918 166 L918 55 Z M865 157 Q851 284 840 324 Q812 419 745 419 Q604 419 604 257 Q604 181 654 162 Q678 153 771 153 Q787 153 818 155 Q849 157 865 157 Z " />
<glyph glyph-name="afii57449" unicode="&#x649;" horiz-adv-x="1338" d="M1428 489 Q1428 452 1417 387 Q1343 477 1242 477 Q1169 477 1072 390 Q975 303 975 231 Q975 189 1085 189 Q1106 189 1148 190.5 Q1190 192 1211 192 Q1376 192 1376 113 Q1376 -159 1128 -280 Q942 -371 637 -371 Q277 -371 277 -88 Q277 104 440 411 L473 397 Q349 176 349 28 Q349 -212 670 -212 Q813 -212 1021 -157 Q1289 -87 1289 14 Q1289 50 1211 50 Q1187 50 1139 47.5 Q1091 45 1066 45 Q904 45 904 153 Q904 290 1029 454 Q1161 628 1293 628 Q1355 628 1391.5 589.5 Q1428 551 1428 489 Z " />
<glyph glyph-name="afii62830" unicode="&#xfef0;" horiz-adv-x="1461" d="M1602 0 Q1596 0 1511 2 Q1469 3 1420 3 Q1012 3 1012 -77 Q1012 -106 1102 -119 Q1159 -126 1271 -143 Q1361 -160 1361 -211 Q1361 -457 1115 -551 Q957 -611 661 -611 Q502 -611 397 -509.5 Q292 -408 292 -249 Q292 -143 350 -23 Q380 39 471 181 L502 164 Q432 49 418 22 Q376 -64 376 -135 Q376 -279 487 -371 Q591 -457 737 -457 Q862 -457 1033 -427 Q1271 -384 1271 -313 Q1271 -281 1184 -268 Q1131 -262 1023 -247 Q937 -231 937 -182 Q937 -31 1053 68 Q1163 162 1317 162 L1602 162 L1602 0 Z " />
<glyph glyph-name="afii57450" unicode="&#x64a;" horiz-adv-x="1338" d="M1428 489 Q1428 452 1417 387 Q1343 477 1242 477 Q1169 477 1072 390 Q975 303 975 231 Q975 189 1085 189 Q1106 189 1148 190.5 Q1190 192 1211 192 Q1376 192 1376 113 Q1376 -159 1128 -280 Q942 -371 637 -371 Q277 -371 277 -88 Q277 104 440 411 L473 397 Q349 176 349 28 Q349 -212 670 -212 Q813 -212 1021 -157 Q1289 -87 1289 14 Q1289 50 1211 50 Q1187 50 1139 47.5 Q1091 45 1066 45 Q904 45 904 153 Q904 290 1029 454 Q1161 628 1293 628 Q1355 628 1391.5 589.5 Q1428 551 1428 489 Z M912 -589 L814 -688 Q801 -701 788 -688 L689 -589 Q677 -577 689 -564 L788 -466 Q801 -454 814 -466 L912 -564 Q924 -577 912 -589 Z M675 -579 L577 -678 Q564 -691 552 -678 L453 -579 Q440 -567 453 -554 L552 -456 Q564 -444 577 -456 L675 -554 Q688 -567 675 -579 Z " />
<glyph glyph-name="afii62833" unicode="&#xfef2;" horiz-adv-x="1461" d="M1602 0 Q1596 0 1511 2 Q1469 3 1420 3 Q1012 3 1012 -77 Q1012 -106 1102 -119 Q1159 -126 1271 -143 Q1361 -160 1361 -211 Q1361 -457 1115 -551 Q957 -611 661 -611 Q502 -611 397 -509.5 Q292 -408 292 -249 Q292 -143 350 -23 Q380 39 471 181 L502 164 Q432 49 418 22 Q376 -64 376 -135 Q376 -279 487 -371 Q591 -457 737 -457 Q862 -457 1033 -427 Q1271 -384 1271 -313 Q1271 -281 1184 -268 Q1131 -262 1023 -247 Q937 -231 937 -182 Q937 -31 1053 68 Q1163 162 1317 162 L1602 162 L1602 0 Z M1002 -849 L904 -948 Q891 -961 878 -948 L779 -849 Q767 -837 779 -824 L878 -726 Q891 -714 904 -726 L1002 -824 Q1014 -837 1002 -849 Z M765 -839 L667 -938 Q654 -951 642 -938 L543 -839 Q530 -827 543 -814 L642 -716 Q654 -704 667 -716 L765 -814 Q778 -827 765 -839 Z " />
<glyph glyph-name="afii62831" unicode="&#xfef3;" horiz-adv-x="803" d="M876 166 Q876 0 770 0 L55 0 Q-4 0 -4 162 L813 162 Q813 272 789 328 Q768 381 694 462 L767 612 Q842 516 861 437 Q876 379 876 233 L876 166 Z M722 -409 L624 -508 Q611 -521 598 -508 L499 -409 Q487 -397 499 -384 L598 -286 Q611 -274 624 -286 L722 -384 Q734 -397 722 -409 Z M395 -409 L297 -508 Q284 -521 272 -508 L173 -409 Q160 -397 173 -384 L272 -286 Q284 -274 297 -286 L395 -384 Q408 -397 395 -409 Z " />
<glyph glyph-name="afii62832" unicode="&#xfef4;" horiz-adv-x="803" d="M876 166 Q876 0 770 0 L55 0 Q-4 0 -4 162 L813 162 Q813 272 789 328 Q768 381 694 462 L767 612 Q842 516 861 437 Q876 379 876 233 L876 166 Z M722 -409 L624 -508 Q611 -521 598 -508 L499 -409 Q487 -397 499 -384 L598 -286 Q611 -274 624 -286 L722 -384 Q734 -397 722 -409 Z M395 -409 L297 -508 Q284 -521 272 -508 L173 -409 Q160 -397 173 -384 L272 -286 Q284 -274 297 -286 L395 -384 Q408 -397 395 -409 Z " />
<glyph glyph-name="afii62834" unicode="&#xfef5;" horiz-adv-x="1190" d="M1285 1060 L1240 893 L1183 921 L1183 826 Q1186 528 1034 270 Q1109 135 1109 40 Q1109 -27 1099 -79 Q882 -128 657 -128 Q658 -76 680 34 Q844 122 961 267 Q886 409 799 547 Q661 767 614 767 Q602 767 580 756 Q558 745 546 745 Q491 745 413 857 Q339 963 339 1022 Q339 1165 383 1165 Q536 1165 1004 339 Q1121 576 1121 949 L1066 982 L1066 994 Q1066 1101 1107 1186 L1125 1183 Q1135 1118 1285 1060 Z M1038 78 Q1038 116 991 203 Q921 113 776 22 Q1038 22 1038 78 Z M731 1488 Q640 1336 481 1336 Q446 1336 375.5 1347 Q305 1358 270 1358 Q214 1358 180 1340 Q157 1328 110 1284 L97 1296 Q165 1455 300 1455 Q336 1455 406 1442.5 Q476 1430 511 1430 Q606 1430 712 1500 L731 1488 Z " />
<glyph glyph-name="afii62835" unicode="&#xfef6;" horiz-adv-x="1490" d="M1602 0 L1405 0 Q1246 0 1246 350 Q1246 376 1247 428.5 Q1248 481 1248 507 Q1168 280 1084 174 Q968 29 773 -12 Q665 -34 345 -49 L345 -29 Q722 84 902 196 Q1205 384 1230 672 Q1244 826 1211 1075 Q1250 1152 1285 1218 Q1299 1060 1310 796 Q1313 659 1316 522 Q1320 354 1341 248 Q1358 162 1405 162 L1602 162 L1602 0 Z M1018 459 Q1018 432 1008 402 Q951 523 850 660 Q716 841 638 841 Q624 841 606.5 815.5 Q589 790 575 790 Q485 790 397 899 Q313 1003 313 1096 Q313 1153 343 1153 Q392 1153 549 1052 Q1018 751 1018 459 Z M731 1488 Q640 1336 481 1336 Q446 1336 375.5 1347 Q305 1358 270 1358 Q214 1358 180 1340 Q157 1328 110 1284 L97 1296 Q165 1455 300 1455 Q336 1455 406 1442.5 Q476 1430 511 1430 Q606 1430 712 1500 L731 1488 Z " />
<glyph glyph-name="afii62836" unicode="&#xfef7;" horiz-adv-x="1190" d="M1285 1060 L1240 893 L1183 921 L1183 826 Q1186 528 1034 270 Q1109 135 1109 40 Q1109 -27 1099 -79 Q882 -128 657 -128 Q658 -76 680 34 Q844 122 961 267 Q886 409 799 547 Q661 767 614 767 Q602 767 580 756 Q558 745 546 745 Q491 745 413 857 Q339 963 339 1022 Q339 1165 383 1165 Q536 1165 1004 339 Q1121 576 1121 949 L1066 982 L1066 994 Q1066 1101 1107 1186 L1125 1183 Q1135 1118 1285 1060 Z M1038 78 Q1038 116 991 203 Q921 113 776 22 Q1038 22 1038 78 Z M545 1457 Q535 1399 367 1337 Q251 1294 182 1269 Q186 1302 238 1340 Q280 1370 326 1387 Q238 1431 238 1474 Q238 1524 300 1600 Q367 1682 425 1682 Q501 1682 501 1624 Q501 1599 476 1555 Q437 1590 375 1590 Q357 1590 325 1563 Q293 1536 293 1518 Q293 1490 359 1460 Q416 1434 449 1434 Q482 1434 545 1457 Z " />
<glyph glyph-name="afii62837" unicode="&#xfef8;" horiz-adv-x="1470" d="M1602 0 L1405 0 Q1246 0 1246 350 Q1246 376 1247 428.5 Q1248 481 1248 507 Q1168 280 1084 174 Q968 29 773 -12 Q665 -34 345 -49 L345 -29 Q722 84 902 196 Q1205 384 1230 672 Q1244 826 1211 1075 Q1250 1152 1285 1218 Q1299 1060 1310 796 Q1313 659 1316 522 Q1320 354 1341 248 Q1358 162 1405 162 L1602 162 L1602 0 Z M1018 459 Q1018 432 1008 402 Q951 523 850 660 Q716 841 638 841 Q624 841 606.5 815.5 Q589 790 575 790 Q485 790 397 899 Q313 1003 313 1096 Q313 1153 343 1153 Q392 1153 549 1052 Q1018 751 1018 459 Z M545 1457 Q535 1399 367 1337 Q251 1294 182 1269 Q186 1302 238 1340 Q280 1370 326 1387 Q238 1431 238 1474 Q238 1524 300 1600 Q367 1682 425 1682 Q501 1682 501 1624 Q501 1599 476 1555 Q437 1590 375 1590 Q357 1590 325 1563 Q293 1536 293 1518 Q293 1490 359 1460 Q416 1434 449 1434 Q482 1434 545 1457 Z " />
<glyph glyph-name="afii62838" unicode="&#xfef9;" horiz-adv-x="1190" d="M1285 1060 L1240 893 L1183 921 L1183 826 Q1186 528 1034 270 Q1109 135 1109 40 Q1109 -27 1099 -79 Q882 -128 657 -128 Q658 -76 680 34 Q844 122 961 267 Q886 409 799 547 Q661 767 614 767 Q602 767 580 756 Q558 745 546 745 Q491 745 413 857 Q339 963 339 1022 Q339 1165 383 1165 Q536 1165 1004 339 Q1121 576 1121 949 L1066 982 L1066 994 Q1066 1101 1107 1186 L1125 1183 Q1135 1118 1285 1060 Z M1038 78 Q1038 116 991 203 Q921 113 776 22 Q1038 22 1038 78 Z M975 -463 Q965 -521 797 -583 Q681 -626 612 -651 Q616 -618 668 -580 Q710 -550 756 -533 Q668 -489 668 -446 Q668 -396 730 -320 Q797 -238 855 -238 Q931 -238 931 -296 Q931 -321 906 -365 Q867 -330 805 -330 Q787 -330 755 -357 Q723 -384 723 -402 Q723 -430 789 -460 Q846 -486 879 -486 Q912 -486 975 -463 Z " />
<glyph glyph-name="afii62839" unicode="&#xfefa;" horiz-adv-x="1470" d="M1602 0 L1405 0 Q1246 0 1246 350 Q1246 376 1247 428.5 Q1248 481 1248 507 Q1168 280 1084 174 Q968 29 773 -12 Q665 -34 345 -49 L345 -29 Q722 84 902 196 Q1205 384 1230 672 Q1244 826 1211 1075 Q1250 1152 1285 1218 Q1299 1060 1310 796 Q1313 659 1316 522 Q1320 354 1341 248 Q1358 162 1405 162 L1602 162 L1602 0 Z M1018 459 Q1018 432 1008 402 Q951 523 850 660 Q716 841 638 841 Q624 841 606.5 815.5 Q589 790 575 790 Q485 790 397 899 Q313 1003 313 1096 Q313 1153 343 1153 Q392 1153 549 1052 Q1018 751 1018 459 Z M1085 -343 Q1075 -401 907 -463 Q791 -506 722 -531 Q726 -498 778 -460 Q820 -430 866 -413 Q778 -369 778 -326 Q778 -276 840 -200 Q907 -118 965 -118 Q1041 -118 1041 -176 Q1041 -201 1016 -245 Q977 -210 915 -210 Q897 -210 865 -237 Q833 -264 833 -282 Q833 -310 899 -340 Q956 -366 989 -366 Q1022 -366 1085 -343 Z " />
<glyph glyph-name="afii62840" unicode="&#xfefb;" horiz-adv-x="1180" d="M1285 1060 L1240 893 L1183 921 L1183 826 Q1186 528 1034 270 Q1109 135 1109 40 Q1109 -27 1099 -79 Q882 -128 657 -128 Q658 -76 680 34 Q844 122 961 267 Q886 409 799 547 Q661 767 614 767 Q602 767 580 756 Q558 745 546 745 Q491 745 413 857 Q339 963 339 1022 Q339 1165 383 1165 Q536 1165 1004 339 Q1121 576 1121 949 L1066 982 L1066 994 Q1066 1101 1107 1186 L1125 1183 Q1135 1118 1285 1060 Z M1038 78 Q1038 116 991 203 Q921 113 776 22 Q1038 22 1038 78 Z " />
<glyph glyph-name="afii62841" unicode="&#xfefc;" horiz-adv-x="1413" d="M1602 0 L1405 0 Q1246 0 1246 350 Q1246 376 1247 428.5 Q1248 481 1248 507 Q1168 280 1084 174 Q968 29 773 -12 Q665 -34 345 -49 L345 -29 Q722 84 902 196 Q1205 384 1230 672 Q1244 826 1211 1075 Q1250 1152 1285 1218 Q1299 1060 1310 796 Q1313 659 1316 522 Q1320 354 1341 248 Q1358 162 1405 162 L1602 162 L1602 0 Z M1018 459 Q1018 432 1008 402 Q951 523 850 660 Q716 841 638 841 Q624 841 606.5 815.5 Q589 790 575 790 Q485 790 397 899 Q313 1003 313 1096 Q313 1153 343 1153 Q392 1153 549 1052 Q1018 751 1018 459 Z " />
<glyph glyph-name="uni0676" unicode="&#x676;" horiz-adv-x="846" d="M918 55 Q918 -116 795 -273 Q663 -441 498 -441 Q411 -441 303 -410 Q267 -400 115 -347 L129 -317 Q293 -356 348 -356 Q507 -356 646 -245 Q738 -172 863 -3 Q657 -3 600 23 Q523 59 523 192 Q523 326 579 435 Q648 570 770 570 Q871 570 901 445 Q918 373 918 166 L918 55 Z M865 157 Q851 284 840 324 Q812 419 745 419 Q604 419 604 257 Q604 181 654 162 Q678 153 771 153 Q787 153 818 155 Q849 157 865 157 Z M835 957 Q825 899 657 837 Q541 794 472 769 Q476 802 528 840 Q570 870 616 887 Q528 931 528 974 Q528 1024 590 1100 Q657 1182 715 1182 Q791 1182 791 1124 Q791 1099 766 1055 Q727 1090 665 1090 Q647 1090 615 1063 Q583 1036 583 1018 Q583 990 649 960 Q706 934 739 934 Q772 934 835 957 Z " />
<glyph glyph-name="uni0695" unicode="&#x695;" horiz-adv-x="899" d="M970 -4 Q970 -148 806.5 -308.5 Q643 -469 499 -469 Q404 -469 283 -430 Q257 -420 77 -353 L92 -318 Q280 -355 349 -355 Q520 -355 708 -208 Q907 -53 907 113 Q907 254 762 414 L815 561 Q970 416 970 232 L970 -4 Z M712 -568 L504 -976 L296 -568 L347 -568 L504 -790 L664 -568 L712 -568 Z " />
<glyph glyph-name="_002" unicode="&#xe001;" horiz-adv-x="899" d="M970 -4 Q970 -148 806.5 -308.5 Q643 -469 499 -469 Q404 -469 283 -430 Q257 -420 77 -353 L92 -318 Q280 -355 349 -355 Q520 -355 708 -208 Q907 -53 907 113 Q907 254 762 414 L815 561 Q970 416 970 232 L970 -4 Z M712 -568 L504 -976 L296 -568 L347 -568 L504 -790 L664 -568 L712 -568 Z " />
<glyph glyph-name="uni06b5" unicode="&#x6b5;" horiz-adv-x="1188" d="M1291 1090 Q1291 1002 1267 909 L1210 928 Q1259 524 1259 -28 Q1259 -444 726 -444 Q554 -444 446 -372 Q319 -289 319 -124 Q319 40 374 165 L490 373 L520 358 Q393 130 393 -8 Q393 -140 496 -215 Q588 -283 724 -283 Q852 -283 1002 -223 Q1187 -150 1187 -46 Q1187 264 1116 967 L1071 990 Q1066 1110 1123 1222 L1134 1222 Q1140 1167 1192 1135 L1291 1090 Z M1112 1692 L904 1284 L696 1692 L747 1692 L904 1470 L1064 1692 L1112 1692 Z " />
<glyph glyph-name="_003" unicode="&#xe007;" horiz-adv-x="1188" d="M1291 1090 Q1291 1002 1267 909 L1210 928 Q1259 524 1259 -28 Q1259 -444 726 -444 Q554 -444 446 -372 Q319 -289 319 -124 Q319 40 374 165 L490 373 L520 358 Q393 130 393 -8 Q393 -140 496 -215 Q588 -283 724 -283 Q852 -283 1002 -223 Q1187 -150 1187 -46 Q1187 264 1116 967 L1071 990 Q1066 1110 1123 1222 L1134 1222 Q1140 1167 1192 1135 L1291 1090 Z M1112 1692 L904 1284 L696 1692 L747 1692 L904 1470 L1064 1692 L1112 1692 Z " />
<glyph glyph-name="_004" unicode="&#xe008;" horiz-adv-x="716" d="M790 1118 Q790 1004 766 938 L716 954 L787 185 Q789 166 789 154 Q789 96 767 53 Q740 0 687 0 L55 0 Q0 0 0 162 L697 162 L625 992 L575 1016 L575 1028 Q575 1141 620 1249 L629 1242 Q631 1190 688 1158 Q692 1156 790 1118 Z M692 1772 L484 1364 L276 1772 L327 1772 L484 1550 L644 1772 L692 1772 Z " />
<glyph glyph-name="_005" unicode="&#xe009;" horiz-adv-x="716" d="M790 1118 Q790 1004 766 938 L716 954 L787 185 Q789 166 789 154 Q789 96 767 53 Q740 0 687 0 L55 0 Q0 0 0 162 L697 162 L625 992 L575 1016 L575 1028 Q575 1141 620 1249 L629 1242 Q631 1190 688 1158 Q692 1156 790 1118 Z M692 1772 L484 1364 L276 1772 L327 1772 L484 1550 L644 1772 L692 1772 Z " />
<glyph glyph-name="uni06c6" unicode="&#x6c6;" horiz-adv-x="846" d="M918 55 Q918 -116 795 -273 Q663 -441 498 -441 Q411 -441 303 -410 Q267 -400 115 -347 L129 -317 Q293 -356 348 -356 Q507 -356 646 -245 Q738 -172 863 -3 Q657 -3 600 23 Q523 59 523 192 Q523 326 579 435 Q648 570 770 570 Q871 570 901 445 Q918 373 918 166 L918 55 Z M865 157 Q851 284 840 324 Q812 419 745 419 Q604 419 604 257 Q604 181 654 162 Q678 153 771 153 Q787 153 818 155 Q849 157 865 157 Z M852 1222 L644 814 L436 1222 L487 1222 L644 1000 L804 1222 L852 1222 Z " />
<glyph glyph-name="unifbda" unicode="&#xfbda;" horiz-adv-x="846" d="M918 55 Q918 -116 795 -273 Q663 -441 498 -441 Q411 -441 303 -410 Q267 -400 115 -347 L129 -317 Q293 -356 348 -356 Q507 -356 646 -245 Q738 -172 863 -3 Q657 -3 600 23 Q523 59 523 192 Q523 326 579 435 Q648 570 770 570 Q871 570 901 445 Q918 373 918 166 L918 55 Z M865 157 Q851 284 840 324 Q812 419 745 419 Q604 419 604 257 Q604 181 654 162 Q678 153 771 153 Q787 153 818 155 Q849 157 865 157 Z M852 1222 L644 814 L436 1222 L487 1222 L644 1000 L804 1222 L852 1222 Z " />
<glyph glyph-name="uni06ce" unicode="&#x6ce;" horiz-adv-x="1338" d="M1428 489 Q1428 452 1417 387 Q1343 477 1242 477 Q1169 477 1072 390 Q975 303 975 231 Q975 189 1085 189 Q1106 189 1148 190.5 Q1190 192 1211 192 Q1376 192 1376 113 Q1376 -159 1128 -280 Q942 -371 637 -371 Q277 -371 277 -88 Q277 104 440 411 L473 397 Q349 176 349 28 Q349 -212 670 -212 Q813 -212 1021 -157 Q1289 -87 1289 14 Q1289 50 1211 50 Q1187 50 1139 47.5 Q1091 45 1066 45 Q904 45 904 153 Q904 290 1029 454 Q1161 628 1293 628 Q1355 628 1391.5 589.5 Q1428 551 1428 489 Z M852 962 L644 554 L436 962 L487 962 L644 740 L804 962 L852 962 Z " />
<glyph glyph-name="_006" unicode="&#xe004;" horiz-adv-x="1461" d="M1602 0 Q1596 0 1511 2 Q1469 3 1420 3 Q1012 3 1012 -77 Q1012 -106 1102 -119 Q1159 -126 1271 -143 Q1361 -160 1361 -211 Q1361 -457 1115 -551 Q957 -611 661 -611 Q502 -611 397 -509.5 Q292 -408 292 -249 Q292 -143 350 -23 Q380 39 471 181 L502 164 Q432 49 418 22 Q376 -64 376 -135 Q376 -279 487 -371 Q591 -457 737 -457 Q862 -457 1033 -427 Q1271 -384 1271 -313 Q1271 -281 1184 -268 Q1131 -262 1023 -247 Q937 -231 937 -182 Q937 -31 1053 68 Q1163 162 1317 162 L1602 162 L1602 0 Z M922 742 L714 334 L506 742 L557 742 L714 520 L874 742 L922 742 Z " />
<glyph glyph-name="_007" unicode="&#xe005;" horiz-adv-x="803" d="M876 166 Q876 0 770 0 L55 0 Q-4 0 -4 162 L813 162 Q813 272 789 328 Q768 381 694 462 L767 612 Q842 516 861 437 Q876 379 876 233 L876 166 Z M722 -409 L624 -508 Q611 -521 598 -508 L499 -409 Q487 -397 499 -384 L598 -286 Q611 -274 624 -286 L722 -384 Q734 -397 722 -409 Z M395 -409 L297 -508 Q284 -521 272 -508 L173 -409 Q160 -397 173 -384 L272 -286 Q284 -274 297 -286 L395 -384 Q408 -397 395 -409 Z M782 1262 L574 854 L366 1262 L417 1262 L574 1040 L734 1262 L782 1262 Z " />
<glyph glyph-name="_008" unicode="&#xe006;" horiz-adv-x="803" d="M876 166 Q876 0 770 0 L55 0 Q-4 0 -4 162 L813 162 Q813 272 789 328 Q768 381 694 462 L767 612 Q842 516 861 437 Q876 379 876 233 L876 166 Z M722 -409 L624 -508 Q611 -521 598 -508 L499 -409 Q487 -397 499 -384 L598 -286 Q611 -274 624 -286 L722 -384 Q734 -397 722 -409 Z M395 -409 L297 -508 Q284 -521 272 -508 L173 -409 Q160 -397 173 -384 L272 -286 Q284 -274 297 -286 L395 -384 Q408 -397 395 -409 Z M782 1262 L574 854 L366 1262 L417 1262 L574 1040 L734 1262 L782 1262 Z " />
<glyph glyph-name="aekurdiFinal" unicode="&#xe000;" horiz-adv-x="1109" d="M1254 0 L1048 0 Q922 0 859 115 Q817 193 783 382 Q675 181 571 181 Q272 181 272 271 Q272 545 728 759 Q706 848 706 868 Q706 924 759 994 Q788 796 832 565 Q871 355 900 287 Q954 162 1067 162 L1254 162 L1254 0 Z M780 418 L740 661 Q505 578 427 359 Q511 322 625 322 Q698 322 780 418 Z " />
<glyph glyph-name="nonJoiner" unicode="&#x200c;" d="" />
<glyph glyph-name="lla1" unicode="&#xe003;" horiz-adv-x="1180" d="M1285 1060 L1240 893 L1183 921 L1183 826 Q1186 528 1034 270 Q1109 135 1109 40 Q1109 -27 1099 -79 Q882 -128 657 -128 Q658 -76 680 34 Q844 122 961 267 Q886 409 799 547 Q661 767 614 767 Q602 767 580 756 Q558 745 546 745 Q491 745 413 857 Q339 963 339 1022 Q339 1165 383 1165 Q536 1165 1004 339 Q1121 576 1121 949 L1066 982 L1066 994 Q1066 1101 1107 1186 L1125 1183 Q1135 1118 1285 1060 Z M1038 78 Q1038 116 991 203 Q921 113 776 22 Q1038 22 1038 78 Z M1172 1652 L964 1244 L756 1652 L807 1652 L964 1430 L1124 1652 L1172 1652 Z " />
<glyph glyph-name="lla2" unicode="&#xe002;" horiz-adv-x="1413" d="M1602 0 L1405 0 Q1246 0 1246 350 Q1246 376 1247 428.5 Q1248 481 1248 507 Q1168 280 1084 174 Q968 29 773 -12 Q665 -34 345 -49 L345 -29 Q722 84 902 196 Q1205 384 1230 672 Q1244 826 1211 1075 Q1250 1152 1285 1218 Q1299 1060 1310 796 Q1313 659 1316 522 Q1320 354 1341 248 Q1358 162 1405 162 L1602 162 L1602 0 Z M1018 459 Q1018 432 1008 402 Q951 523 850 660 Q716 841 638 841 Q624 841 606.5 815.5 Q589 790 575 790 Q485 790 397 899 Q313 1003 313 1096 Q313 1153 343 1153 Q392 1153 549 1052 Q1018 751 1018 459 Z M1302 1682 L1094 1274 L886 1682 L937 1682 L1094 1460 L1254 1682 L1302 1682 Z " />
<glyph glyph-name="FY1" unicode="&#xfbfe;" horiz-adv-x="803" d="M876 166 Q876 0 770 0 L55 0 Q-4 0 -4 162 L813 162 Q813 272 789 328 Q768 381 694 462 L767 612 Q842 516 861 437 Q876 379 876 233 L876 166 Z M722 -409 L624 -508 Q611 -521 598 -508 L499 -409 Q487 -397 499 -384 L598 -286 Q611 -274 624 -286 L722 -384 Q734 -397 722 -409 Z M395 -409 L297 -508 Q284 -521 272 -508 L173 -409 Q160 -397 173 -384 L272 -286 Q284 -274 297 -286 L395 -384 Q408 -397 395 -409 Z " />
<glyph glyph-name="FY2" unicode="&#xfbff;" horiz-adv-x="803" d="M876 166 Q876 0 770 0 L55 0 Q-4 0 -4 162 L813 162 Q813 272 789 328 Q768 381 694 462 L767 612 Q842 516 861 437 Q876 379 876 233 L876 166 Z M722 -409 L624 -508 Q611 -521 598 -508 L499 -409 Q487 -397 499 -384 L598 -286 Q611 -274 624 -286 L722 -384 Q734 -397 722 -409 Z M395 -409 L297 -508 Q284 -521 272 -508 L173 -409 Q160 -397 173 -384 L272 -286 Q284 -274 297 -286 L395 -384 Q408 -397 395 -409 Z " />
<glyph glyph-name="uniF001" unicode="&#xf001;" horiz-adv-x="3393" d="M2746 2285 Q2740 2281 2734 2282 L2723 2282 L2711 2282 L2700 2282 L2686 2282 L2591 2274 L2591 2244 Q2663 2242 2708 2202 L2720 2165 L2720 1956 Q2547 2034 2417 1926 Q2270 1771 2341 1579 Q2486 1306 2708 1488 Q2724 1479 2723 1431 L2738 1431 Q2763 1432 2780 1436 L2794 1436 L2806 1436 L2833 1440 L2916 1443 L2916 1477 Q2850 1473 2821 1523 L2821 1553 L2821 1583 L2821 1613 L2821 1689 L2821 1700 L2821 1711 L2821 1829 L2821 1855 L2821 1877 L2821 1903 L2821 1926 L2821 1946 L2821 1968 L2821 1983 L2821 2052 L2821 2093 L2821 2108 L2821 2123 L2821 2138 L2821 2153 L2821 2218 L2821 2229 L2821 2274 L2817 2285 L2806 2285 L2794 2285 L2746 2285 Z M433 2176 Q498 2174 535 2130 L535 1643 Q540 1554 528 1496 Q481 1467 433 1470 L433 1431 L449 1431 L463 1431 L475 1431 L550 1431 L562 1431 L629 1431 L641 1431 L758 1431 L758 1470 Q702 1476 664 1500 Q655 1523 652 1541 L652 1560 L652 1576 L652 1640 L652 1681 L652 1696 L652 1760 L652 1772 L652 1817 Q672 1815 682 1806 L716 1764 L728 1753 L739 1741 L747 1734 L755 1723 Q780 1695 792 1673 L804 1666 L811 1650 Q844 1623 856 1594 Q863 1590 864 1587 Q882 1567 891 1553 Q904 1537 909 1523 L917 1519 L921 1511 L928 1503 L932 1496 L939 1484 Q962 1454 974 1431 L988 1431 L1008 1431 L1057 1431 L1072 1431 L1137 1431 L1147 1431 L1193 1431 L1193 1470 Q1138 1475 1098 1496 Q1069 1519 1053 1537 Q1027 1559 1015 1583 L1000 1601 L985 1617 L978 1624 Q966 1644 951 1659 L944 1673 L932 1681 L905 1719 L898 1726 L887 1737 L882 1749 Q876 1753 875 1756 Q869 1760 868 1764 L861 1772 L852 1783 Q846 1787 845 1790 L826 1813 Q792 1843 778 1873 L792 1885 L811 1903 L822 1919 L856 1949 L868 1964 L875 1976 L887 1987 Q902 2000 909 2013 L921 2025 L932 2036 Q945 2053 958 2062 Q962 2068 966 2070 L970 2078 L974 2085 L981 2093 L992 2100 Q1015 2134 1041 2153 Q1098 2177 1147 2176 L1147 2213 L1132 2213 L1117 2213 L1105 2213 L1038 2213 L988 2213 L974 2213 L909 2213 L898 2213 L852 2213 L852 2176 Q902 2177 935 2156 Q934 2129 925 2108 L921 2100 L914 2089 L905 2082 Q884 2048 861 2029 L856 2017 Q835 1999 826 1983 L815 1972 L804 1964 Q766 1917 728 1893 Q725 1885 721 1885 Q696 1858 675 1843 Q663 1837 652 1836 L652 1850 L652 1870 L652 1885 L652 1953 L652 1968 L652 1983 L652 1999 L652 2062 L652 2073 L652 2119 L664 2153 Q713 2177 758 2176 L758 2213 L743 2213 L728 2213 L716 2213 L641 2213 L629 2213 L562 2213 L550 2213 L433 2213 L433 2176 Z M2168 1987 Q2088 1955 2043 1896 L2039 1903 Q2044 1949 2032 1983 L2005 1983 Q1993 1979 1982 1979 L1963 1979 Q1928 1975 1903 1976 Q1874 1971 1850 1972 L1850 1934 Q1909 1935 1933 1889 L1938 1873 L1938 1643 Q1943 1549 1929 1488 Q1893 1467 1858 1470 L1858 1431 L1873 1431 L1892 1431 L1906 1431 L1926 1431 L1941 1431 L1959 1431 L2009 1431 L2024 1431 L2088 1431 L2118 1431 L2145 1431 L2145 1470 Q2082 1466 2043 1500 Q2038 1529 2039 1553 L2039 1601 L2039 1617 L2039 1684 L2039 1700 L2039 1716 L2039 1730 L2039 1794 L2039 1806 L2039 1850 Q2088 1919 2161 1926 Q2144 1830 2235 1836 Q2321 1928 2217 1987 L2168 1987 Z M1321 1979 L1306 1979 L1294 1979 L1284 1979 L1272 1976 L1261 1976 L1185 1972 L1185 1934 Q1243 1931 1268 1889 L1272 1544 L1294 1481 Q1333 1438 1378 1420 Q1515 1411 1597 1507 L1604 1503 L1604 1493 Q1603 1458 1609 1431 L1650 1431 L1665 1436 L1729 1440 L1759 1440 Q1773 1443 1786 1443 L1786 1477 Q1732 1479 1706 1519 L1703 1541 L1703 1564 L1703 1576 L1703 1624 L1703 1689 L1703 1703 L1703 1767 L1703 1817 L1703 1832 L1703 1873 L1703 1900 L1703 1912 L1703 1923 Q1704 1958 1699 1983 L1687 1983 L1646 1979 L1631 1979 L1612 1979 L1604 1976 L1574 1976 L1499 1972 L1499 1934 Q1557 1941 1593 1907 L1600 1889 L1600 1553 Q1558 1500 1506 1481 Q1341 1464 1370 1662 L1370 1677 L1370 1689 L1370 1764 L1370 1776 L1370 1843 L1370 1855 L1370 1972 L1359 1983 L1337 1983 L1321 1979 Z M2557 1949 Q2673 1959 2720 1862 L2720 1537 Q2685 1500 2644 1484 Q2452 1455 2432 1659 Q2408 1866 2557 1949 Z M1390 1261 Q1455 1258 1499 1228 Q1512 1167 1506 1122 L1506 732 Q1511 643 1499 585 Q1445 549 1390 555 L1390 518 L1443 518 L1491 518 L1506 518 L1574 518 L1590 518 L1604 518 L1620 518 L1684 518 L1696 518 L1740 518 L1740 555 Q1675 560 1631 589 L1623 605 L1623 722 L1623 775 L1623 785 L1623 805 L1623 816 L1623 831 L1623 842 L1623 918 L1623 929 L1623 941 L1623 990 L1623 1001 L1623 1038 L1623 1051 L1623 1088 Q1618 1178 1631 1235 Q1686 1266 1740 1261 L1740 1300 L1687 1300 L1639 1300 L1623 1300 L1556 1300 L1540 1300 L1526 1300 L1510 1300 L1446 1300 L1434 1300 L1390 1300 L1390 1261 Z M1896 1058 L1880 1058 L1869 1058 L1793 1058 L1793 1008 L1805 1008 L1816 1008 L1892 1008 L1892 605 L1915 545 Q2021 472 2161 540 L2161 578 Q2067 552 2005 605 L2002 612 L1998 638 L1994 661 L1994 679 L1994 702 L1994 718 L1994 785 L1994 828 L1994 842 L1994 858 L1994 872 L1994 888 L1994 952 L1994 964 L1994 1008 L2005 1008 L2016 1008 L2035 1008 L2046 1008 L2062 1008 L2073 1008 L2149 1008 L2149 1058 L2138 1058 L2126 1058 L2108 1058 L2096 1058 L2081 1058 L2069 1058 L1994 1058 L1994 1088 L1994 1099 L1994 1111 L1994 1228 L1982 1228 L1971 1228 L1896 1228 L1896 1058 Z M528 571 Q140 475 191 80 Q282 -306 682 -237 Q688 -234 694 -234 L709 -230 L721 -226 L732 -223 L743 -219 L758 -216 L852 -181 L849 -151 L849 -140 L849 -90 L849 -80 L849 -34 Q845 18 861 57 Q903 82 951 83 L951 120 L925 120 L872 120 L861 120 L792 120 L743 120 L728 120 L664 120 L652 120 L607 120 L607 83 Q681 86 732 49 L735 37 L739 27 L739 -113 L735 -154 Q645 -210 546 -200 Q260 -106 327 276 Q390 601 682 499 Q785 406 808 279 L849 279 L849 295 L849 317 L849 332 L849 348 L849 412 L849 431 L845 442 L845 457 L845 469 L845 483 L845 552 Q797 559 781 518 Q652 581 528 571 Z M1692 329 Q1441 259 1464 0 Q1512 -233 1729 -246 Q1959 -224 1990 -7 Q2016 331 1692 329 Z M3033 329 Q2956 302 2909 253 Q2893 287 2900 317 L2886 322 L2867 322 Q2846 314 2829 317 L2814 317 Q2798 311 2783 313 L2708 310 L2708 272 Q2767 273 2794 230 Q2802 196 2799 166 L2799 -264 Q2804 -358 2791 -419 Q2749 -442 2708 -439 L2708 -476 L2727 -476 L2791 -476 L2806 -476 L2826 -476 L2874 -476 L2889 -476 L2953 -476 L2983 -476 L3010 -476 L3010 -439 Q2950 -439 2909 -408 L2904 -393 L2900 -377 L2900 -366 L2900 -352 L2900 -340 L2900 -320 L2900 -310 L2900 -294 L2900 -283 L2900 -207 Q3188 -324 3282 -37 Q3340 267 3079 329 L3059 329 L3045 329 L3033 329 Z M1310 325 Q1233 292 1188 234 Q1182 237 1181 242 L1181 253 Q1184 294 1178 322 L1151 322 Q1139 317 1128 317 L1110 317 Q1074 312 1049 313 Q1020 308 997 310 L997 272 Q1047 270 1075 234 L1080 216 L1080 -49 Q1085 -125 1072 -177 Q1034 -194 1000 -193 L1000 -230 L1015 -230 L1034 -230 L1049 -230 L1068 -230 L1084 -230 L1102 -230 L1151 -230 L1167 -230 L1231 -230 L1241 -230 L1287 -230 L1287 -193 Q1229 -194 1188 -166 L1185 -147 L1181 -129 L1181 -11 L1181 42 L1181 53 L1181 72 L1181 83 L1181 99 L1181 110 L1181 186 Q1231 255 1306 265 Q1285 169 1381 173 Q1459 266 1363 325 L1310 325 Z M2209 322 Q2204 317 2198 317 L2187 317 L2168 317 Q2132 312 2108 313 Q2077 308 2055 310 L2055 272 Q2117 272 2141 223 L2152 -151 Q2200 -245 2292 -242 Q2403 -236 2467 -154 Q2481 -190 2474 -223 Q2488 -230 2504 -230 L2520 -230 L2534 -226 L2576 -226 Q2581 -223 2587 -223 L2598 -223 L2659 -219 L2659 -186 Q2608 -182 2580 -147 Q2575 -126 2576 -106 L2576 -90 L2576 -80 L2576 -60 L2576 -49 L2576 -34 L2576 -23 L2576 53 L2576 69 L2576 83 L2576 151 L2576 166 L2576 182 L2576 196 L2576 260 L2576 272 L2576 317 L2557 322 L2541 322 Q2527 314 2511 317 L2493 317 Q2455 312 2428 313 L2417 313 Q2396 307 2371 310 L2371 272 Q2426 276 2462 249 L2470 234 L2474 212 L2474 -110 Q2432 -163 2379 -177 Q2299 -199 2255 -136 L2255 -124 Q2244 -104 2244 -80 L2244 -67 L2244 7 L2244 57 L2244 72 L2244 140 L2244 155 L2244 170 L2244 186 L2244 249 L2244 260 L2244 306 Q2238 319 2224 322 L2209 322 Z M1699 287 Q1870 290 1876 117 Q1923 -95 1779 -196 Q1597 -228 1579 -14 Q1547 213 1699 287 Z M3003 272 Q3136 267 3165 147 Q3201 6 3153 -110 Q3116 -196 3029 -204 Q2936 -196 2900 -117 L2900 -94 L2900 -80 L2900 -11 L2900 30 L2900 46 L2900 60 L2900 76 L2900 90 L2900 155 L2900 166 L2900 212 Q2947 258 3003 272 Z " />
<glyph glyph-name="uniF002" unicode="&#xf002;" horiz-adv-x="3393" d="M2744 2285 Q2738 2281 2732 2282 L2721 2282 L2709 2282 L2698 2282 L2684 2282 L2589 2274 L2589 2244 Q2661 2242 2706 2202 L2718 2165 L2718 1956 Q2545 2034 2415 1926 Q2268 1771 2339 1579 Q2484 1306 2706 1488 Q2722 1479 2721 1431 L2736 1431 Q2761 1432 2778 1436 L2792 1436 L2804 1436 L2831 1440 L2914 1443 L2914 1477 Q2848 1473 2819 1523 L2819 1553 L2819 1583 L2819 1613 L2819 1689 L2819 1700 L2819 1711 L2819 1829 L2819 1855 L2819 1877 L2819 1903 L2819 1926 L2819 1946 L2819 1968 L2819 1983 L2819 2052 L2819 2093 L2819 2108 L2819 2123 L2819 2138 L2819 2153 L2819 2218 L2819 2229 L2819 2274 L2815 2285 L2804 2285 L2792 2285 L2744 2285 Z M431 2176 Q496 2174 533 2130 L533 1643 Q538 1554 526 1496 Q479 1467 431 1470 L431 1431 L447 1431 L461 1431 L473 1431 L548 1431 L560 1431 L627 1431 L639 1431 L756 1431 L756 1470 Q700 1476 662 1500 Q653 1523 650 1541 L650 1560 L650 1576 L650 1640 L650 1681 L650 1696 L650 1760 L650 1772 L650 1817 Q670 1815 680 1806 L714 1764 L726 1753 L737 1741 L745 1734 L753 1723 Q778 1695 790 1673 L802 1666 L809 1650 Q842 1623 854 1594 Q861 1590 862 1587 Q880 1567 889 1553 Q902 1537 907 1523 L915 1519 L919 1511 L926 1503 L930 1496 L937 1484 Q960 1454 972 1431 L986 1431 L1006 1431 L1055 1431 L1070 1431 L1135 1431 L1145 1431 L1191 1431 L1191 1470 Q1136 1475 1096 1496 Q1067 1519 1051 1537 Q1025 1559 1013 1583 L998 1601 L983 1617 L976 1624 Q964 1644 949 1659 L942 1673 L930 1681 L903 1719 L896 1726 L885 1737 L880 1749 Q874 1753 873 1756 Q867 1760 866 1764 L859 1772 L850 1783 Q844 1787 843 1790 L824 1813 Q790 1843 776 1873 L790 1885 L809 1903 L820 1919 L854 1949 L866 1964 L873 1976 L885 1987 Q900 2000 907 2013 L919 2025 L930 2036 Q943 2053 956 2062 Q960 2068 964 2070 L968 2078 L972 2085 L979 2093 L990 2100 Q1013 2134 1039 2153 Q1096 2177 1145 2176 L1145 2213 L1130 2213 L1115 2213 L1103 2213 L1036 2213 L986 2213 L972 2213 L907 2213 L896 2213 L850 2213 L850 2176 Q900 2177 933 2156 Q932 2129 923 2108 L919 2100 L912 2089 L903 2082 Q882 2048 859 2029 L854 2017 Q833 1999 824 1983 L813 1972 L802 1964 Q764 1917 726 1893 Q723 1885 719 1885 Q694 1858 673 1843 Q661 1837 650 1836 L650 1850 L650 1870 L650 1885 L650 1953 L650 1968 L650 1983 L650 1999 L650 2062 L650 2073 L650 2119 L662 2153 Q711 2177 756 2176 L756 2213 L741 2213 L726 2213 L714 2213 L639 2213 L627 2213 L560 2213 L548 2213 L431 2213 L431 2176 Z M2166 1987 Q2086 1955 2041 1896 L2037 1903 Q2042 1949 2030 1983 L2003 1983 Q1991 1979 1980 1979 L1961 1979 Q1926 1975 1901 1976 Q1872 1971 1848 1972 L1848 1934 Q1907 1935 1931 1889 L1936 1873 L1936 1643 Q1941 1549 1927 1488 Q1891 1467 1856 1470 L1856 1431 L1871 1431 L1890 1431 L1904 1431 L1924 1431 L1939 1431 L1957 1431 L2007 1431 L2022 1431 L2086 1431 L2116 1431 L2143 1431 L2143 1470 Q2080 1466 2041 1500 Q2036 1529 2037 1553 L2037 1601 L2037 1617 L2037 1684 L2037 1700 L2037 1716 L2037 1730 L2037 1794 L2037 1806 L2037 1850 Q2086 1919 2159 1926 Q2142 1830 2233 1836 Q2319 1928 2215 1987 L2166 1987 Z M1319 1979 L1304 1979 L1292 1979 L1282 1979 L1270 1976 L1259 1976 L1183 1972 L1183 1934 Q1241 1931 1266 1889 L1270 1544 L1292 1481 Q1331 1438 1376 1420 Q1513 1411 1595 1507 L1602 1503 L1602 1493 Q1601 1458 1607 1431 L1648 1431 L1663 1436 L1727 1440 L1757 1440 Q1771 1443 1784 1443 L1784 1477 Q1730 1479 1704 1519 L1701 1541 L1701 1564 L1701 1576 L1701 1624 L1701 1689 L1701 1703 L1701 1767 L1701 1817 L1701 1832 L1701 1873 L1701 1900 L1701 1912 L1701 1923 Q1702 1958 1697 1983 L1685 1983 L1644 1979 L1629 1979 L1610 1979 L1602 1976 L1572 1976 L1497 1972 L1497 1934 Q1555 1941 1591 1907 L1598 1889 L1598 1553 Q1556 1500 1504 1481 Q1339 1464 1368 1662 L1368 1677 L1368 1689 L1368 1764 L1368 1776 L1368 1843 L1368 1855 L1368 1972 L1357 1983 L1335 1983 L1319 1979 Z M2555 1949 Q2671 1959 2718 1862 L2718 1537 Q2683 1500 2642 1484 Q2450 1455 2430 1659 Q2406 1866 2555 1949 Z M1388 1261 Q1453 1258 1497 1228 Q1510 1167 1504 1122 L1504 732 Q1509 643 1497 585 Q1443 549 1388 555 L1388 518 L1441 518 L1489 518 L1504 518 L1572 518 L1588 518 L1602 518 L1618 518 L1682 518 L1694 518 L1738 518 L1738 555 Q1673 560 1629 589 L1621 605 L1621 722 L1621 775 L1621 785 L1621 805 L1621 816 L1621 831 L1621 842 L1621 918 L1621 929 L1621 941 L1621 990 L1621 1001 L1621 1038 L1621 1051 L1621 1088 Q1616 1178 1629 1235 Q1684 1266 1738 1261 L1738 1300 L1685 1300 L1637 1300 L1621 1300 L1554 1300 L1538 1300 L1524 1300 L1508 1300 L1444 1300 L1432 1300 L1388 1300 L1388 1261 Z M1894 1058 L1878 1058 L1867 1058 L1791 1058 L1791 1008 L1803 1008 L1814 1008 L1890 1008 L1890 605 L1913 545 Q2019 472 2159 540 L2159 578 Q2065 552 2003 605 L2000 612 L1996 638 L1992 661 L1992 679 L1992 702 L1992 718 L1992 785 L1992 828 L1992 842 L1992 858 L1992 872 L1992 888 L1992 952 L1992 964 L1992 1008 L2003 1008 L2014 1008 L2033 1008 L2044 1008 L2060 1008 L2071 1008 L2147 1008 L2147 1058 L2136 1058 L2124 1058 L2106 1058 L2094 1058 L2079 1058 L2067 1058 L1992 1058 L1992 1088 L1992 1099 L1992 1111 L1992 1228 L1980 1228 L1969 1228 L1894 1228 L1894 1058 Z M526 571 Q138 475 189 80 Q280 -306 680 -237 Q686 -234 692 -234 L707 -230 L719 -226 L730 -223 L741 -219 L756 -216 L850 -181 L847 -151 L847 -140 L847 -90 L847 -80 L847 -34 Q843 18 859 57 Q901 82 949 83 L949 120 L923 120 L870 120 L859 120 L790 120 L741 120 L726 120 L662 120 L650 120 L605 120 L605 83 Q679 86 730 49 L733 37 L737 27 L737 -113 L733 -154 Q643 -210 544 -200 Q258 -106 325 276 Q388 601 680 499 Q783 406 806 279 L847 279 L847 295 L847 317 L847 332 L847 348 L847 412 L847 431 L843 442 L843 457 L843 469 L843 483 L843 552 Q795 559 779 518 Q650 581 526 571 Z M1690 329 Q1439 259 1462 0 Q1510 -233 1727 -246 Q1957 -224 1988 -7 Q2014 331 1690 329 Z M3031 329 Q2954 302 2907 253 Q2891 287 2898 317 L2884 322 L2865 322 Q2844 314 2827 317 L2812 317 Q2796 311 2781 313 L2706 310 L2706 272 Q2765 273 2792 230 Q2800 196 2797 166 L2797 -264 Q2802 -358 2789 -419 Q2747 -442 2706 -439 L2706 -476 L2725 -476 L2789 -476 L2804 -476 L2824 -476 L2872 -476 L2887 -476 L2951 -476 L2981 -476 L3008 -476 L3008 -439 Q2948 -439 2907 -408 L2902 -393 L2898 -377 L2898 -366 L2898 -352 L2898 -340 L2898 -320 L2898 -310 L2898 -294 L2898 -283 L2898 -207 Q3186 -324 3280 -37 Q3338 267 3077 329 L3057 329 L3043 329 L3031 329 Z M1308 325 Q1231 292 1186 234 Q1180 237 1179 242 L1179 253 Q1182 294 1176 322 L1149 322 Q1137 317 1126 317 L1108 317 Q1072 312 1047 313 Q1018 308 995 310 L995 272 Q1045 270 1073 234 L1078 216 L1078 -49 Q1083 -125 1070 -177 Q1032 -194 998 -193 L998 -230 L1013 -230 L1032 -230 L1047 -230 L1066 -230 L1082 -230 L1100 -230 L1149 -230 L1165 -230 L1229 -230 L1239 -230 L1285 -230 L1285 -193 Q1227 -194 1186 -166 L1183 -147 L1179 -129 L1179 -11 L1179 42 L1179 53 L1179 72 L1179 83 L1179 99 L1179 110 L1179 186 Q1229 255 1304 265 Q1283 169 1379 173 Q1457 266 1361 325 L1308 325 Z M2207 322 Q2202 317 2196 317 L2185 317 L2166 317 Q2130 312 2106 313 Q2075 308 2053 310 L2053 272 Q2115 272 2139 223 L2150 -151 Q2198 -245 2290 -242 Q2401 -236 2465 -154 Q2479 -190 2472 -223 Q2486 -230 2502 -230 L2518 -230 L2532 -226 L2574 -226 Q2579 -223 2585 -223 L2596 -223 L2657 -219 L2657 -186 Q2606 -182 2578 -147 Q2573 -126 2574 -106 L2574 -90 L2574 -80 L2574 -60 L2574 -49 L2574 -34 L2574 -23 L2574 53 L2574 69 L2574 83 L2574 151 L2574 166 L2574 182 L2574 196 L2574 260 L2574 272 L2574 317 L2555 322 L2539 322 Q2525 314 2509 317 L2491 317 Q2453 312 2426 313 L2415 313 Q2394 307 2369 310 L2369 272 Q2424 276 2460 249 L2468 234 L2472 212 L2472 -110 Q2430 -163 2377 -177 Q2297 -199 2253 -136 L2253 -124 Q2242 -104 2242 -80 L2242 -67 L2242 7 L2242 57 L2242 72 L2242 140 L2242 155 L2242 170 L2242 186 L2242 249 L2242 260 L2242 306 Q2236 319 2222 322 L2207 322 Z M1697 287 Q1868 290 1874 117 Q1921 -95 1777 -196 Q1595 -228 1577 -14 Q1545 213 1697 287 Z M3001 272 Q3134 267 3163 147 Q3199 6 3151 -110 Q3114 -196 3027 -204 Q2934 -196 2898 -117 L2898 -94 L2898 -80 L2898 -11 L2898 30 L2898 46 L2898 60 L2898 76 L2898 90 L2898 155 L2898 166 L2898 212 Q2945 258 3001 272 Z " />
<glyph glyph-name="uniF8FE.F8FE" unicode="&#xf8fe;" horiz-adv-x="3393" d="M2744 2285 Q2738 2281 2732 2282 L2721 2282 L2709 2282 L2698 2282 L2684 2282 L2589 2274 L2589 2244 Q2661 2242 2706 2202 L2718 2165 L2718 1956 Q2545 2034 2415 1926 Q2268 1771 2339 1579 Q2484 1306 2706 1488 Q2722 1479 2721 1431 L2736 1431 Q2761 1432 2778 1436 L2792 1436 L2804 1436 L2831 1440 L2914 1443 L2914 1477 Q2848 1473 2819 1523 L2819 1553 L2819 1583 L2819 1613 L2819 1689 L2819 1700 L2819 1711 L2819 1829 L2819 1855 L2819 1877 L2819 1903 L2819 1926 L2819 1946 L2819 1968 L2819 1983 L2819 2052 L2819 2093 L2819 2108 L2819 2123 L2819 2138 L2819 2153 L2819 2218 L2819 2229 L2819 2274 L2815 2285 L2804 2285 L2792 2285 L2744 2285 Z M431 2176 Q496 2174 533 2130 L533 1643 Q538 1554 526 1496 Q479 1467 431 1470 L431 1431 L447 1431 L461 1431 L473 1431 L548 1431 L560 1431 L627 1431 L639 1431 L756 1431 L756 1470 Q700 1476 662 1500 Q653 1523 650 1541 L650 1560 L650 1576 L650 1640 L650 1681 L650 1696 L650 1760 L650 1772 L650 1817 Q670 1815 680 1806 L714 1764 L726 1753 L737 1741 L745 1734 L753 1723 Q778 1695 790 1673 L802 1666 L809 1650 Q842 1623 854 1594 Q861 1590 862 1587 Q880 1567 889 1553 Q902 1537 907 1523 L915 1519 L919 1511 L926 1503 L930 1496 L937 1484 Q960 1454 972 1431 L986 1431 L1006 1431 L1055 1431 L1070 1431 L1135 1431 L1145 1431 L1191 1431 L1191 1470 Q1136 1475 1096 1496 Q1067 1519 1051 1537 Q1025 1559 1013 1583 L998 1601 L983 1617 L976 1624 Q964 1644 949 1659 L942 1673 L930 1681 L903 1719 L896 1726 L885 1737 L880 1749 Q874 1753 873 1756 Q867 1760 866 1764 L859 1772 L850 1783 Q844 1787 843 1790 L824 1813 Q790 1843 776 1873 L790 1885 L809 1903 L820 1919 L854 1949 L866 1964 L873 1976 L885 1987 Q900 2000 907 2013 L919 2025 L930 2036 Q943 2053 956 2062 Q960 2068 964 2070 L968 2078 L972 2085 L979 2093 L990 2100 Q1013 2134 1039 2153 Q1096 2177 1145 2176 L1145 2213 L1130 2213 L1115 2213 L1103 2213 L1036 2213 L986 2213 L972 2213 L907 2213 L896 2213 L850 2213 L850 2176 Q900 2177 933 2156 Q932 2129 923 2108 L919 2100 L912 2089 L903 2082 Q882 2048 859 2029 L854 2017 Q833 1999 824 1983 L813 1972 L802 1964 Q764 1917 726 1893 Q723 1885 719 1885 Q694 1858 673 1843 Q661 1837 650 1836 L650 1850 L650 1870 L650 1885 L650 1953 L650 1968 L650 1983 L650 1999 L650 2062 L650 2073 L650 2119 L662 2153 Q711 2177 756 2176 L756 2213 L741 2213 L726 2213 L714 2213 L639 2213 L627 2213 L560 2213 L548 2213 L431 2213 L431 2176 Z M2166 1987 Q2086 1955 2041 1896 L2037 1903 Q2042 1949 2030 1983 L2003 1983 Q1991 1979 1980 1979 L1961 1979 Q1926 1975 1901 1976 Q1872 1971 1848 1972 L1848 1934 Q1907 1935 1931 1889 L1936 1873 L1936 1643 Q1941 1549 1927 1488 Q1891 1467 1856 1470 L1856 1431 L1871 1431 L1890 1431 L1904 1431 L1924 1431 L1939 1431 L1957 1431 L2007 1431 L2022 1431 L2086 1431 L2116 1431 L2143 1431 L2143 1470 Q2080 1466 2041 1500 Q2036 1529 2037 1553 L2037 1601 L2037 1617 L2037 1684 L2037 1700 L2037 1716 L2037 1730 L2037 1794 L2037 1806 L2037 1850 Q2086 1919 2159 1926 Q2142 1830 2233 1836 Q2319 1928 2215 1987 L2166 1987 Z M1319 1979 L1304 1979 L1292 1979 L1282 1979 L1270 1976 L1259 1976 L1183 1972 L1183 1934 Q1241 1931 1266 1889 L1270 1544 L1292 1481 Q1331 1438 1376 1420 Q1513 1411 1595 1507 L1602 1503 L1602 1493 Q1601 1458 1607 1431 L1648 1431 L1663 1436 L1727 1440 L1757 1440 Q1771 1443 1784 1443 L1784 1477 Q1730 1479 1704 1519 L1701 1541 L1701 1564 L1701 1576 L1701 1624 L1701 1689 L1701 1703 L1701 1767 L1701 1817 L1701 1832 L1701 1873 L1701 1900 L1701 1912 L1701 1923 Q1702 1958 1697 1983 L1685 1983 L1644 1979 L1629 1979 L1610 1979 L1602 1976 L1572 1976 L1497 1972 L1497 1934 Q1555 1941 1591 1907 L1598 1889 L1598 1553 Q1556 1500 1504 1481 Q1339 1464 1368 1662 L1368 1677 L1368 1689 L1368 1764 L1368 1776 L1368 1843 L1368 1855 L1368 1972 L1357 1983 L1335 1983 L1319 1979 Z M2555 1949 Q2671 1959 2718 1862 L2718 1537 Q2683 1500 2642 1484 Q2450 1455 2430 1659 Q2406 1866 2555 1949 Z M1388 1261 Q1453 1258 1497 1228 Q1510 1167 1504 1122 L1504 732 Q1509 643 1497 585 Q1443 549 1388 555 L1388 518 L1441 518 L1489 518 L1504 518 L1572 518 L1588 518 L1602 518 L1618 518 L1682 518 L1694 518 L1738 518 L1738 555 Q1673 560 1629 589 L1621 605 L1621 722 L1621 775 L1621 785 L1621 805 L1621 816 L1621 831 L1621 842 L1621 918 L1621 929 L1621 941 L1621 990 L1621 1001 L1621 1038 L1621 1051 L1621 1088 Q1616 1178 1629 1235 Q1684 1266 1738 1261 L1738 1300 L1685 1300 L1637 1300 L1621 1300 L1554 1300 L1538 1300 L1524 1300 L1508 1300 L1444 1300 L1432 1300 L1388 1300 L1388 1261 Z M1894 1058 L1878 1058 L1867 1058 L1791 1058 L1791 1008 L1803 1008 L1814 1008 L1890 1008 L1890 605 L1913 545 Q2019 472 2159 540 L2159 578 Q2065 552 2003 605 L2000 612 L1996 638 L1992 661 L1992 679 L1992 702 L1992 718 L1992 785 L1992 828 L1992 842 L1992 858 L1992 872 L1992 888 L1992 952 L1992 964 L1992 1008 L2003 1008 L2014 1008 L2033 1008 L2044 1008 L2060 1008 L2071 1008 L2147 1008 L2147 1058 L2136 1058 L2124 1058 L2106 1058 L2094 1058 L2079 1058 L2067 1058 L1992 1058 L1992 1088 L1992 1099 L1992 1111 L1992 1228 L1980 1228 L1969 1228 L1894 1228 L1894 1058 Z M526 571 Q138 475 189 80 Q280 -306 680 -237 Q686 -234 692 -234 L707 -230 L719 -226 L730 -223 L741 -219 L756 -216 L850 -181 L847 -151 L847 -140 L847 -90 L847 -80 L847 -34 Q843 18 859 57 Q901 82 949 83 L949 120 L923 120 L870 120 L859 120 L790 120 L741 120 L726 120 L662 120 L650 120 L605 120 L605 83 Q679 86 730 49 L733 37 L737 27 L737 -113 L733 -154 Q643 -210 544 -200 Q258 -106 325 276 Q388 601 680 499 Q783 406 806 279 L847 279 L847 295 L847 317 L847 332 L847 348 L847 412 L847 431 L843 442 L843 457 L843 469 L843 483 L843 552 Q795 559 779 518 Q650 581 526 571 Z M1690 329 Q1439 259 1462 0 Q1510 -233 1727 -246 Q1957 -224 1988 -7 Q2014 331 1690 329 Z M3031 329 Q2954 302 2907 253 Q2891 287 2898 317 L2884 322 L2865 322 Q2844 314 2827 317 L2812 317 Q2796 311 2781 313 L2706 310 L2706 272 Q2765 273 2792 230 Q2800 196 2797 166 L2797 -264 Q2802 -358 2789 -419 Q2747 -442 2706 -439 L2706 -476 L2725 -476 L2789 -476 L2804 -476 L2824 -476 L2872 -476 L2887 -476 L2951 -476 L2981 -476 L3008 -476 L3008 -439 Q2948 -439 2907 -408 L2902 -393 L2898 -377 L2898 -366 L2898 -352 L2898 -340 L2898 -320 L2898 -310 L2898 -294 L2898 -283 L2898 -207 Q3186 -324 3280 -37 Q3338 267 3077 329 L3057 329 L3043 329 L3031 329 Z M1308 325 Q1231 292 1186 234 Q1180 237 1179 242 L1179 253 Q1182 294 1176 322 L1149 322 Q1137 317 1126 317 L1108 317 Q1072 312 1047 313 Q1018 308 995 310 L995 272 Q1045 270 1073 234 L1078 216 L1078 -49 Q1083 -125 1070 -177 Q1032 -194 998 -193 L998 -230 L1013 -230 L1032 -230 L1047 -230 L1066 -230 L1082 -230 L1100 -230 L1149 -230 L1165 -230 L1229 -230 L1239 -230 L1285 -230 L1285 -193 Q1227 -194 1186 -166 L1183 -147 L1179 -129 L1179 -11 L1179 42 L1179 53 L1179 72 L1179 83 L1179 99 L1179 110 L1179 186 Q1229 255 1304 265 Q1283 169 1379 173 Q1457 266 1361 325 L1308 325 Z M2207 322 Q2202 317 2196 317 L2185 317 L2166 317 Q2130 312 2106 313 Q2075 308 2053 310 L2053 272 Q2115 272 2139 223 L2150 -151 Q2198 -245 2290 -242 Q2401 -236 2465 -154 Q2479 -190 2472 -223 Q2486 -230 2502 -230 L2518 -230 L2532 -226 L2574 -226 Q2579 -223 2585 -223 L2596 -223 L2657 -219 L2657 -186 Q2606 -182 2578 -147 Q2573 -126 2574 -106 L2574 -90 L2574 -80 L2574 -60 L2574 -49 L2574 -34 L2574 -23 L2574 53 L2574 69 L2574 83 L2574 151 L2574 166 L2574 182 L2574 196 L2574 260 L2574 272 L2574 317 L2555 322 L2539 322 Q2525 314 2509 317 L2491 317 Q2453 312 2426 313 L2415 313 Q2394 307 2369 310 L2369 272 Q2424 276 2460 249 L2468 234 L2472 212 L2472 -110 Q2430 -163 2377 -177 Q2297 -199 2253 -136 L2253 -124 Q2242 -104 2242 -80 L2242 -67 L2242 7 L2242 57 L2242 72 L2242 140 L2242 155 L2242 170 L2242 186 L2242 249 L2242 260 L2242 306 Q2236 319 2222 322 L2207 322 Z M1697 287 Q1868 290 1874 117 Q1921 -95 1777 -196 Q1595 -228 1577 -14 Q1545 213 1697 287 Z M3001 272 Q3134 267 3163 147 Q3199 6 3151 -110 Q3114 -196 3027 -204 Q2934 -196 2898 -117 L2898 -94 L2898 -80 L2898 -11 L2898 30 L2898 46 L2898 60 L2898 76 L2898 90 L2898 155 L2898 166 L2898 212 Q2945 258 3001 272 Z " />
<glyph glyph-name="uniF8FF.F8FF" unicode="&#xf8ff;" horiz-adv-x="3393" d="M2744 2285 Q2738 2281 2732 2282 L2721 2282 L2709 2282 L2698 2282 L2684 2282 L2589 2274 L2589 2244 Q2661 2242 2706 2202 L2718 2165 L2718 1956 Q2545 2034 2415 1926 Q2268 1771 2339 1579 Q2484 1306 2706 1488 Q2722 1479 2721 1431 L2736 1431 Q2761 1432 2778 1436 L2792 1436 L2804 1436 L2831 1440 L2914 1443 L2914 1477 Q2848 1473 2819 1523 L2819 1553 L2819 1583 L2819 1613 L2819 1689 L2819 1700 L2819 1711 L2819 1829 L2819 1855 L2819 1877 L2819 1903 L2819 1926 L2819 1946 L2819 1968 L2819 1983 L2819 2052 L2819 2093 L2819 2108 L2819 2123 L2819 2138 L2819 2153 L2819 2218 L2819 2229 L2819 2274 L2815 2285 L2804 2285 L2792 2285 L2744 2285 Z M431 2176 Q496 2174 533 2130 L533 1643 Q538 1554 526 1496 Q479 1467 431 1470 L431 1431 L447 1431 L461 1431 L473 1431 L548 1431 L560 1431 L627 1431 L639 1431 L756 1431 L756 1470 Q700 1476 662 1500 Q653 1523 650 1541 L650 1560 L650 1576 L650 1640 L650 1681 L650 1696 L650 1760 L650 1772 L650 1817 Q670 1815 680 1806 L714 1764 L726 1753 L737 1741 L745 1734 L753 1723 Q778 1695 790 1673 L802 1666 L809 1650 Q842 1623 854 1594 Q861 1590 862 1587 Q880 1567 889 1553 Q902 1537 907 1523 L915 1519 L919 1511 L926 1503 L930 1496 L937 1484 Q960 1454 972 1431 L986 1431 L1006 1431 L1055 1431 L1070 1431 L1135 1431 L1145 1431 L1191 1431 L1191 1470 Q1136 1475 1096 1496 Q1067 1519 1051 1537 Q1025 1559 1013 1583 L998 1601 L983 1617 L976 1624 Q964 1644 949 1659 L942 1673 L930 1681 L903 1719 L896 1726 L885 1737 L880 1749 Q874 1753 873 1756 Q867 1760 866 1764 L859 1772 L850 1783 Q844 1787 843 1790 L824 1813 Q790 1843 776 1873 L790 1885 L809 1903 L820 1919 L854 1949 L866 1964 L873 1976 L885 1987 Q900 2000 907 2013 L919 2025 L930 2036 Q943 2053 956 2062 Q960 2068 964 2070 L968 2078 L972 2085 L979 2093 L990 2100 Q1013 2134 1039 2153 Q1096 2177 1145 2176 L1145 2213 L1130 2213 L1115 2213 L1103 2213 L1036 2213 L986 2213 L972 2213 L907 2213 L896 2213 L850 2213 L850 2176 Q900 2177 933 2156 Q932 2129 923 2108 L919 2100 L912 2089 L903 2082 Q882 2048 859 2029 L854 2017 Q833 1999 824 1983 L813 1972 L802 1964 Q764 1917 726 1893 Q723 1885 719 1885 Q694 1858 673 1843 Q661 1837 650 1836 L650 1850 L650 1870 L650 1885 L650 1953 L650 1968 L650 1983 L650 1999 L650 2062 L650 2073 L650 2119 L662 2153 Q711 2177 756 2176 L756 2213 L741 2213 L726 2213 L714 2213 L639 2213 L627 2213 L560 2213 L548 2213 L431 2213 L431 2176 Z M2166 1987 Q2086 1955 2041 1896 L2037 1903 Q2042 1949 2030 1983 L2003 1983 Q1991 1979 1980 1979 L1961 1979 Q1926 1975 1901 1976 Q1872 1971 1848 1972 L1848 1934 Q1907 1935 1931 1889 L1936 1873 L1936 1643 Q1941 1549 1927 1488 Q1891 1467 1856 1470 L1856 1431 L1871 1431 L1890 1431 L1904 1431 L1924 1431 L1939 1431 L1957 1431 L2007 1431 L2022 1431 L2086 1431 L2116 1431 L2143 1431 L2143 1470 Q2080 1466 2041 1500 Q2036 1529 2037 1553 L2037 1601 L2037 1617 L2037 1684 L2037 1700 L2037 1716 L2037 1730 L2037 1794 L2037 1806 L2037 1850 Q2086 1919 2159 1926 Q2142 1830 2233 1836 Q2319 1928 2215 1987 L2166 1987 Z M1319 1979 L1304 1979 L1292 1979 L1282 1979 L1270 1976 L1259 1976 L1183 1972 L1183 1934 Q1241 1931 1266 1889 L1270 1544 L1292 1481 Q1331 1438 1376 1420 Q1513 1411 1595 1507 L1602 1503 L1602 1493 Q1601 1458 1607 1431 L1648 1431 L1663 1436 L1727 1440 L1757 1440 Q1771 1443 1784 1443 L1784 1477 Q1730 1479 1704 1519 L1701 1541 L1701 1564 L1701 1576 L1701 1624 L1701 1689 L1701 1703 L1701 1767 L1701 1817 L1701 1832 L1701 1873 L1701 1900 L1701 1912 L1701 1923 Q1702 1958 1697 1983 L1685 1983 L1644 1979 L1629 1979 L1610 1979 L1602 1976 L1572 1976 L1497 1972 L1497 1934 Q1555 1941 1591 1907 L1598 1889 L1598 1553 Q1556 1500 1504 1481 Q1339 1464 1368 1662 L1368 1677 L1368 1689 L1368 1764 L1368 1776 L1368 1843 L1368 1855 L1368 1972 L1357 1983 L1335 1983 L1319 1979 Z M2555 1949 Q2671 1959 2718 1862 L2718 1537 Q2683 1500 2642 1484 Q2450 1455 2430 1659 Q2406 1866 2555 1949 Z M1388 1261 Q1453 1258 1497 1228 Q1510 1167 1504 1122 L1504 732 Q1509 643 1497 585 Q1443 549 1388 555 L1388 518 L1441 518 L1489 518 L1504 518 L1572 518 L1588 518 L1602 518 L1618 518 L1682 518 L1694 518 L1738 518 L1738 555 Q1673 560 1629 589 L1621 605 L1621 722 L1621 775 L1621 785 L1621 805 L1621 816 L1621 831 L1621 842 L1621 918 L1621 929 L1621 941 L1621 990 L1621 1001 L1621 1038 L1621 1051 L1621 1088 Q1616 1178 1629 1235 Q1684 1266 1738 1261 L1738 1300 L1685 1300 L1637 1300 L1621 1300 L1554 1300 L1538 1300 L1524 1300 L1508 1300 L1444 1300 L1432 1300 L1388 1300 L1388 1261 Z M1894 1058 L1878 1058 L1867 1058 L1791 1058 L1791 1008 L1803 1008 L1814 1008 L1890 1008 L1890 605 L1913 545 Q2019 472 2159 540 L2159 578 Q2065 552 2003 605 L2000 612 L1996 638 L1992 661 L1992 679 L1992 702 L1992 718 L1992 785 L1992 828 L1992 842 L1992 858 L1992 872 L1992 888 L1992 952 L1992 964 L1992 1008 L2003 1008 L2014 1008 L2033 1008 L2044 1008 L2060 1008 L2071 1008 L2147 1008 L2147 1058 L2136 1058 L2124 1058 L2106 1058 L2094 1058 L2079 1058 L2067 1058 L1992 1058 L1992 1088 L1992 1099 L1992 1111 L1992 1228 L1980 1228 L1969 1228 L1894 1228 L1894 1058 Z M526 571 Q138 475 189 80 Q280 -306 680 -237 Q686 -234 692 -234 L707 -230 L719 -226 L730 -223 L741 -219 L756 -216 L850 -181 L847 -151 L847 -140 L847 -90 L847 -80 L847 -34 Q843 18 859 57 Q901 82 949 83 L949 120 L923 120 L870 120 L859 120 L790 120 L741 120 L726 120 L662 120 L650 120 L605 120 L605 83 Q679 86 730 49 L733 37 L737 27 L737 -113 L733 -154 Q643 -210 544 -200 Q258 -106 325 276 Q388 601 680 499 Q783 406 806 279 L847 279 L847 295 L847 317 L847 332 L847 348 L847 412 L847 431 L843 442 L843 457 L843 469 L843 483 L843 552 Q795 559 779 518 Q650 581 526 571 Z M1690 329 Q1439 259 1462 0 Q1510 -233 1727 -246 Q1957 -224 1988 -7 Q2014 331 1690 329 Z M3031 329 Q2954 302 2907 253 Q2891 287 2898 317 L2884 322 L2865 322 Q2844 314 2827 317 L2812 317 Q2796 311 2781 313 L2706 310 L2706 272 Q2765 273 2792 230 Q2800 196 2797 166 L2797 -264 Q2802 -358 2789 -419 Q2747 -442 2706 -439 L2706 -476 L2725 -476 L2789 -476 L2804 -476 L2824 -476 L2872 -476 L2887 -476 L2951 -476 L2981 -476 L3008 -476 L3008 -439 Q2948 -439 2907 -408 L2902 -393 L2898 -377 L2898 -366 L2898 -352 L2898 -340 L2898 -320 L2898 -310 L2898 -294 L2898 -283 L2898 -207 Q3186 -324 3280 -37 Q3338 267 3077 329 L3057 329 L3043 329 L3031 329 Z M1308 325 Q1231 292 1186 234 Q1180 237 1179 242 L1179 253 Q1182 294 1176 322 L1149 322 Q1137 317 1126 317 L1108 317 Q1072 312 1047 313 Q1018 308 995 310 L995 272 Q1045 270 1073 234 L1078 216 L1078 -49 Q1083 -125 1070 -177 Q1032 -194 998 -193 L998 -230 L1013 -230 L1032 -230 L1047 -230 L1066 -230 L1082 -230 L1100 -230 L1149 -230 L1165 -230 L1229 -230 L1239 -230 L1285 -230 L1285 -193 Q1227 -194 1186 -166 L1183 -147 L1179 -129 L1179 -11 L1179 42 L1179 53 L1179 72 L1179 83 L1179 99 L1179 110 L1179 186 Q1229 255 1304 265 Q1283 169 1379 173 Q1457 266 1361 325 L1308 325 Z M2207 322 Q2202 317 2196 317 L2185 317 L2166 317 Q2130 312 2106 313 Q2075 308 2053 310 L2053 272 Q2115 272 2139 223 L2150 -151 Q2198 -245 2290 -242 Q2401 -236 2465 -154 Q2479 -190 2472 -223 Q2486 -230 2502 -230 L2518 -230 L2532 -226 L2574 -226 Q2579 -223 2585 -223 L2596 -223 L2657 -219 L2657 -186 Q2606 -182 2578 -147 Q2573 -126 2574 -106 L2574 -90 L2574 -80 L2574 -60 L2574 -49 L2574 -34 L2574 -23 L2574 53 L2574 69 L2574 83 L2574 151 L2574 166 L2574 182 L2574 196 L2574 260 L2574 272 L2574 317 L2555 322 L2539 322 Q2525 314 2509 317 L2491 317 Q2453 312 2426 313 L2415 313 Q2394 307 2369 310 L2369 272 Q2424 276 2460 249 L2468 234 L2472 212 L2472 -110 Q2430 -163 2377 -177 Q2297 -199 2253 -136 L2253 -124 Q2242 -104 2242 -80 L2242 -67 L2242 7 L2242 57 L2242 72 L2242 140 L2242 155 L2242 170 L2242 186 L2242 249 L2242 260 L2242 306 Q2236 319 2222 322 L2207 322 Z M1697 287 Q1868 290 1874 117 Q1921 -95 1777 -196 Q1595 -228 1577 -14 Q1545 213 1697 287 Z M3001 272 Q3134 267 3163 147 Q3199 6 3151 -110 Q3114 -196 3027 -204 Q2934 -196 2898 -117 L2898 -94 L2898 -80 L2898 -11 L2898 30 L2898 46 L2898 60 L2898 76 L2898 90 L2898 155 L2898 166 L2898 212 Q2945 258 3001 272 Z " />
</font>
</svg>
